{"glyphs":{"0":{"ha":748,"x_min":62,"x_max":690,"o":"m 409 644 q 613 568 536 644 q 690 360 690 491 q 592 89 690 195 q 344 -18 495 -18 q 139 59 215 -18 q 62 262 62 136 q 160 537 62 431 q 409 644 257 644 m 401 591 q 252 493 309 591 q 195 256 195 395 q 236 95 195 155 q 352 35 278 35 q 500 133 444 35 q 557 371 557 231 q 515 533 557 475 q 401 591 473 591 z "},"1":{"ha":427,"x_min":-16,"x_max":355,"o":"m 79 571 l 81 600 q 349 644 215 620 l 353 639 q 299 394 323 520 l 267 222 q 240 77 249 132 q 253 53 237 58 l 355 25 l 352 -2 q 167 0 230 0 q -16 -2 104 0 l -14 25 l 96 53 q 117 75 113 58 q 142 197 130 130 l 165 316 q 208 557 191 452 l 79 571 z "},"2":{"ha":639,"x_min":-7,"x_max":581,"o":"m 551 213 l 581 218 l 526 3 l 521 -2 q 252 0 412 0 q -7 -2 79 0 l -2 52 q 184 174 106 121 q 311 273 262 228 q 384 358 361 318 q 407 439 407 397 q 370 526 407 494 q 279 558 334 558 q 123 515 205 558 l 102 558 q 337 644 219 644 q 486 594 426 644 q 547 466 547 544 q 523 379 547 420 q 451 295 499 338 q 329 207 402 253 q 158 104 256 160 l 158 101 l 479 101 l 551 213 z "},"3":{"ha":634,"x_min":-67,"x_max":574,"o":"m 150 225 q 356 295 275 239 q 437 437 437 351 q 398 528 437 492 q 294 563 359 563 q 108 511 205 563 l 90 556 q 361 644 229 644 q 517 596 459 644 q 574 477 574 549 q 503 330 574 391 q 322 235 431 269 l 322 232 q 485 183 420 235 q 550 39 550 132 q 526 -69 550 -20 q 458 -157 501 -118 q 357 -225 416 -196 q 230 -273 298 -254 q 85 -302 161 -292 q -67 -312 9 -312 l -64 -262 q 57 -252 -2 -260 q 170 -229 117 -244 q 268 -191 223 -214 q 345 -137 312 -168 q 395 -66 377 -106 q 413 22 413 -26 q 370 142 413 99 q 245 184 327 184 q 144 176 194 184 l 150 225 z "},"4":{"ha":720,"x_min":14,"x_max":669,"o":"m 403 105 l 446 334 l 567 345 l 522 105 l 669 105 l 657 25 q 507 27 586 27 l 487 -79 q 471 -168 479 -120 q 454 -271 462 -216 q 333 -289 393 -278 l 328 -283 q 348 -182 339 -231 q 366 -90 357 -134 l 389 27 l 228 27 q 130 27 184 27 q 14 25 77 26 l 18 75 q 155 229 85 152 q 292 379 224 307 q 424 518 360 452 q 545 640 488 585 l 633 644 l 635 636 q 556 557 599 601 q 467 465 513 513 q 375 368 421 417 q 284 271 328 318 q 201 181 241 224 q 132 105 162 138 l 403 105 z "},"5":{"ha":646,"x_min":-64,"x_max":610,"o":"m -64 -311 l -62 -260 q 128 -237 40 -258 q 281 -176 216 -215 q 382 -82 345 -137 q 419 42 419 -27 q 349 197 419 138 q 103 273 279 256 l 100 278 l 199 629 q 391 627 271 627 q 608 629 533 627 l 610 624 l 574 515 l 230 524 l 184 369 q 460 274 366 351 q 555 74 555 197 q 532 -38 555 14 q 468 -133 509 -90 q 369 -208 427 -175 q 243 -263 312 -241 q 97 -298 175 -286 q -64 -311 18 -310 z "},"6":{"ha":751,"x_min":72,"x_max":749,"o":"m 749 897 q 243 490 381 858 l 244 489 q 450 578 328 578 q 622 512 555 578 q 688 340 688 446 q 586 89 688 195 q 335 -18 483 -18 q 140 62 208 -18 q 72 280 72 142 q 91 427 72 352 q 149 573 111 502 q 244 709 187 645 q 376 823 301 773 q 544 905 451 873 q 747 945 637 937 l 749 897 m 553 333 q 512 470 551 421 q 401 518 473 518 q 253 440 311 518 q 196 243 196 363 q 234 90 196 146 q 342 34 273 34 q 494 122 435 34 q 553 333 553 210 z "},"7":{"ha":671,"x_min":49,"x_max":696,"o":"m 49 -273 l 566 524 l 158 524 l 96 390 l 68 385 l 102 624 l 108 629 q 256 627 184 628 q 397 627 328 627 l 439 627 q 573 627 509 627 q 696 629 637 628 l 694 600 q 597 451 646 528 q 501 296 549 374 q 407 141 453 218 q 320 -9 361 64 q 243 -149 279 -82 q 179 -271 207 -215 l 52 -278 l 49 -273 z "},"8":{"ha":745,"x_min":45,"x_max":726,"o":"m 179 695 q 264 862 179 793 q 477 930 349 930 q 656 879 587 930 q 726 749 726 828 q 663 608 726 670 q 492 502 600 545 q 641 377 597 435 q 685 250 685 319 q 584 59 685 135 q 336 -18 483 -18 q 126 41 206 -18 q 45 199 45 100 q 113 357 45 292 q 317 476 180 421 q 213 575 246 524 q 179 695 179 627 m 171 213 q 222 87 171 137 q 355 37 274 37 q 494 85 436 37 q 551 212 551 134 q 513 328 551 275 q 356 451 475 381 q 211 348 251 405 q 171 213 171 292 m 604 741 q 564 842 604 806 q 456 877 524 877 q 339 834 382 877 q 296 723 296 792 q 336 621 296 667 q 448 530 377 574 q 604 741 604 602 z "},"9":{"ha":751,"x_min":14,"x_max":691,"o":"m 14 -262 q 520 137 387 -223 l 519 138 q 313 48 436 48 q 141 114 208 48 q 75 287 75 180 q 179 539 75 433 q 428 644 283 644 q 622 566 552 644 q 691 347 691 488 q 672 200 691 275 q 614 56 652 126 q 519 -78 576 -15 q 387 -191 462 -142 q 219 -272 312 -240 q 16 -311 126 -303 l 14 -262 m 210 294 q 251 157 212 205 q 362 109 290 109 q 510 185 452 109 q 567 384 567 262 q 528 538 567 484 q 420 593 488 593 q 269 505 328 593 q 210 294 210 418 z "},"\u0000":{"ha":0,"x_min":0,"x_max":0,"o":""},"\r":{"ha":0,"x_min":0,"x_max":0,"o":""}," ":{"ha":328,"x_min":0,"x_max":0,"o":""},"A":{"ha":918,"x_min":-94,"x_max":873,"o":"m 203 28 l 198 -2 q 39 0 113 0 q -94 -2 -34 0 l -91 27 l -22 48 q 6 62 -7 54 q 28 81 18 71 q 45 102 38 91 q 60 124 53 113 l 548 954 l 614 964 l 758 134 q 776 71 764 88 q 810 46 787 54 l 873 27 l 869 -2 q 703 0 784 0 q 528 -2 623 0 l 531 27 l 595 46 q 619 58 610 51 q 628 87 628 66 q 618 169 628 109 l 588 353 l 271 353 l 168 171 q 133 106 146 132 q 119 68 119 79 q 125 56 119 61 q 142 47 130 51 l 203 28 m 578 412 l 517 786 l 305 412 l 578 412 z "},"B":{"ha":816,"x_min":9,"x_max":796,"o":"m 182 949 q 355 947 272 947 q 430 950 375 947 q 507 954 486 954 q 723 901 650 954 q 796 760 796 849 q 574 511 796 561 q 758 302 758 461 q 644 76 758 155 q 343 -4 530 -4 q 267 -2 309 -4 q 176 0 224 0 q 9 -2 94 0 l 12 27 l 97 52 q 120 73 115 58 q 132 134 125 100 q 147 208 139 168 l 252 758 q 264 821 259 793 q 272 871 269 848 q 260 894 275 888 l 178 920 l 182 949 m 326 476 l 248 59 q 346 48 284 48 q 544 110 476 48 q 612 289 612 171 q 559 430 612 380 q 404 479 506 479 q 326 476 366 479 m 337 528 q 403 527 368 527 q 596 581 532 527 q 661 744 661 635 q 612 858 661 819 q 469 898 564 898 q 406 893 439 898 l 337 528 z "},"C":{"ha":895,"x_min":79,"x_max":930,"o":"m 851 713 l 823 709 l 808 888 q 659 908 740 908 q 346 757 469 908 q 222 395 222 606 q 313 147 222 237 q 562 57 404 57 q 774 96 664 57 l 783 68 q 482 -20 646 -20 q 189 89 299 -20 q 79 381 79 199 q 252 801 79 637 q 686 965 425 965 q 926 937 799 965 l 930 932 l 851 713 z "},"D":{"ha":1042,"x_min":9,"x_max":1000,"o":"m 176 0 q 9 -2 94 0 l 12 27 l 97 52 q 120 73 117 58 q 132 134 125 100 q 147 208 139 168 l 252 758 q 264 821 259 793 q 272 871 269 848 q 260 894 275 888 l 178 920 l 182 949 q 355 947 272 947 q 461 950 395 947 q 572 954 527 954 q 887 861 774 954 q 1000 595 1000 769 q 832 162 1000 328 q 383 -4 665 -4 q 281 -2 347 -4 q 176 0 214 0 m 250 58 q 400 49 313 49 q 733 205 608 49 q 857 598 857 362 q 782 823 857 749 q 550 898 706 898 q 408 892 489 898 l 250 58 z "},"E":{"ha":791,"x_min":9,"x_max":827,"o":"m 353 947 l 502 947 q 823 949 654 947 l 827 944 l 750 734 l 722 730 l 709 888 l 407 888 l 336 513 l 404 513 q 540 513 453 513 q 566 532 559 515 l 608 624 l 645 625 q 615 482 624 528 q 591 347 607 438 l 555 344 l 547 437 q 530 456 546 455 q 393 457 471 457 l 325 457 l 278 210 q 251 60 264 134 l 568 60 l 676 233 l 709 239 l 653 3 l 648 -2 q 324 0 473 0 l 176 0 q 9 -2 94 0 l 12 27 l 97 52 q 120 73 115 57 q 132 134 125 100 q 147 208 139 168 l 252 758 q 264 821 259 793 q 272 871 269 848 q 260 894 275 888 l 178 920 l 182 949 q 353 947 272 947 z "},"F":{"ha":734,"x_min":9,"x_max":827,"o":"m 277 208 q 254 77 262 128 q 267 56 252 60 l 361 27 l 356 -2 q 176 0 256 0 q 9 -2 94 0 l 12 27 l 97 52 q 120 73 117 58 q 147 208 132 128 l 252 758 q 264 821 259 793 q 272 871 269 848 q 260 894 275 888 l 178 920 l 182 949 q 353 947 272 947 l 502 947 q 823 949 654 947 l 827 944 l 750 734 l 722 730 l 709 888 l 407 888 l 333 498 l 383 498 q 541 499 454 498 q 567 517 559 500 l 612 610 l 646 611 q 617 471 625 516 q 593 332 608 427 l 559 330 l 549 423 q 532 441 546 441 q 372 443 443 443 l 322 443 l 277 208 z "},"G":{"ha":941,"x_min":77,"x_max":928,"o":"m 850 713 l 822 709 l 806 888 q 663 908 742 908 q 345 758 468 908 q 221 397 221 608 q 306 137 221 240 q 529 35 391 35 q 629 46 577 35 l 664 231 q 676 293 671 265 q 685 343 680 320 q 673 366 685 360 l 591 393 l 595 422 q 763 419 685 419 q 918 422 844 419 l 916 393 l 841 370 q 819 350 823 366 q 807 295 813 323 q 795 233 802 267 l 753 18 l 749 14 q 503 -20 622 -20 q 191 84 304 -20 q 77 376 77 189 q 248 802 77 638 q 690 965 419 965 q 925 937 804 965 l 928 932 l 850 713 z "},"H":{"ha":1083,"x_min":9,"x_max":1131,"o":"m 328 471 l 277 208 q 253 74 262 128 q 267 51 250 56 l 339 27 l 335 -2 q 174 0 254 0 q 9 -2 94 0 l 12 27 l 97 52 q 120 73 117 58 q 147 208 132 128 l 252 758 q 272 871 265 826 q 260 894 275 888 l 178 920 l 182 949 q 350 947 272 947 q 512 949 432 947 l 509 920 l 428 897 q 406 876 410 892 q 382 761 395 827 l 339 532 l 823 532 l 866 761 q 887 876 879 827 q 873 897 890 892 l 801 920 l 805 949 q 968 947 888 947 q 1131 949 1048 947 l 1128 920 l 1040 894 q 1019 871 1023 888 q 996 758 1009 826 l 891 208 q 867 73 877 128 q 881 52 865 58 l 962 27 l 958 -2 q 787 0 866 0 q 629 -2 706 0 l 632 27 l 711 51 q 734 74 730 56 q 761 208 746 128 l 811 471 l 328 471 z "},"I":{"ha":469,"x_min":9,"x_max":517,"o":"m 277 208 q 263 134 269 168 q 253 74 258 101 q 272 51 251 57 l 348 27 l 343 -2 q 176 0 254 0 q 9 -2 94 0 l 12 27 l 97 52 q 120 73 115 57 q 132 134 125 100 q 147 208 139 168 l 252 758 q 264 821 259 793 q 272 871 269 848 q 260 894 275 888 l 178 920 l 182 949 q 352 947 272 947 q 517 949 432 947 l 513 920 l 427 895 q 406 874 410 891 q 395 822 400 850 q 382 761 389 794 l 277 208 z "},"J":{"ha":433,"x_min":-155,"x_max":507,"o":"m 173 949 q 343 947 262 947 q 507 949 422 947 l 504 920 l 418 895 q 396 874 401 891 q 385 822 391 850 q 373 761 379 794 l 256 146 q 228 25 243 80 q 191 -72 212 -29 q 141 -148 171 -115 q 71 -208 111 -182 q -24 -254 31 -234 q -146 -289 -79 -273 l -155 -256 q -32 -190 -79 -226 q 45 -108 16 -154 q 91 -4 75 -62 q 121 126 108 54 l 243 758 q 254 821 249 793 q 262 871 259 848 q 250 894 265 888 l 168 920 l 173 949 z "},"K":{"ha":911,"x_min":9,"x_max":994,"o":"m 382 761 l 277 208 q 263 134 269 168 q 253 74 258 101 q 267 51 251 56 l 340 27 l 336 -2 q 176 0 254 0 q 9 -2 94 0 l 12 27 l 97 52 q 120 73 117 58 q 132 134 125 100 q 147 208 139 168 l 252 758 q 264 821 259 793 q 272 871 269 848 q 260 894 275 888 l 178 920 l 182 949 q 353 947 272 947 q 509 949 431 947 l 507 920 l 428 897 q 406 876 411 892 q 395 823 401 851 q 382 761 389 794 m 348 484 l 669 785 q 730 845 706 821 q 758 885 754 870 q 743 903 760 899 l 690 918 l 694 949 q 848 947 762 947 q 994 949 926 947 l 991 920 l 921 899 q 860 867 888 888 q 799 818 831 846 l 477 515 l 701 116 q 734 72 718 87 q 779 47 749 57 l 848 27 l 844 -2 q 696 0 784 0 q 653 0 673 0 q 608 -1 632 -1 q 517 182 593 47 l 348 484 z "},"L":{"ha":758,"x_min":9,"x_max":722,"o":"m 382 761 l 278 210 q 251 60 264 134 l 573 60 l 688 240 l 722 245 l 664 3 l 659 -2 q 356 0 505 0 l 176 0 q 9 -2 94 0 l 12 27 l 97 52 q 120 73 115 57 q 132 134 125 100 q 147 208 139 168 l 252 758 q 264 821 259 793 q 272 871 269 848 q 260 894 275 888 l 178 920 l 182 949 q 353 947 272 947 q 517 949 432 947 l 513 920 l 427 895 q 406 874 410 891 q 391 805 400 850 q 382 761 382 760 z "},"M":{"ha":1239,"x_min":-10,"x_max":1289,"o":"m 1043 949 q 1154 947 1103 947 q 1289 949 1204 947 l 1286 920 l 1196 894 q 1175 871 1179 888 q 1152 758 1165 826 l 1047 208 q 1023 73 1032 128 q 1037 52 1021 58 l 1115 27 l 1111 -2 q 942 0 1021 0 q 783 -2 861 0 l 786 27 l 867 51 q 890 75 885 56 q 916 208 901 128 l 1029 795 l 541 0 l 501 -3 l 317 795 l 204 208 q 180 75 189 128 q 193 51 177 56 l 264 27 l 260 -2 q 126 0 180 0 q -10 -2 77 0 l -7 27 l 80 52 q 103 73 100 58 q 130 208 115 128 l 235 758 q 255 871 248 826 q 243 894 258 888 l 164 920 l 168 949 q 306 947 255 947 q 412 949 360 947 l 586 201 l 1043 949 z "},"N":{"ha":1008,"x_min":-7,"x_max":1083,"o":"m 310 775 l 205 208 q 192 135 198 168 q 182 75 186 102 q 194 52 179 56 l 273 28 l 269 -2 q 132 0 182 0 q -7 -2 77 0 l -4 27 l 81 52 q 104 73 100 58 q 117 134 110 101 q 131 208 123 168 l 233 758 q 243 821 239 793 q 252 871 248 848 q 240 894 255 889 l 158 920 l 162 949 q 241 947 207 948 q 300 947 276 947 q 331 947 315 947 q 362 949 347 948 l 771 218 l 874 761 q 886 822 881 794 q 895 874 891 850 q 881 895 897 890 l 803 918 l 807 949 q 886 947 852 948 q 946 947 921 947 q 1007 947 973 947 q 1083 949 1042 948 l 1080 920 l 992 894 q 972 871 976 889 q 961 821 966 848 q 949 758 956 793 l 804 0 l 749 -5 l 310 775 z "},"O":{"ha":1082,"x_min":79,"x_max":1042,"o":"m 484 -24 q 189 79 298 -24 q 79 368 79 181 q 241 793 79 618 q 637 968 403 968 q 933 867 823 968 q 1042 576 1042 765 q 881 151 1042 325 q 484 -24 719 -24 m 897 595 q 823 829 897 745 q 624 914 749 914 q 331 753 437 914 q 224 351 224 593 q 297 116 224 202 q 497 31 370 31 q 790 190 684 31 q 897 595 897 350 z "},"P":{"ha":798,"x_min":9,"x_max":821,"o":"m 324 458 q 408 450 357 450 q 610 516 541 450 q 679 707 679 582 q 628 847 679 798 q 476 897 577 897 q 407 889 439 897 l 324 458 m 12 27 l 97 52 q 120 73 117 58 q 132 134 125 100 q 147 208 139 168 l 252 758 q 264 821 259 793 q 272 871 269 848 q 260 894 275 888 l 178 920 l 182 949 q 331 947 269 947 q 424 949 357 947 q 519 952 491 952 q 740 893 660 952 q 821 725 821 835 q 706 479 821 564 q 414 393 592 393 q 313 401 362 393 l 276 208 q 252 75 261 127 q 266 54 250 59 l 356 27 l 352 -2 q 174 0 252 0 q 9 -2 94 0 l 12 27 z "},"Q":{"ha":1082,"x_min":79,"x_max":1042,"o":"m 637 968 q 932 867 823 968 q 1042 576 1042 766 q 895 167 1042 334 q 553 -19 748 1 q 826 -176 607 -176 q 986 -148 916 -176 l 994 -178 q 779 -290 859 -290 q 460 -23 530 -290 q 185 82 290 -16 q 79 368 79 181 q 241 793 79 617 q 637 968 402 968 m 897 595 q 823 829 897 745 q 624 914 749 914 q 331 753 437 914 q 224 351 224 592 q 297 116 224 202 q 497 31 370 31 q 790 190 684 31 q 897 595 897 349 z "},"R":{"ha":866,"x_min":9,"x_max":829,"o":"m 277 208 q 263 135 269 168 q 254 76 258 102 q 267 50 251 55 l 340 27 l 336 -2 q 176 0 254 0 q 9 -2 94 0 l 12 27 l 97 52 q 120 73 115 58 q 132 134 125 100 q 147 208 139 168 l 252 758 q 264 821 259 793 q 272 871 269 848 q 260 894 276 888 l 178 920 l 182 949 q 355 947 272 947 q 382 948 364 947 q 431 950 400 949 q 483 952 463 951 q 511 953 503 953 q 733 899 656 953 q 809 744 809 844 q 549 463 809 528 q 583 388 567 425 q 613 313 598 351 q 642 243 627 277 q 672 172 656 208 q 698 115 685 140 q 728 72 711 90 q 769 42 745 54 q 829 25 793 31 l 824 -5 q 745 -11 781 -11 q 675 -5 704 -11 q 624 14 646 0 q 585 53 602 28 q 551 117 568 78 q 526 178 538 146 q 503 244 514 210 q 475 320 489 281 q 444 399 461 358 q 432 421 438 412 q 420 434 427 429 q 406 441 414 439 q 387 443 397 443 l 322 445 l 277 208 m 332 494 q 406 492 371 492 q 600 551 533 492 q 667 725 667 610 q 619 855 667 812 q 480 897 570 897 q 408 892 454 897 l 332 494 z "},"S":{"ha":707,"x_min":9,"x_max":732,"o":"m 614 892 q 506 909 564 909 q 331 858 400 909 q 262 723 262 807 q 278 651 262 681 q 321 597 294 621 q 381 556 348 574 q 450 522 414 538 q 525 480 490 502 q 588 430 561 458 q 632 365 615 401 q 648 279 648 328 q 620 155 648 210 q 536 60 592 100 q 251 -18 423 -18 q 12 17 119 -18 l 9 22 l 83 253 l 115 258 l 127 59 q 262 38 193 38 q 445 90 376 38 q 515 229 515 142 q 499 303 515 273 q 458 357 484 334 q 398 399 433 380 q 327 436 364 417 q 253 478 288 455 q 191 530 218 501 q 147 597 163 559 q 131 682 131 635 q 241 887 131 809 q 520 965 351 965 q 728 939 622 965 l 732 935 l 656 723 l 629 718 l 614 892 z "},"T":{"ha":836,"x_min":108,"x_max":947,"o":"m 359 0 q 172 -2 275 0 l 179 27 l 282 57 q 304 78 300 62 q 331 210 315 130 l 460 888 l 231 888 l 137 706 l 108 701 l 134 944 l 140 949 q 458 947 305 947 l 622 947 q 944 949 774 947 l 947 944 l 862 706 l 834 701 l 821 888 l 590 888 l 461 210 q 437 78 446 130 q 451 57 435 62 l 549 27 l 545 -2 q 359 0 437 0 z "},"U":{"ha":1015,"x_min":144,"x_max":1092,"o":"m 159 949 q 327 947 248 947 q 493 949 408 947 l 490 920 l 404 895 q 382 874 387 891 q 371 822 377 850 q 359 761 366 794 l 292 405 q 276 268 276 323 q 330 105 276 162 q 487 47 384 47 q 618 71 565 47 q 708 141 671 95 q 767 257 745 187 q 808 418 790 326 l 873 761 q 884 822 879 794 q 892 874 888 850 q 879 895 895 890 l 802 918 l 806 949 q 949 947 892 947 q 1092 949 1009 947 l 1089 920 l 1002 894 q 981 871 985 888 q 970 821 976 848 q 958 758 964 793 l 891 410 q 839 224 870 305 q 758 89 807 144 q 638 5 708 33 q 471 -22 568 -22 q 229 51 313 -22 q 144 264 144 125 q 157 384 144 319 l 229 758 q 240 821 235 793 q 249 871 245 848 q 237 894 252 888 l 155 920 l 159 949 z "},"V":{"ha":926,"x_min":103,"x_max":1070,"o":"m 778 949 q 937 947 863 947 q 1070 949 1010 947 l 1067 920 l 999 899 q 971 885 983 894 q 948 866 958 877 q 930 845 938 856 q 917 823 923 834 l 431 0 l 361 -5 l 219 812 q 201 877 210 861 q 165 901 189 894 l 103 920 l 107 949 q 274 947 193 947 q 447 949 353 947 l 444 920 l 379 901 q 355 887 363 896 q 347 858 347 879 q 357 779 347 839 l 460 168 l 808 776 q 844 841 830 814 q 857 879 857 868 q 852 891 857 886 q 834 900 846 897 l 774 918 l 778 949 z "},"W":{"ha":1394,"x_min":109,"x_max":1521,"o":"m 872 -5 l 774 717 l 395 0 l 330 -5 l 220 827 q 205 877 216 859 q 171 901 194 895 l 109 920 l 114 949 q 269 947 189 947 q 453 949 351 947 l 450 920 l 376 899 q 352 859 352 893 q 360 779 352 840 l 433 196 l 818 948 l 871 952 l 974 191 l 1282 802 q 1306 853 1298 834 q 1314 882 1314 871 q 1309 895 1314 891 q 1293 901 1303 899 l 1230 918 l 1234 949 q 1381 947 1315 947 q 1521 949 1454 947 l 1518 920 l 1449 899 q 1413 880 1428 892 q 1381 835 1398 867 l 937 0 l 872 -5 z "},"X":{"ha":894,"x_min":-64,"x_max":979,"o":"m 132 949 q 305 947 208 947 q 481 949 387 947 l 479 920 l 418 903 q 385 868 385 894 q 409 794 385 846 l 511 575 l 709 808 q 752 880 752 859 q 730 902 753 896 l 671 918 l 675 949 q 832 947 750 947 q 979 949 911 947 l 976 920 l 906 899 q 860 874 880 892 q 805 818 840 857 l 541 513 l 722 123 q 755 64 744 76 q 789 45 767 52 l 850 27 l 846 -2 q 688 0 770 0 q 495 -2 599 0 l 498 27 l 563 44 q 592 81 592 52 q 568 153 592 102 l 444 419 l 204 138 q 161 68 161 87 q 186 44 161 51 l 243 28 l 238 -2 q 81 0 162 0 q -64 -2 9 0 l -61 27 l 7 48 q 53 73 33 56 q 102 121 73 89 l 415 480 l 250 833 q 224 880 235 866 q 189 901 213 895 l 127 920 l 132 949 z "},"Y":{"ha":822,"x_min":88,"x_max":965,"o":"m 479 483 l 692 779 q 733 838 716 812 q 751 878 751 864 q 726 902 751 895 l 666 918 l 670 949 q 823 947 746 947 q 965 949 897 947 l 962 920 l 892 899 q 850 875 866 891 q 816 835 834 859 l 502 416 l 462 208 q 448 134 454 168 q 437 74 442 101 q 456 51 435 57 l 532 27 l 528 -2 q 358 0 438 0 q 194 -2 278 0 l 197 27 l 281 52 q 304 73 300 57 q 317 134 310 100 q 332 208 323 168 l 370 414 l 216 816 q 186 876 199 857 q 149 901 174 894 l 88 920 l 92 949 q 259 947 156 947 q 437 949 342 947 l 435 920 l 370 903 q 346 891 354 899 q 338 869 338 883 q 360 794 338 850 l 479 483 z "},"Z":{"ha":788,"x_min":-14,"x_max":827,"o":"m -14 -2 l -11 27 l 644 888 l 262 888 l 193 724 l 164 719 l 165 944 l 170 949 q 490 947 341 947 l 626 947 q 827 949 723 947 l 824 920 l 170 60 l 572 60 l 690 244 l 723 249 l 664 3 l 659 -2 q 321 0 469 0 l 171 0 q -14 -2 75 0 z "},"À":{"ha":918,"x_min":-94,"x_max":873,"o":"m 203 28 l 198 -2 q 39 0 113 0 q -94 -2 -34 0 l -91 27 l -22 48 q 6 62 -7 54 q 28 81 18 71 q 45 102 38 91 q 60 124 53 113 l 548 954 l 614 964 l 758 134 q 776 71 764 88 q 810 46 787 54 l 873 27 l 869 -2 q 703 0 784 0 q 528 -2 623 0 l 531 27 l 595 46 q 619 58 610 51 q 628 87 628 66 q 618 169 628 109 l 588 353 l 271 353 l 168 171 q 133 106 146 132 q 119 68 119 79 q 125 56 119 61 q 142 47 130 51 l 203 28 m 578 412 l 517 786 l 305 412 l 578 412 m 429 1120 l 502 1200 l 706 1034 l 690 1008 l 429 1109 l 429 1120 m 170 949 z "},"Á":{"ha":918,"x_min":-94,"x_max":873,"o":"m 203 28 l 198 -2 q 39 0 113 0 q -94 -2 -34 0 l -91 27 l -22 48 q 6 62 -7 54 q 28 81 18 71 q 45 102 38 91 q 60 124 53 113 l 548 954 l 614 964 l 758 134 q 776 71 764 88 q 810 46 787 54 l 873 27 l 869 -2 q 703 0 784 0 q 528 -2 623 0 l 531 27 l 595 46 q 619 58 610 51 q 628 87 628 66 q 618 169 628 109 l 588 353 l 271 353 l 168 171 q 133 106 146 132 q 119 68 119 79 q 125 56 119 61 q 142 47 130 51 l 203 28 m 578 412 l 517 786 l 305 412 l 578 412 m 753 1109 l 471 1008 l 456 1036 l 675 1200 l 753 1120 l 753 1109 m 170 949 z "},"Â":{"ha":918,"x_min":-94,"x_max":873,"o":"m 203 28 l 198 -2 q 39 0 113 0 q -94 -2 -34 0 l -91 27 l -22 48 q 6 62 -7 54 q 28 81 18 71 q 45 102 38 91 q 60 124 53 113 l 548 954 l 614 964 l 758 134 q 776 71 764 88 q 810 46 787 54 l 873 27 l 869 -2 q 703 0 784 0 q 528 -2 623 0 l 531 27 l 595 46 q 619 58 610 51 q 628 87 628 66 q 618 169 628 109 l 588 353 l 271 353 l 168 171 q 133 106 146 132 q 119 68 119 79 q 125 56 119 61 q 142 47 130 51 l 203 28 m 578 412 l 517 786 l 305 412 l 578 412 m 632 1200 l 810 1038 l 792 1007 l 594 1099 l 379 1007 l 361 1038 l 571 1200 l 632 1200 m 170 949 z "},"Ã":{"ha":918,"x_min":-94,"x_max":873,"o":"m 203 28 l 198 -2 q 39 0 113 0 q -94 -2 -34 0 l -91 27 l -22 48 q 6 62 -7 54 q 28 81 18 71 q 45 102 38 91 q 60 124 53 113 l 548 954 l 614 964 l 758 134 q 776 71 764 88 q 810 46 787 54 l 873 27 l 869 -2 q 703 0 784 0 q 528 -2 623 0 l 531 27 l 595 46 q 619 58 610 51 q 628 87 628 66 q 618 169 628 109 l 588 353 l 271 353 l 168 171 q 133 106 146 132 q 119 68 119 79 q 125 56 119 61 q 142 47 130 51 l 203 28 m 578 412 l 517 786 l 305 412 l 578 412 m 513 1100 q 466 1083 488 1100 q 418 1036 445 1067 l 387 1061 q 465 1160 427 1126 q 541 1194 503 1194 q 584 1183 561 1194 q 629 1158 606 1172 q 669 1137 650 1147 q 701 1128 687 1128 q 749 1144 728 1128 q 796 1192 770 1161 l 829 1170 q 749 1068 787 1101 q 674 1034 711 1034 q 631 1045 654 1034 q 586 1069 608 1056 q 547 1090 566 1080 q 513 1100 528 1100 m 170 949 z "},"Ä":{"ha":918,"x_min":-94,"x_max":873,"o":"m 203 28 l 198 -2 q 39 0 113 0 q -94 -2 -34 0 l -91 27 l -22 48 q 6 62 -7 54 q 28 81 18 71 q 45 102 38 91 q 60 124 53 113 l 548 954 l 614 964 l 758 134 q 776 71 764 88 q 810 46 787 54 l 873 27 l 869 -2 q 703 0 784 0 q 528 -2 623 0 l 531 27 l 595 46 q 619 58 610 51 q 628 87 628 66 q 618 169 628 109 l 588 353 l 271 353 l 168 171 q 133 106 146 132 q 119 68 119 79 q 125 56 119 61 q 142 47 130 51 l 203 28 m 578 412 l 517 786 l 305 412 l 578 412 m 531 1105 q 510 1049 531 1071 q 459 1027 490 1027 q 409 1048 429 1027 q 389 1100 389 1068 q 410 1156 389 1135 q 463 1177 431 1177 q 512 1158 493 1177 q 531 1105 531 1139 m 808 1105 q 788 1049 808 1071 q 736 1027 767 1027 q 686 1048 706 1027 q 667 1100 667 1068 q 687 1156 667 1135 q 739 1177 708 1177 q 789 1158 770 1177 q 808 1105 808 1139 m 170 949 z "},"Ā":{"ha":918,"x_min":-94,"x_max":873,"o":"m 203 28 l 198 -2 q 39 0 113 0 q -94 -2 -34 0 l -91 27 l -22 48 q 6 62 -7 54 q 28 81 18 71 q 45 102 38 91 q 60 124 53 113 l 548 954 l 614 964 l 758 134 q 776 71 764 88 q 810 46 787 54 l 873 27 l 869 -2 q 703 0 784 0 q 528 -2 623 0 l 531 27 l 595 46 q 619 58 610 51 q 628 87 628 66 q 618 169 628 109 l 588 353 l 271 353 l 168 171 q 133 106 146 132 q 119 68 119 79 q 125 56 119 61 q 142 47 130 51 l 203 28 m 578 412 l 517 786 l 305 412 l 578 412 m 420 1056 l 435 1128 l 774 1128 l 760 1056 l 420 1056 m 170 949 z "},"Ă":{"ha":918,"x_min":-94,"x_max":873,"o":"m 203 28 l 198 -2 q 39 0 113 0 q -94 -2 -34 0 l -91 27 l -22 48 q 6 62 -7 54 q 28 81 18 71 q 45 102 38 91 q 60 124 53 113 l 548 954 l 614 964 l 758 134 q 776 71 764 88 q 810 46 787 54 l 873 27 l 869 -2 q 703 0 784 0 q 528 -2 623 0 l 531 27 l 595 46 q 619 58 610 51 q 628 87 628 66 q 618 169 628 109 l 588 353 l 271 353 l 168 171 q 133 106 146 132 q 119 68 119 79 q 125 56 119 61 q 142 47 130 51 l 203 28 m 578 412 l 517 786 l 305 412 l 578 412 m 481 1232 q 510 1142 481 1173 q 597 1112 539 1112 q 692 1142 654 1112 q 753 1226 731 1172 l 799 1231 q 730 1081 785 1140 q 587 1023 675 1023 q 471 1062 511 1023 q 432 1179 432 1102 q 436 1226 432 1200 l 481 1232 m 170 949 z "},"Å":{"ha":918,"x_min":-94,"x_max":873,"o":"m 203 28 l 198 -2 q 39 0 113 0 q -94 -2 -34 0 l -91 27 l -22 48 q 6 62 -7 54 q 28 81 18 71 q 45 102 38 91 q 60 124 53 113 l 548 954 l 614 964 l 758 134 q 776 71 764 88 q 810 46 787 54 l 873 27 l 869 -2 q 703 0 784 0 q 528 -2 623 0 l 531 27 l 595 46 q 619 58 610 51 q 628 87 628 66 q 618 169 628 109 l 588 353 l 271 353 l 168 171 q 133 106 146 132 q 119 68 119 79 q 125 56 119 61 q 142 47 130 51 l 203 28 m 578 412 l 517 786 l 305 412 l 578 412 m 584 999 q 490 1026 525 999 q 456 1101 456 1053 q 506 1204 456 1163 q 622 1245 555 1245 q 712 1217 675 1245 q 749 1141 749 1189 q 701 1039 749 1079 q 584 999 654 999 m 591 1038 q 652 1066 629 1038 q 675 1136 675 1093 q 660 1186 675 1167 q 614 1206 645 1206 q 552 1178 575 1206 q 530 1107 530 1150 q 545 1058 530 1078 q 591 1038 561 1038 m 170 949 z "},"Ǻ":{"ha":918,"x_min":-94,"x_max":873,"o":"m 203 28 l 198 -2 q 39 0 113 0 q -94 -2 -34 0 l -91 27 l -22 48 q 6 62 -7 54 q 28 81 18 71 q 45 102 38 91 q 60 124 53 113 l 548 954 l 614 964 l 758 134 q 776 71 764 88 q 810 46 787 54 l 873 27 l 869 -2 q 703 0 784 0 q 528 -2 623 0 l 531 27 l 595 46 q 619 58 610 51 q 628 87 628 66 q 618 169 628 109 l 588 353 l 271 353 l 168 171 q 133 106 146 132 q 119 68 119 79 q 125 56 119 61 q 142 47 130 51 l 203 28 m 578 412 l 517 786 l 305 412 l 578 412 m 585 989 q 494 1016 528 989 q 460 1088 460 1042 q 509 1188 460 1149 q 622 1228 557 1228 q 709 1201 673 1228 q 745 1128 745 1174 q 699 1028 745 1067 q 585 989 652 989 m 592 1027 q 651 1054 629 1027 q 673 1122 673 1081 q 659 1171 673 1152 q 614 1190 644 1190 q 554 1163 576 1190 q 532 1095 532 1136 q 547 1046 532 1065 q 592 1027 562 1027 m 791 1333 l 524 1236 l 509 1263 l 716 1418 l 791 1342 l 791 1333 z "},"Ą":{"ha":918,"x_min":-94,"x_max":873,"o":"m 675 0 q 561 -51 610 0 q 512 -171 512 -101 q 544 -247 512 -222 q 635 -273 576 -272 q 665 -271 651 -273 l 669 -298 q 519 -332 569 -332 q 431 -299 463 -332 q 398 -213 398 -267 q 440 -92 398 -149 q 562 14 483 -35 q 614 49 600 37 q 628 83 628 61 q 618 169 628 109 l 588 353 l 271 353 l 168 171 q 133 106 146 132 q 119 68 119 79 q 125 56 119 61 q 142 47 130 51 l 203 28 l 198 -2 q 39 0 113 0 q -94 -2 -34 0 l -91 27 l -22 48 q 6 62 -7 54 q 28 81 18 71 q 45 102 38 91 q 60 124 53 113 l 548 954 l 614 964 l 758 134 q 776 71 764 88 q 810 46 787 54 l 873 27 l 869 -2 q 675 0 784 0 m 578 412 l 517 786 l 305 412 l 578 412 z "},"Æ":{"ha":1248,"x_min":-101,"x_max":1284,"o":"m 657 947 l 959 947 q 1280 949 1111 947 l 1284 944 l 1207 734 l 1179 730 l 1166 888 l 864 888 l 790 498 l 859 498 q 994 499 907 498 q 1021 517 1013 500 l 1063 610 l 1099 611 q 1069 468 1078 513 q 1046 332 1061 424 l 1009 330 l 1002 423 q 985 441 1000 441 q 847 443 925 443 l 779 443 l 735 210 q 708 60 721 134 l 1025 60 l 1133 233 l 1166 239 l 1110 3 l 1105 -2 q 781 0 930 0 l 633 0 q 467 -2 551 0 l 469 27 l 554 52 q 577 73 572 57 q 589 134 583 100 q 604 208 596 168 l 649 443 l 370 443 l 182 170 q 138 104 155 131 q 121 66 121 78 q 124 55 119 60 q 140 45 129 50 l 199 27 l 196 -2 q 33 0 106 0 q -101 -2 -39 0 l -98 27 l -26 48 q 3 62 -10 54 q 27 81 16 71 q 47 102 38 91 q 64 124 56 113 l 588 865 q 593 877 593 872 q 583 887 593 884 l 481 920 l 485 949 q 657 947 574 947 m 734 888 l 677 888 l 409 498 l 659 498 l 734 888 z "},"Ǽ":{"ha":1248,"x_min":-101,"x_max":1284,"o":"m 657 947 l 959 947 q 1280 949 1111 947 l 1284 944 l 1207 734 l 1179 730 l 1166 888 l 864 888 l 790 498 l 859 498 q 994 499 907 498 q 1021 517 1013 500 l 1063 610 l 1099 611 q 1069 468 1078 513 q 1046 332 1061 424 l 1009 330 l 1002 423 q 985 441 1000 441 q 847 443 925 443 l 779 443 l 735 210 q 708 60 721 134 l 1025 60 l 1133 233 l 1166 239 l 1110 3 l 1105 -2 q 781 0 930 0 l 633 0 q 467 -2 551 0 l 469 27 l 554 52 q 577 73 572 57 q 589 134 583 100 q 604 208 596 168 l 649 443 l 370 443 l 182 170 q 138 104 155 131 q 121 66 121 78 q 124 55 119 60 q 140 45 129 50 l 199 27 l 196 -2 q 33 0 106 0 q -101 -2 -39 0 l -98 27 l -26 48 q 3 62 -10 54 q 27 81 16 71 q 47 102 38 91 q 64 124 56 113 l 588 865 q 593 877 593 872 q 583 887 593 884 l 481 920 l 485 949 q 657 947 574 947 m 734 888 l 677 888 l 409 498 l 659 498 l 734 888 m 1079 1109 l 797 1008 l 781 1036 l 1000 1200 l 1079 1120 l 1079 1109 m 495 949 z "},"Ć":{"ha":895,"x_min":79,"x_max":930,"o":"m 851 713 l 823 709 l 808 888 q 659 908 740 908 q 346 757 469 908 q 222 395 222 606 q 313 147 222 237 q 562 57 404 57 q 774 96 664 57 l 783 68 q 482 -20 646 -20 q 189 89 299 -20 q 79 381 79 199 q 252 801 79 637 q 686 965 425 965 q 926 937 799 965 l 930 932 l 851 713 m 835 1109 l 553 1008 l 537 1036 l 756 1200 l 835 1120 l 835 1109 m 251 949 z "},"Ĉ":{"ha":895,"x_min":79,"x_max":930,"o":"m 851 713 l 823 709 l 808 888 q 659 908 740 908 q 346 757 469 908 q 222 395 222 606 q 313 147 222 237 q 562 57 404 57 q 774 96 664 57 l 783 68 q 482 -20 646 -20 q 189 89 299 -20 q 79 381 79 199 q 252 801 79 637 q 686 965 425 965 q 926 937 799 965 l 930 932 l 851 713 m 713 1200 l 892 1038 l 873 1007 l 675 1099 l 460 1007 l 443 1038 l 652 1200 l 713 1200 m 251 949 z "},"Č":{"ha":895,"x_min":79,"x_max":930,"o":"m 851 713 l 823 709 l 808 888 q 659 908 740 908 q 346 757 469 908 q 222 395 222 606 q 313 147 222 237 q 562 57 404 57 q 774 96 664 57 l 783 68 q 482 -20 646 -20 q 189 89 299 -20 q 79 381 79 199 q 252 801 79 637 q 686 965 425 965 q 926 937 799 965 l 930 932 l 851 713 m 635 1016 l 456 1178 l 475 1209 l 673 1118 l 888 1209 l 905 1178 l 696 1016 l 635 1016 m 251 949 z "},"Ċ":{"ha":895,"x_min":79,"x_max":930,"o":"m 851 713 l 823 709 l 808 888 q 659 908 740 908 q 346 757 469 908 q 222 395 222 606 q 313 147 222 237 q 562 57 404 57 q 774 96 664 57 l 783 68 q 482 -20 646 -20 q 189 89 299 -20 q 79 381 79 199 q 252 801 79 637 q 686 965 425 965 q 926 937 799 965 l 930 932 l 851 713 m 748 1107 q 726 1049 748 1072 q 672 1027 705 1027 q 620 1048 640 1027 q 599 1101 599 1069 q 621 1158 599 1137 q 675 1179 642 1179 q 728 1160 708 1179 q 748 1107 748 1141 m 251 949 z "},"Ç":{"ha":895,"x_min":79,"x_max":930,"o":"m 340 -124 l 423 -17 q 171 108 263 1 q 79 381 79 215 q 252 801 79 637 q 686 965 425 965 q 926 937 799 965 l 930 932 l 851 713 l 823 709 l 808 888 q 659 908 740 908 q 346 757 469 908 q 222 395 222 606 q 313 147 222 237 q 562 57 404 57 q 774 96 664 57 l 783 68 q 479 -20 646 -20 l 438 -74 q 508 -163 508 -107 q 371 -330 508 -237 l 348 -304 q 414 -204 414 -252 q 342 -130 414 -155 l 340 -124 z "},"Ď":{"ha":1042,"x_min":9,"x_max":1000,"o":"m 176 0 q 9 -2 94 0 l 12 27 l 97 52 q 120 73 117 58 q 132 134 125 100 q 147 208 139 168 l 252 758 q 264 821 259 793 q 272 871 269 848 q 260 894 275 888 l 178 920 l 182 949 q 355 947 272 947 q 461 950 395 947 q 572 954 527 954 q 887 861 774 954 q 1000 595 1000 769 q 832 162 1000 328 q 383 -4 665 -4 q 281 -2 347 -4 q 176 0 214 0 m 250 58 q 400 49 313 49 q 733 205 608 49 q 857 598 857 362 q 782 823 857 749 q 550 898 706 898 q 408 892 489 898 l 250 58 m 553 1016 l 375 1178 l 393 1209 l 591 1118 l 806 1209 l 824 1178 l 614 1016 l 553 1016 m 170 949 z "},"Đ":{"ha":1042,"x_min":9,"x_max":1000,"o":"m 176 0 q 9 -2 94 0 l 12 27 l 97 52 q 120 73 117 58 q 132 134 125 100 q 147 208 139 168 l 197 469 l 94 469 l 106 530 l 208 530 l 252 758 q 264 821 259 793 q 272 871 269 848 q 260 894 275 888 l 178 920 l 182 949 q 355 947 272 947 q 461 950 395 947 q 572 954 527 954 q 887 861 774 954 q 1000 595 1000 769 q 832 162 1000 328 q 383 -4 665 -4 q 281 -2 347 -4 q 176 0 214 0 m 250 58 q 400 49 313 49 q 733 205 608 49 q 857 598 857 362 q 782 823 857 749 q 550 898 706 898 q 408 892 489 898 l 339 530 l 560 530 l 549 469 l 328 469 l 250 58 z "},"È":{"ha":791,"x_min":9,"x_max":827,"o":"m 353 947 l 502 947 q 823 949 654 947 l 827 944 l 750 734 l 722 730 l 709 888 l 407 888 l 336 513 l 404 513 q 540 513 453 513 q 566 532 559 515 l 608 624 l 645 625 q 615 482 624 528 q 591 347 607 438 l 555 344 l 547 437 q 530 456 546 455 q 393 457 471 457 l 325 457 l 278 210 q 251 60 264 134 l 568 60 l 676 233 l 709 239 l 653 3 l 648 -2 q 324 0 473 0 l 176 0 q 9 -2 94 0 l 12 27 l 97 52 q 120 73 115 57 q 132 134 125 100 q 147 208 139 168 l 252 758 q 264 821 259 793 q 272 871 269 848 q 260 894 275 888 l 178 920 l 182 949 q 353 947 272 947 m 375 1120 l 448 1200 l 652 1034 l 636 1008 l 375 1109 l 375 1120 m 115 949 z "},"É":{"ha":791,"x_min":9,"x_max":827,"o":"m 353 947 l 502 947 q 823 949 654 947 l 827 944 l 750 734 l 722 730 l 709 888 l 407 888 l 336 513 l 404 513 q 540 513 453 513 q 566 532 559 515 l 608 624 l 645 625 q 615 482 624 528 q 591 347 607 438 l 555 344 l 547 437 q 530 456 546 455 q 393 457 471 457 l 325 457 l 278 210 q 251 60 264 134 l 568 60 l 676 233 l 709 239 l 653 3 l 648 -2 q 324 0 473 0 l 176 0 q 9 -2 94 0 l 12 27 l 97 52 q 120 73 115 57 q 132 134 125 100 q 147 208 139 168 l 252 758 q 264 821 259 793 q 272 871 269 848 q 260 894 275 888 l 178 920 l 182 949 q 353 947 272 947 m 699 1109 l 417 1008 l 401 1036 l 621 1200 l 699 1120 l 699 1109 m 115 949 z "},"Ê":{"ha":791,"x_min":9,"x_max":827,"o":"m 353 947 l 502 947 q 823 949 654 947 l 827 944 l 750 734 l 722 730 l 709 888 l 407 888 l 336 513 l 404 513 q 540 513 453 513 q 566 532 559 515 l 608 624 l 645 625 q 615 482 624 528 q 591 347 607 438 l 555 344 l 547 437 q 530 456 546 455 q 393 457 471 457 l 325 457 l 278 210 q 251 60 264 134 l 568 60 l 676 233 l 709 239 l 653 3 l 648 -2 q 324 0 473 0 l 176 0 q 9 -2 94 0 l 12 27 l 97 52 q 120 73 115 57 q 132 134 125 100 q 147 208 139 168 l 252 758 q 264 821 259 793 q 272 871 269 848 q 260 894 275 888 l 178 920 l 182 949 q 353 947 272 947 m 578 1200 l 756 1038 l 738 1007 l 540 1099 l 325 1007 l 307 1038 l 517 1200 l 578 1200 m 115 949 z "},"Ě":{"ha":791,"x_min":9,"x_max":827,"o":"m 353 947 l 502 947 q 823 949 654 947 l 827 944 l 750 734 l 722 730 l 709 888 l 407 888 l 336 513 l 404 513 q 540 513 453 513 q 566 532 559 515 l 608 624 l 645 625 q 615 482 624 528 q 591 347 607 438 l 555 344 l 547 437 q 530 456 546 455 q 393 457 471 457 l 325 457 l 278 210 q 251 60 264 134 l 568 60 l 676 233 l 709 239 l 653 3 l 648 -2 q 324 0 473 0 l 176 0 q 9 -2 94 0 l 12 27 l 97 52 q 120 73 115 57 q 132 134 125 100 q 147 208 139 168 l 252 758 q 264 821 259 793 q 272 871 269 848 q 260 894 275 888 l 178 920 l 182 949 q 353 947 272 947 m 499 1016 l 321 1178 l 339 1209 l 537 1118 l 752 1209 l 770 1178 l 560 1016 l 499 1016 m 115 949 z "},"Ë":{"ha":791,"x_min":9,"x_max":827,"o":"m 353 947 l 502 947 q 823 949 654 947 l 827 944 l 750 734 l 722 730 l 709 888 l 407 888 l 336 513 l 404 513 q 540 513 453 513 q 566 532 559 515 l 608 624 l 645 625 q 615 482 624 528 q 591 347 607 438 l 555 344 l 547 437 q 530 456 546 455 q 393 457 471 457 l 325 457 l 278 210 q 251 60 264 134 l 568 60 l 676 233 l 709 239 l 653 3 l 648 -2 q 324 0 473 0 l 176 0 q 9 -2 94 0 l 12 27 l 97 52 q 120 73 115 57 q 132 134 125 100 q 147 208 139 168 l 252 758 q 264 821 259 793 q 272 871 269 848 q 260 894 275 888 l 178 920 l 182 949 q 353 947 272 947 m 477 1105 q 456 1049 477 1071 q 405 1027 435 1027 q 355 1048 374 1027 q 335 1100 335 1068 q 356 1156 335 1135 q 408 1177 376 1177 q 458 1158 439 1177 q 477 1105 477 1139 m 754 1105 q 733 1049 754 1071 q 682 1027 713 1027 q 632 1048 652 1027 q 612 1100 612 1068 q 633 1156 612 1135 q 685 1177 654 1177 q 735 1158 715 1177 q 754 1105 754 1139 m 115 949 z "},"Ē":{"ha":791,"x_min":9,"x_max":827,"o":"m 353 947 l 502 947 q 823 949 654 947 l 827 944 l 750 734 l 722 730 l 709 888 l 407 888 l 336 513 l 404 513 q 540 513 453 513 q 566 532 559 515 l 608 624 l 645 625 q 615 482 624 528 q 591 347 607 438 l 555 344 l 547 437 q 530 456 546 455 q 393 457 471 457 l 325 457 l 278 210 q 251 60 264 134 l 568 60 l 676 233 l 709 239 l 653 3 l 648 -2 q 324 0 473 0 l 176 0 q 9 -2 94 0 l 12 27 l 97 52 q 120 73 115 57 q 132 134 125 100 q 147 208 139 168 l 252 758 q 264 821 259 793 q 272 871 269 848 q 260 894 275 888 l 178 920 l 182 949 q 353 947 272 947 m 366 1056 l 380 1128 l 720 1128 l 705 1056 l 366 1056 m 115 949 z "},"Ĕ":{"ha":791,"x_min":9,"x_max":827,"o":"m 353 947 l 502 947 q 823 949 654 947 l 827 944 l 750 734 l 722 730 l 709 888 l 407 888 l 336 513 l 404 513 q 540 513 453 513 q 566 532 559 515 l 608 624 l 645 625 q 615 482 624 528 q 591 347 607 438 l 555 344 l 547 437 q 530 456 546 455 q 393 457 471 457 l 325 457 l 278 210 q 251 60 264 134 l 568 60 l 676 233 l 709 239 l 653 3 l 648 -2 q 324 0 473 0 l 176 0 q 9 -2 94 0 l 12 27 l 97 52 q 120 73 115 57 q 132 134 125 100 q 147 208 139 168 l 252 758 q 264 821 259 793 q 272 871 269 848 q 260 894 275 888 l 178 920 l 182 949 q 353 947 272 947 m 427 1232 q 456 1142 427 1173 q 543 1112 485 1112 q 638 1142 600 1112 q 699 1226 677 1172 l 745 1231 q 676 1081 731 1140 q 533 1023 621 1023 q 417 1062 456 1023 q 378 1179 378 1102 q 382 1226 378 1200 l 427 1232 m 115 949 z "},"Ė":{"ha":791,"x_min":9,"x_max":827,"o":"m 353 947 l 502 947 q 823 949 654 947 l 827 944 l 750 734 l 722 730 l 709 888 l 407 888 l 336 513 l 404 513 q 540 513 453 513 q 566 532 559 515 l 608 624 l 645 625 q 615 482 624 528 q 591 347 607 438 l 555 344 l 547 437 q 530 456 546 455 q 393 457 471 457 l 325 457 l 278 210 q 251 60 264 134 l 568 60 l 676 233 l 709 239 l 653 3 l 648 -2 q 324 0 473 0 l 176 0 q 9 -2 94 0 l 12 27 l 97 52 q 120 73 115 57 q 132 134 125 100 q 147 208 139 168 l 252 758 q 264 821 259 793 q 272 871 269 848 q 260 894 275 888 l 178 920 l 182 949 q 353 947 272 947 m 612 1107 q 591 1049 612 1072 q 536 1027 569 1027 q 484 1048 505 1027 q 463 1101 463 1069 q 485 1158 463 1137 q 540 1179 507 1179 q 592 1160 572 1179 q 612 1107 612 1141 m 115 949 z "},"Ę":{"ha":791,"x_min":9,"x_max":827,"o":"m 353 947 l 502 947 q 823 949 654 947 l 827 944 l 750 734 l 722 730 l 709 888 l 407 888 l 336 513 l 404 513 q 540 513 453 513 q 566 532 559 515 l 608 624 l 645 625 q 615 482 624 528 q 591 347 607 438 l 555 344 l 547 437 q 530 456 546 455 q 393 457 471 457 l 325 457 l 278 210 q 251 60 264 134 l 568 60 l 676 233 l 709 239 l 653 3 l 648 -2 l 576 0 q 477 -54 522 -7 q 433 -171 433 -101 q 465 -247 433 -222 q 555 -273 497 -272 q 586 -271 572 -273 l 589 -298 q 439 -332 490 -332 q 351 -299 384 -332 q 319 -213 319 -267 q 476 0 319 -90 l 176 0 q 9 -2 94 0 l 12 27 l 97 52 q 120 73 115 57 q 132 134 125 100 q 147 208 139 168 l 252 758 q 264 821 259 793 q 272 871 269 848 q 260 894 275 888 l 178 920 l 182 949 q 353 947 272 947 z "},"Ĝ":{"ha":941,"x_min":77,"x_max":928,"o":"m 850 713 l 822 709 l 806 888 q 663 908 742 908 q 345 758 468 908 q 221 397 221 608 q 306 137 221 240 q 529 35 391 35 q 629 46 577 35 l 664 231 q 676 293 671 265 q 685 343 680 320 q 673 366 685 360 l 591 393 l 595 422 q 763 419 685 419 q 918 422 844 419 l 916 393 l 841 370 q 819 350 823 366 q 807 295 813 323 q 795 233 802 267 l 753 18 l 749 14 q 503 -20 622 -20 q 191 84 304 -20 q 77 376 77 189 q 248 802 77 638 q 690 965 419 965 q 925 937 804 965 l 928 932 l 850 713 m 714 1200 l 892 1038 l 874 1007 l 676 1099 l 461 1007 l 444 1038 l 653 1200 l 714 1200 m 252 949 z "},"Ğ":{"ha":941,"x_min":77,"x_max":928,"o":"m 850 713 l 822 709 l 806 888 q 663 908 742 908 q 345 758 468 908 q 221 397 221 608 q 306 137 221 240 q 529 35 391 35 q 629 46 577 35 l 664 231 q 676 293 671 265 q 685 343 680 320 q 673 366 685 360 l 591 393 l 595 422 q 763 419 685 419 q 918 422 844 419 l 916 393 l 841 370 q 819 350 823 366 q 807 295 813 323 q 795 233 802 267 l 753 18 l 749 14 q 503 -20 622 -20 q 191 84 304 -20 q 77 376 77 189 q 248 802 77 638 q 690 965 419 965 q 925 937 804 965 l 928 932 l 850 713 m 564 1232 q 592 1142 564 1173 q 680 1112 621 1112 q 774 1142 736 1112 q 835 1226 813 1172 l 881 1231 q 812 1081 867 1140 q 669 1023 758 1023 q 553 1062 593 1023 q 514 1179 514 1102 q 518 1226 514 1200 l 564 1232 m 252 949 z "},"Ġ":{"ha":941,"x_min":77,"x_max":928,"o":"m 850 713 l 822 709 l 806 888 q 663 908 742 908 q 345 758 468 908 q 221 397 221 608 q 306 137 221 240 q 529 35 391 35 q 629 46 577 35 l 664 231 q 676 293 671 265 q 685 343 680 320 q 673 366 685 360 l 591 393 l 595 422 q 763 419 685 419 q 918 422 844 419 l 916 393 l 841 370 q 819 350 823 366 q 807 295 813 323 q 795 233 802 267 l 753 18 l 749 14 q 503 -20 622 -20 q 191 84 304 -20 q 77 376 77 189 q 248 802 77 638 q 690 965 419 965 q 925 937 804 965 l 928 932 l 850 713 m 749 1107 q 727 1049 749 1072 q 673 1027 705 1027 q 620 1048 641 1027 q 600 1101 600 1069 q 621 1158 600 1137 q 676 1179 643 1179 q 729 1160 709 1179 q 749 1107 749 1141 m 252 949 z "},"Ģ":{"ha":941,"x_min":77,"x_max":928,"o":"m 850 713 l 822 709 l 806 888 q 663 908 742 908 q 345 758 468 908 q 221 397 221 608 q 306 137 221 240 q 529 35 391 35 q 629 46 577 35 l 664 231 q 676 293 671 265 q 685 343 680 320 q 673 366 685 360 l 591 393 l 595 422 q 763 419 685 419 q 918 422 844 419 l 916 393 l 841 370 q 819 350 823 366 q 807 295 813 323 q 795 233 802 267 l 753 18 l 749 14 q 503 -20 622 -20 q 191 84 304 -20 q 77 376 77 189 q 248 802 77 638 q 690 965 419 965 q 925 937 804 965 l 928 932 l 850 713 m 370 -304 q 439 -198 439 -251 q 391 -125 439 -154 q 412 -77 393 -95 q 460 -59 431 -59 q 512 -82 492 -59 q 532 -142 532 -106 q 393 -330 532 -241 l 370 -304 z "},"Ĥ":{"ha":1083,"x_min":9,"x_max":1131,"o":"m 328 471 l 277 208 q 253 74 262 128 q 267 51 250 56 l 339 27 l 335 -2 q 174 0 254 0 q 9 -2 94 0 l 12 27 l 97 52 q 120 73 117 58 q 147 208 132 128 l 252 758 q 272 871 265 826 q 260 894 275 888 l 178 920 l 182 949 q 350 947 272 947 q 512 949 432 947 l 509 920 l 428 897 q 406 876 410 892 q 382 761 395 827 l 339 532 l 823 532 l 866 761 q 887 876 879 827 q 873 897 890 892 l 801 920 l 805 949 q 968 947 888 947 q 1131 949 1048 947 l 1128 920 l 1040 894 q 1019 871 1023 888 q 996 758 1009 826 l 891 208 q 867 73 877 128 q 881 52 865 58 l 962 27 l 958 -2 q 787 0 866 0 q 629 -2 706 0 l 632 27 l 711 51 q 734 74 730 56 q 761 208 746 128 l 811 471 l 328 471 m 717 1200 l 895 1038 l 877 1007 l 679 1099 l 464 1007 l 446 1038 l 656 1200 l 717 1200 m 254 949 z "},"Ħ":{"ha":1083,"x_min":9,"x_max":1131,"o":"m 326 462 l 277 208 q 253 74 262 128 q 267 51 250 56 l 339 27 l 335 -2 q 174 0 254 0 q 9 -2 94 0 l 12 27 l 97 52 q 120 73 117 58 q 147 208 132 128 l 237 681 l 135 681 l 146 741 l 249 741 l 252 758 q 272 871 265 826 q 260 894 275 888 l 178 920 l 182 949 q 350 947 272 947 q 512 949 432 947 l 509 920 l 428 897 q 406 876 410 892 q 382 761 395 827 l 378 741 l 862 741 l 866 761 q 887 876 879 827 q 873 897 890 892 l 801 920 l 805 949 q 968 947 888 947 q 1131 949 1048 947 l 1128 920 l 1040 894 q 1019 871 1023 888 q 996 758 1009 826 l 993 741 l 1095 741 l 1084 681 l 981 681 l 891 208 q 867 73 877 128 q 881 52 865 58 l 962 27 l 958 -2 q 787 0 866 0 q 629 -2 706 0 l 632 27 l 711 51 q 734 74 730 56 q 761 208 746 128 l 809 462 l 326 462 m 821 523 l 850 681 l 367 681 l 337 523 l 821 523 z "},"Ì":{"ha":469,"x_min":-60,"x_max":517,"o":"m 277 208 q 263 134 269 168 q 253 74 258 101 q 272 51 251 57 l 348 27 l 343 -2 q 176 0 254 0 q 9 -2 94 0 l 12 27 l 97 52 q 120 73 115 57 q 132 134 125 100 q 147 208 139 168 l 252 758 q 264 821 259 793 q 272 871 269 848 q 260 894 275 888 l 178 920 l 182 949 q 352 947 272 947 q 517 949 432 947 l 513 920 l 427 895 q 406 874 410 891 q 395 822 400 850 q 382 761 389 794 l 277 208 m 200 1120 l 273 1200 l 477 1034 l 461 1008 l 200 1109 l 200 1120 m -60 949 z "},"Í":{"ha":469,"x_min":-60,"x_max":524,"o":"m 277 208 q 263 134 269 168 q 253 74 258 101 q 272 51 251 57 l 348 27 l 343 -2 q 176 0 254 0 q 9 -2 94 0 l 12 27 l 97 52 q 120 73 115 57 q 132 134 125 100 q 147 208 139 168 l 252 758 q 264 821 259 793 q 272 871 269 848 q 260 894 275 888 l 178 920 l 182 949 q 352 947 272 947 q 517 949 432 947 l 513 920 l 427 895 q 406 874 410 891 q 395 822 400 850 q 382 761 389 794 l 277 208 m 524 1109 l 242 1008 l 227 1036 l 446 1200 l 524 1120 l 524 1109 m -60 949 z "},"Î":{"ha":469,"x_min":-52,"x_max":589,"o":"m 277 208 q 263 134 269 168 q 253 74 258 101 q 272 51 251 57 l 348 27 l 343 -2 q 176 0 254 0 q 9 -2 94 0 l 12 27 l 97 52 q 120 73 115 57 q 132 134 125 100 q 147 208 139 168 l 252 758 q 264 821 259 793 q 272 871 269 848 q 260 894 275 888 l 178 920 l 182 949 q 352 947 272 947 q 517 949 432 947 l 513 920 l 427 895 q 406 874 410 891 q 395 822 400 850 q 382 761 389 794 l 277 208 m 410 1200 l 589 1038 l 570 1007 l 372 1099 l 157 1007 l 140 1038 l 349 1200 l 410 1200 m -52 949 z "},"Ĩ":{"ha":469,"x_min":-52,"x_max":607,"o":"m 277 208 q 263 134 269 168 q 253 74 258 101 q 272 51 251 57 l 348 27 l 343 -2 q 176 0 254 0 q 9 -2 94 0 l 12 27 l 97 52 q 120 73 115 57 q 132 134 125 100 q 147 208 139 168 l 252 758 q 264 821 259 793 q 272 871 269 848 q 260 894 275 888 l 178 920 l 182 949 q 352 947 272 947 q 517 949 432 947 l 513 920 l 427 895 q 406 874 410 891 q 395 822 400 850 q 382 761 389 794 l 277 208 m 292 1100 q 244 1083 266 1100 q 197 1036 223 1067 l 165 1061 q 243 1160 205 1126 q 319 1194 281 1194 q 362 1183 339 1194 q 408 1158 385 1172 q 447 1137 429 1147 q 479 1128 465 1128 q 527 1144 506 1128 q 574 1192 548 1161 l 607 1170 q 528 1068 566 1101 q 452 1034 490 1034 q 409 1045 432 1034 q 364 1069 386 1056 q 325 1090 344 1080 q 292 1100 307 1100 m -52 949 z "},"Ï":{"ha":469,"x_min":-52,"x_max":587,"o":"m 277 208 q 263 134 269 168 q 253 74 258 101 q 272 51 251 57 l 348 27 l 343 -2 q 176 0 254 0 q 9 -2 94 0 l 12 27 l 97 52 q 120 73 115 57 q 132 134 125 100 q 147 208 139 168 l 252 758 q 264 821 259 793 q 272 871 269 848 q 260 894 275 888 l 178 920 l 182 949 q 352 947 272 947 q 517 949 432 947 l 513 920 l 427 895 q 406 874 410 891 q 395 822 400 850 q 382 761 389 794 l 277 208 m 309 1105 q 289 1049 309 1071 q 237 1027 268 1027 q 187 1048 207 1027 q 168 1100 168 1068 q 188 1156 168 1135 q 241 1177 209 1177 q 290 1158 271 1177 q 309 1105 309 1139 m 587 1105 q 566 1049 587 1071 q 515 1027 545 1027 q 465 1048 484 1027 q 445 1100 445 1068 q 466 1156 445 1135 q 517 1177 486 1177 q 567 1158 548 1177 q 587 1105 587 1139 m -52 949 z "},"Ī":{"ha":469,"x_min":-52,"x_max":552,"o":"m 277 208 q 263 134 269 168 q 253 74 258 101 q 272 51 251 57 l 348 27 l 343 -2 q 176 0 254 0 q 9 -2 94 0 l 12 27 l 97 52 q 120 73 115 57 q 132 134 125 100 q 147 208 139 168 l 252 758 q 264 821 259 793 q 272 871 269 848 q 260 894 275 888 l 178 920 l 182 949 q 352 947 272 947 q 517 949 432 947 l 513 920 l 427 895 q 406 874 410 891 q 395 822 400 850 q 382 761 389 794 l 277 208 m 199 1056 l 213 1128 l 552 1128 l 538 1056 l 199 1056 m -52 949 z "},"Ĭ":{"ha":469,"x_min":-52,"x_max":577,"o":"m 277 208 q 263 134 269 168 q 253 74 258 101 q 272 51 251 57 l 348 27 l 343 -2 q 176 0 254 0 q 9 -2 94 0 l 12 27 l 97 52 q 120 73 115 57 q 132 134 125 100 q 147 208 139 168 l 252 758 q 264 821 259 793 q 272 871 269 848 q 260 894 275 888 l 178 920 l 182 949 q 352 947 272 947 q 517 949 432 947 l 513 920 l 427 895 q 406 874 410 891 q 395 822 400 850 q 382 761 389 794 l 277 208 m 260 1232 q 289 1142 260 1173 q 376 1112 317 1112 q 471 1142 432 1112 q 531 1226 509 1172 l 577 1231 q 509 1081 564 1140 q 366 1023 454 1023 q 250 1062 289 1023 q 210 1179 210 1102 q 214 1226 210 1200 l 260 1232 m -52 949 z "},"İ":{"ha":469,"x_min":-52,"x_max":517,"o":"m 277 208 q 263 134 269 168 q 253 74 258 101 q 272 51 251 57 l 348 27 l 343 -2 q 176 0 254 0 q 9 -2 94 0 l 12 27 l 97 52 q 120 73 115 57 q 132 134 125 100 q 147 208 139 168 l 252 758 q 264 821 259 793 q 272 871 269 848 q 260 894 275 888 l 178 920 l 182 949 q 352 947 272 947 q 517 949 432 947 l 513 920 l 427 895 q 406 874 410 891 q 395 822 400 850 q 382 761 389 794 l 277 208 m 445 1107 q 423 1049 445 1072 q 369 1027 401 1027 q 316 1048 337 1027 q 296 1101 296 1069 q 317 1158 296 1137 q 372 1179 339 1179 q 425 1160 405 1179 q 445 1107 445 1141 m -52 949 z "},"Į":{"ha":460,"x_min":-14,"x_max":494,"o":"m 254 208 q 240 134 246 168 q 230 74 235 101 q 249 51 228 57 l 325 27 l 320 -2 q 257 -1 288 -1 q 156 -54 201 -6 q 111 -171 111 -101 q 143 -247 111 -222 q 233 -273 175 -272 q 263 -271 249 -273 l 267 -298 q 117 -332 168 -332 q 29 -299 62 -332 q -3 -213 -3 -267 q 154 -1 -3 -90 l 154 0 q -14 -2 71 0 l -11 27 l 74 52 q 97 73 92 57 q 109 134 102 100 q 124 208 116 168 l 229 758 q 241 821 236 793 q 249 871 245 848 q 237 894 252 888 l 155 920 l 159 949 q 329 947 249 947 q 494 949 409 947 l 490 920 l 404 895 q 383 874 387 891 q 372 822 377 850 q 359 761 366 794 l 254 208 z "},"Ĳ":{"ha":902,"x_min":9,"x_max":976,"o":"m 277 208 q 263 134 269 168 q 253 74 258 101 q 272 51 251 57 l 348 27 l 343 -2 q 176 0 254 0 q 9 -2 94 0 l 12 27 l 97 52 q 120 73 115 57 q 132 134 125 100 q 147 208 139 168 l 252 758 q 264 821 259 793 q 272 871 269 848 q 260 894 275 888 l 178 920 l 182 949 q 352 947 272 947 q 517 949 432 947 l 513 920 l 427 895 q 406 874 410 891 q 395 822 400 850 q 382 761 389 794 l 277 208 m 642 949 q 812 947 732 947 q 976 949 891 947 l 973 920 l 887 895 q 865 874 870 891 q 854 822 860 850 q 842 761 848 794 l 726 146 q 697 25 713 80 q 661 -72 681 -29 q 610 -148 640 -115 q 540 -208 581 -182 q 445 -254 500 -234 q 323 -289 391 -273 l 315 -256 q 438 -190 391 -226 q 514 -108 485 -154 q 561 -4 544 -62 q 591 126 577 54 l 712 758 q 723 821 718 793 q 732 871 728 848 q 720 894 734 888 l 637 920 l 642 949 z "},"Ĵ":{"ha":433,"x_min":-155,"x_max":579,"o":"m 173 949 q 343 947 262 947 q 507 949 422 947 l 504 920 l 418 895 q 396 874 401 891 q 385 822 391 850 q 373 761 379 794 l 256 146 q 228 25 243 80 q 191 -72 212 -29 q 141 -148 171 -115 q 71 -208 111 -182 q -24 -254 31 -234 q -146 -289 -79 -273 l -155 -256 q -32 -190 -79 -226 q 45 -108 16 -154 q 91 -4 75 -62 q 121 126 108 54 l 243 758 q 254 821 249 793 q 262 871 259 848 q 250 894 265 888 l 168 920 l 173 949 m 401 1200 l 579 1038 l 561 1007 l 363 1099 l 148 1007 l 130 1038 l 340 1200 l 401 1200 m -62 949 z "},"Ķ":{"ha":911,"x_min":9,"x_max":994,"o":"m 382 761 l 277 208 q 263 134 269 168 q 253 74 258 101 q 267 51 251 56 l 340 27 l 336 -2 q 176 0 254 0 q 9 -2 94 0 l 12 27 l 97 52 q 120 73 117 58 q 132 134 125 100 q 147 208 139 168 l 252 758 q 264 821 259 793 q 272 871 269 848 q 260 894 275 888 l 178 920 l 182 949 q 353 947 272 947 q 509 949 431 947 l 507 920 l 428 897 q 406 876 411 892 q 395 823 401 851 q 382 761 389 794 m 348 484 l 669 785 q 730 845 706 821 q 758 885 754 870 q 743 903 760 899 l 690 918 l 694 949 q 848 947 762 947 q 994 949 926 947 l 991 920 l 921 899 q 860 867 888 888 q 799 818 831 846 l 477 515 l 701 116 q 734 72 718 87 q 779 47 749 57 l 848 27 l 844 -2 q 696 0 784 0 q 653 0 673 0 q 608 -1 632 -1 q 517 182 593 47 l 348 484 m 316 -304 q 385 -198 385 -251 q 337 -125 385 -154 q 358 -77 338 -95 q 406 -59 377 -59 q 457 -82 437 -59 q 477 -142 477 -106 q 339 -330 477 -241 l 316 -304 z "},"Ĺ":{"ha":758,"x_min":-60,"x_max":722,"o":"m 382 761 l 278 210 q 251 60 264 134 l 573 60 l 688 240 l 722 245 l 664 3 l 659 -2 q 356 0 505 0 l 176 0 q 9 -2 94 0 l 12 27 l 97 52 q 120 73 115 57 q 132 134 125 100 q 147 208 139 168 l 252 758 q 264 821 259 793 q 272 871 269 848 q 260 894 275 888 l 178 920 l 182 949 q 353 947 272 947 q 517 949 432 947 l 513 920 l 427 895 q 406 874 410 891 q 391 805 400 850 q 382 761 382 760 m 524 1109 l 242 1008 l 227 1036 l 446 1200 l 524 1120 l 524 1109 m -60 949 z "},"Ľ":{"ha":758,"x_min":9,"x_max":757,"o":"m 382 761 l 278 210 q 251 60 264 134 l 573 60 l 688 240 l 722 245 l 664 3 l 659 -2 q 356 0 505 0 l 176 0 q 9 -2 94 0 l 12 27 l 97 52 q 120 73 115 57 q 132 134 125 100 q 147 208 139 168 l 252 758 q 264 821 259 793 q 272 871 269 848 q 260 894 275 888 l 178 920 l 182 949 q 353 947 272 947 q 517 949 432 947 l 513 920 l 427 895 q 406 874 410 891 q 391 805 400 850 q 382 761 382 760 m 587 656 q 657 794 657 726 q 598 882 657 851 q 622 936 600 917 q 677 956 644 956 q 735 931 713 956 q 757 865 757 906 q 610 630 757 744 l 587 656 m 546 591 z "},"Ļ":{"ha":758,"x_min":9,"x_max":722,"o":"m 382 761 l 278 210 q 251 60 264 134 l 573 60 l 688 240 l 722 245 l 664 3 l 659 -2 q 356 0 505 0 l 176 0 q 9 -2 94 0 l 12 27 l 97 52 q 120 73 115 57 q 132 134 125 100 q 147 208 139 168 l 252 758 q 264 821 259 793 q 272 871 269 848 q 260 894 275 888 l 178 920 l 182 949 q 353 947 272 947 q 517 949 432 947 l 513 920 l 427 895 q 406 874 410 891 q 391 805 400 850 q 382 761 382 760 m 241 -304 q 310 -198 310 -251 q 262 -125 310 -154 q 283 -77 264 -95 q 331 -59 302 -59 q 383 -82 363 -59 q 403 -142 403 -106 q 264 -330 403 -241 l 241 -304 z "},"Ł":{"ha":758,"x_min":9,"x_max":722,"o":"m 382 761 l 340 535 l 640 626 l 631 564 l 328 472 l 278 210 q 251 60 264 134 l 573 60 l 688 240 l 722 245 l 664 3 l 659 -2 q 356 0 505 0 l 176 0 q 9 -2 94 0 l 12 27 l 97 52 q 120 73 115 57 q 132 134 125 100 q 147 208 139 168 l 189 430 l 80 397 l 88 458 l 201 493 l 252 758 q 264 821 259 793 q 272 871 269 848 q 260 894 275 888 l 178 920 l 182 949 q 353 947 272 947 q 517 949 432 947 l 513 920 l 427 895 q 406 874 410 891 q 391 805 400 850 q 382 761 382 760 z "},"Ŀ":{"ha":758,"x_min":9,"x_max":722,"o":"m 382 761 l 278 210 q 251 60 264 134 l 573 60 l 688 240 l 722 245 l 664 3 l 659 -2 q 356 0 505 0 l 176 0 q 9 -2 94 0 l 12 27 l 97 52 q 120 73 115 57 q 132 134 125 100 q 147 208 139 168 l 252 758 q 264 821 259 793 q 272 871 269 848 q 260 894 275 888 l 178 920 l 182 949 q 353 947 272 947 q 517 949 432 947 l 513 920 l 427 895 q 406 874 410 891 q 391 805 400 850 q 382 761 382 760 m 720 496 q 699 439 720 461 q 644 417 677 417 q 592 438 612 417 q 571 491 571 458 q 593 548 571 527 q 648 569 614 569 q 700 550 680 569 q 720 496 720 530 m 256 252 z "},"Ń":{"ha":1008,"x_min":-7,"x_max":1083,"o":"m 310 775 l 205 208 q 192 135 198 168 q 182 75 186 102 q 194 52 179 56 l 273 28 l 269 -2 q 132 0 182 0 q -7 -2 77 0 l -4 27 l 81 52 q 104 73 100 58 q 117 134 110 101 q 131 208 123 168 l 233 758 q 243 821 239 793 q 252 871 248 848 q 240 894 255 889 l 158 920 l 162 949 q 241 947 207 948 q 300 947 276 947 q 331 947 315 947 q 362 949 347 948 l 771 218 l 874 761 q 886 822 881 794 q 895 874 891 850 q 881 895 897 890 l 803 918 l 807 949 q 886 947 852 948 q 946 947 921 947 q 1007 947 973 947 q 1083 949 1042 948 l 1080 920 l 992 894 q 972 871 976 889 q 961 821 966 848 q 949 758 956 793 l 804 0 l 749 -5 l 310 775 m 801 1109 l 519 1008 l 503 1036 l 722 1200 l 801 1120 l 801 1109 m 217 949 z "},"Ň":{"ha":1008,"x_min":-7,"x_max":1083,"o":"m 310 775 l 205 208 q 192 135 198 168 q 182 75 186 102 q 194 52 179 56 l 273 28 l 269 -2 q 132 0 182 0 q -7 -2 77 0 l -4 27 l 81 52 q 104 73 100 58 q 117 134 110 101 q 131 208 123 168 l 233 758 q 243 821 239 793 q 252 871 248 848 q 240 894 255 889 l 158 920 l 162 949 q 241 947 207 948 q 300 947 276 947 q 331 947 315 947 q 362 949 347 948 l 771 218 l 874 761 q 886 822 881 794 q 895 874 891 850 q 881 895 897 890 l 803 918 l 807 949 q 886 947 852 948 q 946 947 921 947 q 1007 947 973 947 q 1083 949 1042 948 l 1080 920 l 992 894 q 972 871 976 889 q 961 821 966 848 q 949 758 956 793 l 804 0 l 749 -5 l 310 775 m 601 1016 l 422 1178 l 441 1209 l 639 1118 l 854 1209 l 871 1178 l 662 1016 l 601 1016 m 217 949 z "},"Ñ":{"ha":1008,"x_min":-7,"x_max":1083,"o":"m 310 775 l 205 208 q 192 135 198 168 q 182 75 186 102 q 194 52 179 56 l 273 28 l 269 -2 q 132 0 182 0 q -7 -2 77 0 l -4 27 l 81 52 q 104 73 100 58 q 117 134 110 101 q 131 208 123 168 l 233 758 q 243 821 239 793 q 252 871 248 848 q 240 894 255 889 l 158 920 l 162 949 q 241 947 207 948 q 300 947 276 947 q 331 947 315 947 q 362 949 347 948 l 771 218 l 874 761 q 886 822 881 794 q 895 874 891 850 q 881 895 897 890 l 803 918 l 807 949 q 886 947 852 948 q 946 947 921 947 q 1007 947 973 947 q 1083 949 1042 948 l 1080 920 l 992 894 q 972 871 976 889 q 961 821 966 848 q 949 758 956 793 l 804 0 l 749 -5 l 310 775 m 561 1100 q 514 1083 535 1100 q 466 1036 492 1067 l 434 1061 q 513 1160 475 1126 q 588 1194 551 1194 q 631 1183 608 1194 q 677 1158 654 1172 q 716 1137 698 1147 q 749 1128 734 1128 q 796 1144 775 1128 q 844 1192 817 1161 l 876 1170 q 797 1068 835 1101 q 722 1034 759 1034 q 678 1045 701 1034 q 633 1069 655 1056 q 594 1090 613 1080 q 561 1100 576 1100 m 217 949 z "},"Ņ":{"ha":1008,"x_min":-7,"x_max":1083,"o":"m 310 775 l 205 208 q 192 135 198 168 q 182 75 186 102 q 194 52 179 56 l 273 28 l 269 -2 q 132 0 182 0 q -7 -2 77 0 l -4 27 l 81 52 q 104 73 100 58 q 117 134 110 101 q 131 208 123 168 l 233 758 q 243 821 239 793 q 252 871 248 848 q 240 894 255 889 l 158 920 l 162 949 q 241 947 207 948 q 300 947 276 947 q 331 947 315 947 q 362 949 347 948 l 771 218 l 874 761 q 886 822 881 794 q 895 874 891 850 q 881 895 897 890 l 803 918 l 807 949 q 886 947 852 948 q 946 947 921 947 q 1007 947 973 947 q 1083 949 1042 948 l 1080 920 l 992 894 q 972 871 976 889 q 961 821 966 848 q 949 758 956 793 l 804 0 l 749 -5 l 310 775 m 336 -304 q 405 -198 405 -251 q 357 -125 405 -154 q 378 -77 359 -95 q 426 -59 397 -59 q 478 -82 458 -59 q 498 -142 498 -106 q 359 -330 498 -241 l 336 -304 z "},"Ò":{"ha":1082,"x_min":79,"x_max":1042,"o":"m 484 -24 q 189 79 298 -24 q 79 368 79 181 q 241 793 79 618 q 637 968 403 968 q 933 867 823 968 q 1042 576 1042 765 q 881 151 1042 325 q 484 -24 719 -24 m 897 595 q 823 829 897 745 q 624 914 749 914 q 331 753 437 914 q 224 351 224 593 q 297 116 224 202 q 497 31 370 31 q 790 190 684 31 q 897 595 897 350 m 490 1120 l 563 1200 l 767 1034 l 751 1008 l 490 1109 l 490 1120 m 231 949 z "},"Ó":{"ha":1082,"x_min":79,"x_max":1042,"o":"m 484 -24 q 189 79 298 -24 q 79 368 79 181 q 241 793 79 618 q 637 968 403 968 q 933 867 823 968 q 1042 576 1042 765 q 881 151 1042 325 q 484 -24 719 -24 m 897 595 q 823 829 897 745 q 624 914 749 914 q 331 753 437 914 q 224 351 224 593 q 297 116 224 202 q 497 31 370 31 q 790 190 684 31 q 897 595 897 350 m 814 1109 l 532 1008 l 517 1036 l 736 1200 l 814 1120 l 814 1109 m 231 949 z "},"Ô":{"ha":1082,"x_min":79,"x_max":1042,"o":"m 484 -24 q 189 79 298 -24 q 79 368 79 181 q 241 793 79 618 q 637 968 403 968 q 933 867 823 968 q 1042 576 1042 765 q 881 151 1042 325 q 484 -24 719 -24 m 897 595 q 823 829 897 745 q 624 914 749 914 q 331 753 437 914 q 224 351 224 593 q 297 116 224 202 q 497 31 370 31 q 790 190 684 31 q 897 595 897 350 m 693 1200 l 871 1038 l 853 1007 l 655 1099 l 440 1007 l 422 1038 l 632 1200 l 693 1200 m 231 949 z "},"Õ":{"ha":1082,"x_min":79,"x_max":1042,"o":"m 484 -24 q 189 79 298 -24 q 79 368 79 181 q 241 793 79 618 q 637 968 403 968 q 933 867 823 968 q 1042 576 1042 765 q 881 151 1042 325 q 484 -24 719 -24 m 897 595 q 823 829 897 745 q 624 914 749 914 q 331 753 437 914 q 224 351 224 593 q 297 116 224 202 q 497 31 370 31 q 790 190 684 31 q 897 595 897 350 m 574 1100 q 527 1083 549 1100 q 479 1036 506 1067 l 448 1061 q 526 1160 488 1126 q 602 1194 564 1194 q 645 1183 622 1194 q 690 1158 667 1172 q 730 1137 711 1147 q 762 1128 748 1128 q 810 1144 789 1128 q 857 1192 831 1161 l 890 1170 q 810 1068 848 1101 q 735 1034 772 1034 q 692 1045 715 1034 q 647 1069 669 1056 q 608 1090 627 1080 q 574 1100 589 1100 m 231 949 z "},"Ö":{"ha":1082,"x_min":79,"x_max":1042,"o":"m 484 -24 q 189 79 298 -24 q 79 368 79 181 q 241 793 79 618 q 637 968 403 968 q 933 867 823 968 q 1042 576 1042 765 q 881 151 1042 325 q 484 -24 719 -24 m 897 595 q 823 829 897 745 q 624 914 749 914 q 331 753 437 914 q 224 351 224 593 q 297 116 224 202 q 497 31 370 31 q 790 190 684 31 q 897 595 897 350 m 592 1105 q 571 1049 592 1071 q 520 1027 551 1027 q 470 1048 490 1027 q 450 1100 450 1068 q 471 1156 450 1135 q 524 1177 492 1177 q 573 1158 554 1177 q 592 1105 592 1139 m 869 1105 q 849 1049 869 1071 q 798 1027 828 1027 q 747 1048 767 1027 q 728 1100 728 1068 q 748 1156 728 1135 q 800 1177 769 1177 q 850 1158 831 1177 q 869 1105 869 1139 m 231 949 z "},"Ō":{"ha":1082,"x_min":79,"x_max":1042,"o":"m 484 -24 q 189 79 298 -24 q 79 368 79 181 q 241 793 79 618 q 637 968 403 968 q 933 867 823 968 q 1042 576 1042 765 q 881 151 1042 325 q 484 -24 719 -24 m 897 595 q 823 829 897 745 q 624 914 749 914 q 331 753 437 914 q 224 351 224 593 q 297 116 224 202 q 497 31 370 31 q 790 190 684 31 q 897 595 897 350 m 481 1056 l 496 1128 l 835 1128 l 821 1056 l 481 1056 m 231 949 z "},"Ŏ":{"ha":1082,"x_min":79,"x_max":1042,"o":"m 484 -24 q 189 79 298 -24 q 79 368 79 181 q 241 793 79 618 q 637 968 403 968 q 933 867 823 968 q 1042 576 1042 765 q 881 151 1042 325 q 484 -24 719 -24 m 897 595 q 823 829 897 745 q 624 914 749 914 q 331 753 437 914 q 224 351 224 593 q 297 116 224 202 q 497 31 370 31 q 790 190 684 31 q 897 595 897 350 m 543 1232 q 571 1142 543 1173 q 659 1112 600 1112 q 753 1142 715 1112 q 814 1226 792 1172 l 860 1231 q 791 1081 846 1140 q 648 1023 736 1023 q 532 1062 572 1023 q 493 1179 493 1102 q 497 1226 493 1200 l 543 1232 m 231 949 z "},"Ő":{"ha":1082,"x_min":79,"x_max":1042,"o":"m 484 -24 q 189 79 298 -24 q 79 368 79 181 q 241 793 79 618 q 637 968 403 968 q 933 867 823 968 q 1042 576 1042 765 q 881 151 1042 325 q 484 -24 719 -24 m 897 595 q 823 829 897 745 q 624 914 749 914 q 331 753 437 914 q 224 351 224 593 q 297 116 224 202 q 497 31 370 31 q 790 190 684 31 q 897 595 897 350 m 612 1207 l 745 1207 l 557 1016 l 509 1016 l 612 1207 m 807 1207 l 941 1207 l 751 1016 l 703 1016 l 807 1207 m 231 949 z "},"Ø":{"ha":1082,"x_min":66,"x_max":1060,"o":"m 108 -63 l 66 -26 l 176 92 q 79 368 79 193 q 241 793 79 618 q 637 968 403 968 q 910 886 805 968 l 1015 998 l 1060 965 l 951 848 q 1042 576 1042 748 q 881 151 1042 325 q 484 -24 719 -24 q 216 54 321 -24 l 108 -63 m 839 808 q 624 915 764 915 q 330 754 437 915 q 223 351 223 593 q 257 180 223 251 l 839 808 m 286 130 q 497 30 361 30 q 791 190 684 30 q 898 595 898 350 q 867 757 898 689 l 286 130 z "},"Ǿ":{"ha":1082,"x_min":66,"x_max":1060,"o":"m 108 -63 l 66 -26 l 176 92 q 79 368 79 193 q 241 793 79 618 q 637 968 403 968 q 910 886 805 968 l 1015 998 l 1060 965 l 951 848 q 1042 576 1042 748 q 881 151 1042 325 q 484 -24 719 -24 q 216 54 321 -24 l 108 -63 m 839 808 q 624 915 764 915 q 330 754 437 915 q 223 351 223 593 q 257 180 223 251 l 839 808 m 286 130 q 497 30 361 30 q 791 190 684 30 q 898 595 898 350 q 867 757 898 689 l 286 130 m 814 1109 l 532 1008 l 517 1036 l 736 1200 l 814 1120 l 814 1109 m 231 949 z "},"Œ":{"ha":1340,"x_min":79,"x_max":1376,"o":"m 1051 947 q 1207 947 1127 947 q 1373 949 1287 948 l 1376 944 l 1299 734 l 1271 730 l 1258 888 l 956 888 l 885 513 l 954 513 q 1012 513 978 513 q 1089 513 1046 513 q 1116 532 1108 514 l 1158 624 l 1194 625 q 1176 541 1183 576 q 1164 482 1169 505 q 1154 427 1160 460 q 1141 347 1148 393 l 1104 344 l 1097 437 q 1080 456 1096 454 q 1015 457 1049 456 q 942 457 981 457 l 874 457 l 827 210 q 813 134 820 172 q 800 60 807 97 l 1117 60 l 1225 233 l 1259 239 l 1202 3 l 1198 -2 q 873 0 1023 0 l 659 0 q 483 -24 576 -24 q 186 84 293 -24 q 79 380 79 192 q 241 796 79 625 q 649 968 404 968 q 838 947 741 968 l 1051 947 m 821 871 q 640 914 734 914 q 335 760 446 914 q 224 373 224 606 q 294 123 224 215 q 496 31 363 31 q 668 68 593 31 q 682 134 675 100 q 696 208 688 168 l 802 758 q 813 821 808 793 q 821 871 818 848 z "},"Ŕ":{"ha":866,"x_min":9,"x_max":829,"o":"m 277 208 q 263 135 269 168 q 254 76 258 102 q 267 50 251 55 l 340 27 l 336 -2 q 176 0 254 0 q 9 -2 94 0 l 12 27 l 97 52 q 120 73 115 58 q 132 134 125 100 q 147 208 139 168 l 252 758 q 264 821 259 793 q 272 871 269 848 q 260 894 276 888 l 178 920 l 182 949 q 355 947 272 947 q 382 948 364 947 q 431 950 400 949 q 483 952 463 951 q 511 953 503 953 q 733 899 656 953 q 809 744 809 844 q 549 463 809 528 q 583 388 567 425 q 613 313 598 351 q 642 243 627 277 q 672 172 656 208 q 698 115 685 140 q 728 72 711 90 q 769 42 745 54 q 829 25 793 31 l 824 -5 q 745 -11 781 -11 q 675 -5 704 -11 q 624 14 646 0 q 585 53 602 28 q 551 117 568 78 q 526 178 538 146 q 503 244 514 210 q 475 320 489 281 q 444 399 461 358 q 432 421 438 412 q 420 434 427 429 q 406 441 414 439 q 387 443 397 443 l 322 445 l 277 208 m 332 494 q 406 492 371 492 q 600 551 533 492 q 667 725 667 610 q 619 855 667 812 q 480 897 570 897 q 408 892 454 897 l 332 494 m 689 1109 l 407 1008 l 391 1036 l 610 1200 l 689 1120 l 689 1109 m 105 949 z "},"Ř":{"ha":866,"x_min":9,"x_max":829,"o":"m 277 208 q 263 135 269 168 q 254 76 258 102 q 267 50 251 55 l 340 27 l 336 -2 q 176 0 254 0 q 9 -2 94 0 l 12 27 l 97 52 q 120 73 115 58 q 132 134 125 100 q 147 208 139 168 l 252 758 q 264 821 259 793 q 272 871 269 848 q 260 894 276 888 l 178 920 l 182 949 q 355 947 272 947 q 382 948 364 947 q 431 950 400 949 q 483 952 463 951 q 511 953 503 953 q 733 899 656 953 q 809 744 809 844 q 549 463 809 528 q 583 388 567 425 q 613 313 598 351 q 642 243 627 277 q 672 172 656 208 q 698 115 685 140 q 728 72 711 90 q 769 42 745 54 q 829 25 793 31 l 824 -5 q 745 -11 781 -11 q 675 -5 704 -11 q 624 14 646 0 q 585 53 602 28 q 551 117 568 78 q 526 178 538 146 q 503 244 514 210 q 475 320 489 281 q 444 399 461 358 q 432 421 438 412 q 420 434 427 429 q 406 441 414 439 q 387 443 397 443 l 322 445 l 277 208 m 332 494 q 406 492 371 492 q 600 551 533 492 q 667 725 667 610 q 619 855 667 812 q 480 897 570 897 q 408 892 454 897 l 332 494 m 489 1016 l 311 1178 l 329 1209 l 527 1118 l 742 1209 l 760 1178 l 550 1016 l 489 1016 m 105 949 z "},"Ŗ":{"ha":866,"x_min":9,"x_max":829,"o":"m 277 208 q 263 135 269 168 q 254 76 258 102 q 267 50 251 55 l 340 27 l 336 -2 q 176 0 254 0 q 9 -2 94 0 l 12 27 l 97 52 q 120 73 115 58 q 132 134 125 100 q 147 208 139 168 l 252 758 q 264 821 259 793 q 272 871 269 848 q 260 894 276 888 l 178 920 l 182 949 q 355 947 272 947 q 382 948 364 947 q 431 950 400 949 q 483 952 463 951 q 511 953 503 953 q 733 899 656 953 q 809 744 809 844 q 549 463 809 528 q 583 388 567 425 q 613 313 598 351 q 642 243 627 277 q 672 172 656 208 q 698 115 685 140 q 728 72 711 90 q 769 42 745 54 q 829 25 793 31 l 824 -5 q 745 -11 781 -11 q 675 -5 704 -11 q 624 14 646 0 q 585 53 602 28 q 551 117 568 78 q 526 178 538 146 q 503 244 514 210 q 475 320 489 281 q 444 399 461 358 q 432 421 438 412 q 420 434 427 429 q 406 441 414 439 q 387 443 397 443 l 322 445 l 277 208 m 332 494 q 406 492 371 492 q 600 551 533 492 q 667 725 667 610 q 619 855 667 812 q 480 897 570 897 q 408 892 454 897 l 332 494 m 282 -304 q 351 -198 351 -251 q 303 -125 351 -154 q 324 -77 304 -95 q 372 -59 343 -59 q 424 -82 404 -59 q 444 -142 444 -106 q 305 -330 444 -241 l 282 -304 z "},"Ś":{"ha":707,"x_min":9,"x_max":732,"o":"m 614 892 q 506 909 564 909 q 331 858 400 909 q 262 723 262 807 q 278 651 262 681 q 321 597 294 621 q 381 556 348 574 q 450 522 414 538 q 525 480 490 502 q 588 430 561 458 q 632 365 615 401 q 648 279 648 328 q 620 155 648 210 q 536 60 592 100 q 251 -18 423 -18 q 12 17 119 -18 l 9 22 l 83 253 l 115 258 l 127 59 q 262 38 193 38 q 445 90 376 38 q 515 229 515 142 q 499 303 515 273 q 458 357 484 334 q 398 399 433 380 q 327 436 364 417 q 253 478 288 455 q 191 530 218 501 q 147 597 163 559 q 131 682 131 635 q 241 887 131 809 q 520 965 351 965 q 728 939 622 965 l 732 935 l 656 723 l 629 718 l 614 892 m 665 1109 l 383 1008 l 368 1036 l 587 1200 l 665 1120 l 665 1109 m 81 949 z "},"Ŝ":{"ha":707,"x_min":9,"x_max":732,"o":"m 614 892 q 506 909 564 909 q 331 858 400 909 q 262 723 262 807 q 278 651 262 681 q 321 597 294 621 q 381 556 348 574 q 450 522 414 538 q 525 480 490 502 q 588 430 561 458 q 632 365 615 401 q 648 279 648 328 q 620 155 648 210 q 536 60 592 100 q 251 -18 423 -18 q 12 17 119 -18 l 9 22 l 83 253 l 115 258 l 127 59 q 262 38 193 38 q 445 90 376 38 q 515 229 515 142 q 499 303 515 273 q 458 357 484 334 q 398 399 433 380 q 327 436 364 417 q 253 478 288 455 q 191 530 218 501 q 147 597 163 559 q 131 682 131 635 q 241 887 131 809 q 520 965 351 965 q 728 939 622 965 l 732 935 l 656 723 l 629 718 l 614 892 m 544 1200 l 722 1038 l 704 1007 l 506 1099 l 291 1007 l 273 1038 l 483 1200 l 544 1200 m 81 949 z "},"Š":{"ha":707,"x_min":9,"x_max":736,"o":"m 614 892 q 506 909 564 909 q 331 858 400 909 q 262 723 262 807 q 278 651 262 681 q 321 597 294 621 q 381 556 348 574 q 450 522 414 538 q 525 480 490 502 q 588 430 561 458 q 632 365 615 401 q 648 279 648 328 q 620 155 648 210 q 536 60 592 100 q 251 -18 423 -18 q 12 17 119 -18 l 9 22 l 83 253 l 115 258 l 127 59 q 262 38 193 38 q 445 90 376 38 q 515 229 515 142 q 499 303 515 273 q 458 357 484 334 q 398 399 433 380 q 327 436 364 417 q 253 478 288 455 q 191 530 218 501 q 147 597 163 559 q 131 682 131 635 q 241 887 131 809 q 520 965 351 965 q 728 939 622 965 l 732 935 l 656 723 l 629 718 l 614 892 m 465 1016 l 287 1178 l 305 1209 l 503 1118 l 718 1209 l 736 1178 l 526 1016 l 465 1016 m 81 949 z "},"Ş":{"ha":707,"x_min":9,"x_max":732,"o":"m 168 -124 l 249 -19 q 12 17 118 -16 l 9 22 l 83 253 l 115 258 l 127 59 q 262 38 193 38 q 445 90 376 38 q 515 229 515 142 q 499 303 515 273 q 458 357 484 334 q 398 399 433 380 q 327 436 364 417 q 253 478 288 455 q 191 530 218 501 q 147 597 163 559 q 131 682 131 635 q 241 887 131 809 q 520 965 351 965 q 728 939 622 965 l 732 935 l 656 723 l 629 718 l 614 892 q 506 909 564 909 q 331 858 400 909 q 262 723 262 807 q 278 651 262 681 q 321 597 294 621 q 381 556 348 574 q 450 522 414 538 q 525 480 490 502 q 588 430 561 458 q 632 365 615 401 q 648 279 648 328 q 559 77 648 154 q 309 -16 469 0 l 265 -74 q 335 -163 335 -107 q 198 -330 335 -237 l 175 -304 q 241 -204 241 -252 q 170 -130 241 -155 l 168 -124 z "},"Ș":{"ha":707,"x_min":9,"x_max":732,"o":"m 614 892 q 506 909 564 909 q 331 858 400 909 q 262 723 262 807 q 278 651 262 681 q 321 597 294 621 q 381 556 348 574 q 450 522 414 538 q 525 480 490 502 q 588 430 561 458 q 632 365 615 401 q 648 279 648 328 q 620 155 648 210 q 536 60 592 100 q 251 -18 423 -18 q 12 17 119 -18 l 9 22 l 83 253 l 115 258 l 127 59 q 262 38 193 38 q 445 90 376 38 q 515 229 515 142 q 499 303 515 273 q 458 357 484 334 q 398 399 433 380 q 327 436 364 417 q 253 478 288 455 q 191 530 218 501 q 147 597 163 559 q 131 682 131 635 q 241 887 131 809 q 520 965 351 965 q 728 939 622 965 l 732 935 l 656 723 l 629 718 l 614 892 m 167 -304 q 235 -198 235 -251 q 188 -125 235 -154 q 209 -77 189 -95 q 256 -59 228 -59 q 308 -82 288 -59 q 328 -142 328 -106 q 190 -330 328 -241 l 167 -304 z "},"Ť":{"ha":836,"x_min":108,"x_max":947,"o":"m 359 0 q 172 -2 275 0 l 179 27 l 282 57 q 304 78 300 62 q 331 210 315 130 l 460 888 l 231 888 l 137 706 l 108 701 l 134 944 l 140 949 q 458 947 305 947 l 622 947 q 944 949 774 947 l 947 944 l 862 706 l 834 701 l 821 888 l 590 888 l 461 210 q 437 78 446 130 q 451 57 435 62 l 549 27 l 545 -2 q 359 0 437 0 m 513 1016 l 334 1178 l 353 1209 l 551 1118 l 766 1209 l 783 1178 l 574 1016 l 513 1016 m 129 949 z "},"Ț":{"ha":836,"x_min":108,"x_max":947,"o":"m 359 0 q 172 -2 275 0 l 179 27 l 282 57 q 304 78 300 62 q 331 210 315 130 l 460 888 l 231 888 l 137 706 l 108 701 l 134 944 l 140 949 q 458 947 305 947 l 622 947 q 944 949 774 947 l 947 944 l 862 706 l 834 701 l 821 888 l 590 888 l 461 210 q 437 78 446 130 q 451 57 435 62 l 549 27 l 545 -2 q 359 0 437 0 m 241 -304 q 310 -198 310 -251 q 262 -125 310 -154 q 283 -77 264 -95 q 331 -59 302 -59 q 383 -82 363 -59 q 403 -142 403 -106 q 264 -330 403 -241 l 241 -304 z "},"Ŧ":{"ha":836,"x_min":108,"x_max":947,"o":"m 359 0 q 172 -2 275 0 l 179 27 l 282 57 q 304 78 300 62 q 331 210 315 130 l 375 441 l 199 441 l 211 503 l 387 503 l 460 888 l 231 888 l 137 706 l 108 701 l 134 944 l 140 949 q 458 947 305 947 l 622 947 q 944 949 774 947 l 947 944 l 862 706 l 834 701 l 821 888 l 590 888 l 517 503 l 692 503 l 680 441 l 505 441 l 461 210 q 437 78 446 130 q 451 57 435 62 l 549 27 l 545 -2 q 359 0 437 0 z "},"Ù":{"ha":1015,"x_min":144,"x_max":1092,"o":"m 159 949 q 327 947 248 947 q 493 949 408 947 l 490 920 l 404 895 q 382 874 387 891 q 371 822 377 850 q 359 761 366 794 l 292 405 q 276 268 276 323 q 330 105 276 162 q 487 47 384 47 q 618 71 565 47 q 708 141 671 95 q 767 257 745 187 q 808 418 790 326 l 873 761 q 884 822 879 794 q 892 874 888 850 q 879 895 895 890 l 802 918 l 806 949 q 949 947 892 947 q 1092 949 1009 947 l 1089 920 l 1002 894 q 981 871 985 888 q 970 821 976 848 q 958 758 964 793 l 891 410 q 839 224 870 305 q 758 89 807 144 q 638 5 708 33 q 471 -22 568 -22 q 229 51 313 -22 q 144 264 144 125 q 157 384 144 319 l 229 758 q 240 821 235 793 q 249 871 245 848 q 237 894 252 888 l 155 920 l 159 949 m 487 1120 l 559 1200 l 764 1034 l 748 1008 l 487 1109 l 487 1120 m 227 949 z "},"Ú":{"ha":1015,"x_min":144,"x_max":1092,"o":"m 159 949 q 327 947 248 947 q 493 949 408 947 l 490 920 l 404 895 q 382 874 387 891 q 371 822 377 850 q 359 761 366 794 l 292 405 q 276 268 276 323 q 330 105 276 162 q 487 47 384 47 q 618 71 565 47 q 708 141 671 95 q 767 257 745 187 q 808 418 790 326 l 873 761 q 884 822 879 794 q 892 874 888 850 q 879 895 895 890 l 802 918 l 806 949 q 949 947 892 947 q 1092 949 1009 947 l 1089 920 l 1002 894 q 981 871 985 888 q 970 821 976 848 q 958 758 964 793 l 891 410 q 839 224 870 305 q 758 89 807 144 q 638 5 708 33 q 471 -22 568 -22 q 229 51 313 -22 q 144 264 144 125 q 157 384 144 319 l 229 758 q 240 821 235 793 q 249 871 245 848 q 237 894 252 888 l 155 920 l 159 949 m 811 1109 l 529 1008 l 513 1036 l 732 1200 l 811 1120 l 811 1109 m 227 949 z "},"Û":{"ha":1015,"x_min":144,"x_max":1092,"o":"m 159 949 q 327 947 248 947 q 493 949 408 947 l 490 920 l 404 895 q 382 874 387 891 q 371 822 377 850 q 359 761 366 794 l 292 405 q 276 268 276 323 q 330 105 276 162 q 487 47 384 47 q 618 71 565 47 q 708 141 671 95 q 767 257 745 187 q 808 418 790 326 l 873 761 q 884 822 879 794 q 892 874 888 850 q 879 895 895 890 l 802 918 l 806 949 q 949 947 892 947 q 1092 949 1009 947 l 1089 920 l 1002 894 q 981 871 985 888 q 970 821 976 848 q 958 758 964 793 l 891 410 q 839 224 870 305 q 758 89 807 144 q 638 5 708 33 q 471 -22 568 -22 q 229 51 313 -22 q 144 264 144 125 q 157 384 144 319 l 229 758 q 240 821 235 793 q 249 871 245 848 q 237 894 252 888 l 155 920 l 159 949 m 690 1200 l 868 1038 l 850 1007 l 652 1099 l 437 1007 l 419 1038 l 629 1200 l 690 1200 m 227 949 z "},"Ũ":{"ha":1015,"x_min":144,"x_max":1092,"o":"m 159 949 q 327 947 248 947 q 493 949 408 947 l 490 920 l 404 895 q 382 874 387 891 q 371 822 377 850 q 359 761 366 794 l 292 405 q 276 268 276 323 q 330 105 276 162 q 487 47 384 47 q 618 71 565 47 q 708 141 671 95 q 767 257 745 187 q 808 418 790 326 l 873 761 q 884 822 879 794 q 892 874 888 850 q 879 895 895 890 l 802 918 l 806 949 q 949 947 892 947 q 1092 949 1009 947 l 1089 920 l 1002 894 q 981 871 985 888 q 970 821 976 848 q 958 758 964 793 l 891 410 q 839 224 870 305 q 758 89 807 144 q 638 5 708 33 q 471 -22 568 -22 q 229 51 313 -22 q 144 264 144 125 q 157 384 144 319 l 229 758 q 240 821 235 793 q 249 871 245 848 q 237 894 252 888 l 155 920 l 159 949 m 571 1100 q 524 1083 545 1100 q 476 1036 503 1067 l 444 1061 q 523 1160 485 1126 q 598 1194 561 1194 q 641 1183 618 1194 q 687 1158 664 1172 q 726 1137 708 1147 q 759 1128 745 1128 q 806 1144 785 1128 q 854 1192 827 1161 l 886 1170 q 807 1068 845 1101 q 732 1034 769 1034 q 688 1045 711 1034 q 644 1069 665 1056 q 605 1090 623 1080 q 571 1100 586 1100 m 227 949 z "},"Ü":{"ha":1015,"x_min":144,"x_max":1092,"o":"m 159 949 q 327 947 248 947 q 493 949 408 947 l 490 920 l 404 895 q 382 874 387 891 q 371 822 377 850 q 359 761 366 794 l 292 405 q 276 268 276 323 q 330 105 276 162 q 487 47 384 47 q 618 71 565 47 q 708 141 671 95 q 767 257 745 187 q 808 418 790 326 l 873 761 q 884 822 879 794 q 892 874 888 850 q 879 895 895 890 l 802 918 l 806 949 q 949 947 892 947 q 1092 949 1009 947 l 1089 920 l 1002 894 q 981 871 985 888 q 970 821 976 848 q 958 758 964 793 l 891 410 q 839 224 870 305 q 758 89 807 144 q 638 5 708 33 q 471 -22 568 -22 q 229 51 313 -22 q 144 264 144 125 q 157 384 144 319 l 229 758 q 240 821 235 793 q 249 871 245 848 q 237 894 252 888 l 155 920 l 159 949 m 589 1105 q 568 1049 589 1071 q 517 1027 547 1027 q 467 1048 486 1027 q 447 1100 447 1068 q 468 1156 447 1135 q 520 1177 488 1177 q 570 1158 551 1177 q 589 1105 589 1139 m 866 1105 q 845 1049 866 1071 q 794 1027 825 1027 q 744 1048 764 1027 q 724 1100 724 1068 q 745 1156 724 1135 q 797 1177 766 1177 q 847 1158 827 1177 q 866 1105 866 1139 m 227 949 z "},"Ū":{"ha":1015,"x_min":144,"x_max":1092,"o":"m 159 949 q 327 947 248 947 q 493 949 408 947 l 490 920 l 404 895 q 382 874 387 891 q 371 822 377 850 q 359 761 366 794 l 292 405 q 276 268 276 323 q 330 105 276 162 q 487 47 384 47 q 618 71 565 47 q 708 141 671 95 q 767 257 745 187 q 808 418 790 326 l 873 761 q 884 822 879 794 q 892 874 888 850 q 879 895 895 890 l 802 918 l 806 949 q 949 947 892 947 q 1092 949 1009 947 l 1089 920 l 1002 894 q 981 871 985 888 q 970 821 976 848 q 958 758 964 793 l 891 410 q 839 224 870 305 q 758 89 807 144 q 638 5 708 33 q 471 -22 568 -22 q 229 51 313 -22 q 144 264 144 125 q 157 384 144 319 l 229 758 q 240 821 235 793 q 249 871 245 848 q 237 894 252 888 l 155 920 l 159 949 m 478 1056 l 492 1128 l 831 1128 l 817 1056 l 478 1056 m 227 949 z "},"Ŭ":{"ha":1015,"x_min":144,"x_max":1092,"o":"m 159 949 q 327 947 248 947 q 493 949 408 947 l 490 920 l 404 895 q 382 874 387 891 q 371 822 377 850 q 359 761 366 794 l 292 405 q 276 268 276 323 q 330 105 276 162 q 487 47 384 47 q 618 71 565 47 q 708 141 671 95 q 767 257 745 187 q 808 418 790 326 l 873 761 q 884 822 879 794 q 892 874 888 850 q 879 895 895 890 l 802 918 l 806 949 q 949 947 892 947 q 1092 949 1009 947 l 1089 920 l 1002 894 q 981 871 985 888 q 970 821 976 848 q 958 758 964 793 l 891 410 q 839 224 870 305 q 758 89 807 144 q 638 5 708 33 q 471 -22 568 -22 q 229 51 313 -22 q 144 264 144 125 q 157 384 144 319 l 229 758 q 240 821 235 793 q 249 871 245 848 q 237 894 252 888 l 155 920 l 159 949 m 539 1232 q 568 1142 539 1173 q 655 1112 597 1112 q 750 1142 711 1112 q 810 1226 789 1172 l 857 1231 q 788 1081 843 1140 q 645 1023 733 1023 q 529 1062 568 1023 q 490 1179 490 1102 q 494 1226 490 1200 l 539 1232 m 227 949 z "},"Ů":{"ha":1015,"x_min":144,"x_max":1092,"o":"m 159 949 q 327 947 248 947 q 493 949 408 947 l 490 920 l 404 895 q 382 874 387 891 q 371 822 377 850 q 359 761 366 794 l 292 405 q 276 268 276 323 q 330 105 276 162 q 487 47 384 47 q 618 71 565 47 q 708 141 671 95 q 767 257 745 187 q 808 418 790 326 l 873 761 q 884 822 879 794 q 892 874 888 850 q 879 895 895 890 l 802 918 l 806 949 q 949 947 892 947 q 1092 949 1009 947 l 1089 920 l 1002 894 q 981 871 985 888 q 970 821 976 848 q 958 758 964 793 l 891 410 q 839 224 870 305 q 758 89 807 144 q 638 5 708 33 q 471 -22 568 -22 q 229 51 313 -22 q 144 264 144 125 q 157 384 144 319 l 229 758 q 240 821 235 793 q 249 871 245 848 q 237 894 252 888 l 155 920 l 159 949 m 642 999 q 548 1026 583 999 q 513 1101 513 1053 q 563 1204 513 1163 q 680 1245 613 1245 q 770 1217 733 1245 q 806 1141 806 1189 q 759 1039 806 1079 q 642 999 711 999 m 649 1038 q 710 1066 687 1038 q 732 1136 732 1093 q 718 1186 732 1167 q 672 1206 703 1206 q 610 1178 633 1206 q 587 1107 587 1150 q 603 1058 587 1078 q 649 1038 618 1038 m 227 949 z "},"Ű":{"ha":1015,"x_min":144,"x_max":1092,"o":"m 159 949 q 327 947 248 947 q 493 949 408 947 l 490 920 l 404 895 q 382 874 387 891 q 371 822 377 850 q 359 761 366 794 l 292 405 q 276 268 276 323 q 330 105 276 162 q 487 47 384 47 q 618 71 565 47 q 708 141 671 95 q 767 257 745 187 q 808 418 790 326 l 873 761 q 884 822 879 794 q 892 874 888 850 q 879 895 895 890 l 802 918 l 806 949 q 949 947 892 947 q 1092 949 1009 947 l 1089 920 l 1002 894 q 981 871 985 888 q 970 821 976 848 q 958 758 964 793 l 891 410 q 839 224 870 305 q 758 89 807 144 q 638 5 708 33 q 471 -22 568 -22 q 229 51 313 -22 q 144 264 144 125 q 157 384 144 319 l 229 758 q 240 821 235 793 q 249 871 245 848 q 237 894 252 888 l 155 920 l 159 949 m 608 1207 l 742 1207 l 553 1016 l 506 1016 l 608 1207 m 804 1207 l 937 1207 l 747 1016 l 700 1016 l 804 1207 m 227 949 z "},"Ų":{"ha":1015,"x_min":144,"x_max":1092,"o":"m 159 949 q 327 947 248 947 q 493 949 408 947 l 490 920 l 404 895 q 382 874 387 891 q 371 822 377 850 q 359 761 366 794 l 292 405 q 276 268 276 323 q 330 105 276 162 q 487 47 384 47 q 618 71 565 47 q 708 141 671 95 q 767 257 745 187 q 808 418 790 326 l 873 761 q 884 822 879 794 q 892 874 888 850 q 879 895 895 890 l 802 918 l 806 949 q 949 947 892 947 q 1092 949 1009 947 l 1089 920 l 1002 894 q 981 871 985 888 q 970 821 976 848 q 958 758 964 793 l 891 410 q 768 100 850 197 q 562 -15 686 3 q 465 -171 465 -68 q 497 -247 465 -222 q 587 -273 529 -272 q 618 -271 604 -273 l 621 -298 q 471 -332 522 -332 q 383 -299 416 -332 q 351 -213 351 -267 q 473 -22 351 -105 q 229 51 313 -22 q 144 264 144 125 q 157 384 144 319 l 229 758 q 240 821 235 793 q 249 871 245 848 q 237 894 252 888 l 155 920 l 159 949 z "},"Ẁ":{"ha":1394,"x_min":109,"x_max":1521,"o":"m 872 -5 l 774 717 l 395 0 l 330 -5 l 220 827 q 205 877 216 859 q 171 901 194 895 l 109 920 l 114 949 q 269 947 189 947 q 453 949 351 947 l 450 920 l 376 899 q 352 859 352 893 q 360 779 352 840 l 433 196 l 818 948 l 871 952 l 974 191 l 1282 802 q 1306 853 1298 834 q 1314 882 1314 871 q 1309 895 1314 891 q 1293 901 1303 899 l 1230 918 l 1234 949 q 1381 947 1315 947 q 1521 949 1454 947 l 1518 920 l 1449 899 q 1413 880 1428 892 q 1381 835 1398 867 l 937 0 l 872 -5 m 687 1120 l 760 1200 l 964 1034 l 948 1008 l 687 1109 l 687 1120 m 427 949 z "},"Ẃ":{"ha":1394,"x_min":109,"x_max":1521,"o":"m 872 -5 l 774 717 l 395 0 l 330 -5 l 220 827 q 205 877 216 859 q 171 901 194 895 l 109 920 l 114 949 q 269 947 189 947 q 453 949 351 947 l 450 920 l 376 899 q 352 859 352 893 q 360 779 352 840 l 433 196 l 818 948 l 871 952 l 974 191 l 1282 802 q 1306 853 1298 834 q 1314 882 1314 871 q 1309 895 1314 891 q 1293 901 1303 899 l 1230 918 l 1234 949 q 1381 947 1315 947 q 1521 949 1454 947 l 1518 920 l 1449 899 q 1413 880 1428 892 q 1381 835 1398 867 l 937 0 l 872 -5 m 1011 1109 l 729 1008 l 713 1036 l 932 1200 l 1011 1120 l 1011 1109 m 427 949 z "},"Ŵ":{"ha":1394,"x_min":109,"x_max":1521,"o":"m 872 -5 l 774 717 l 395 0 l 330 -5 l 220 827 q 205 877 216 859 q 171 901 194 895 l 109 920 l 114 949 q 269 947 189 947 q 453 949 351 947 l 450 920 l 376 899 q 352 859 352 893 q 360 779 352 840 l 433 196 l 818 948 l 871 952 l 974 191 l 1282 802 q 1306 853 1298 834 q 1314 882 1314 871 q 1309 895 1314 891 q 1293 901 1303 899 l 1230 918 l 1234 949 q 1381 947 1315 947 q 1521 949 1454 947 l 1518 920 l 1449 899 q 1413 880 1428 892 q 1381 835 1398 867 l 937 0 l 872 -5 m 890 1200 l 1068 1038 l 1050 1007 l 852 1099 l 637 1007 l 619 1038 l 829 1200 l 890 1200 m 427 949 z "},"Ẅ":{"ha":1394,"x_min":109,"x_max":1521,"o":"m 872 -5 l 774 717 l 395 0 l 330 -5 l 220 827 q 205 877 216 859 q 171 901 194 895 l 109 920 l 114 949 q 269 947 189 947 q 453 949 351 947 l 450 920 l 376 899 q 352 859 352 893 q 360 779 352 840 l 433 196 l 818 948 l 871 952 l 974 191 l 1282 802 q 1306 853 1298 834 q 1314 882 1314 871 q 1309 895 1314 891 q 1293 901 1303 899 l 1230 918 l 1234 949 q 1381 947 1315 947 q 1521 949 1454 947 l 1518 920 l 1449 899 q 1413 880 1428 892 q 1381 835 1398 867 l 937 0 l 872 -5 m 789 1105 q 768 1049 789 1071 q 717 1027 747 1027 q 667 1048 686 1027 q 647 1100 647 1068 q 668 1156 647 1135 q 720 1177 688 1177 q 770 1158 751 1177 q 789 1105 789 1139 m 1066 1105 q 1045 1049 1066 1071 q 994 1027 1025 1027 q 944 1048 964 1027 q 924 1100 924 1068 q 945 1156 924 1135 q 997 1177 966 1177 q 1047 1158 1027 1177 q 1066 1105 1066 1139 m 427 949 z "},"Ỳ":{"ha":822,"x_min":88,"x_max":965,"o":"m 479 483 l 692 779 q 733 838 716 812 q 751 878 751 864 q 726 902 751 895 l 666 918 l 670 949 q 823 947 746 947 q 965 949 897 947 l 962 920 l 892 899 q 850 875 866 891 q 816 835 834 859 l 502 416 l 462 208 q 448 134 454 168 q 437 74 442 101 q 456 51 435 57 l 532 27 l 528 -2 q 358 0 438 0 q 194 -2 278 0 l 197 27 l 281 52 q 304 73 300 57 q 317 134 310 100 q 332 208 323 168 l 370 414 l 216 816 q 186 876 199 857 q 149 901 174 894 l 88 920 l 92 949 q 259 947 156 947 q 437 949 342 947 l 435 920 l 370 903 q 346 891 354 899 q 338 869 338 883 q 360 794 338 850 l 479 483 m 395 1120 l 468 1200 l 672 1034 l 656 1008 l 395 1109 l 395 1120 m 136 949 z "},"Ý":{"ha":822,"x_min":88,"x_max":965,"o":"m 479 483 l 692 779 q 733 838 716 812 q 751 878 751 864 q 726 902 751 895 l 666 918 l 670 949 q 823 947 746 947 q 965 949 897 947 l 962 920 l 892 899 q 850 875 866 891 q 816 835 834 859 l 502 416 l 462 208 q 448 134 454 168 q 437 74 442 101 q 456 51 435 57 l 532 27 l 528 -2 q 358 0 438 0 q 194 -2 278 0 l 197 27 l 281 52 q 304 73 300 57 q 317 134 310 100 q 332 208 323 168 l 370 414 l 216 816 q 186 876 199 857 q 149 901 174 894 l 88 920 l 92 949 q 259 947 156 947 q 437 949 342 947 l 435 920 l 370 903 q 346 891 354 899 q 338 869 338 883 q 360 794 338 850 l 479 483 m 720 1109 l 437 1008 l 422 1036 l 641 1200 l 720 1120 l 720 1109 m 136 949 z "},"Ŷ":{"ha":822,"x_min":88,"x_max":965,"o":"m 479 483 l 692 779 q 733 838 716 812 q 751 878 751 864 q 726 902 751 895 l 666 918 l 670 949 q 823 947 746 947 q 965 949 897 947 l 962 920 l 892 899 q 850 875 866 891 q 816 835 834 859 l 502 416 l 462 208 q 448 134 454 168 q 437 74 442 101 q 456 51 435 57 l 532 27 l 528 -2 q 358 0 438 0 q 194 -2 278 0 l 197 27 l 281 52 q 304 73 300 57 q 317 134 310 100 q 332 208 323 168 l 370 414 l 216 816 q 186 876 199 857 q 149 901 174 894 l 88 920 l 92 949 q 259 947 156 947 q 437 949 342 947 l 435 920 l 370 903 q 346 891 354 899 q 338 869 338 883 q 360 794 338 850 l 479 483 m 598 1200 l 777 1038 l 758 1007 l 560 1099 l 345 1007 l 328 1038 l 537 1200 l 598 1200 m 136 949 z "},"Ÿ":{"ha":822,"x_min":88,"x_max":965,"o":"m 479 483 l 692 779 q 733 838 716 812 q 751 878 751 864 q 726 902 751 895 l 666 918 l 670 949 q 823 947 746 947 q 965 949 897 947 l 962 920 l 892 899 q 850 875 866 891 q 816 835 834 859 l 502 416 l 462 208 q 448 134 454 168 q 437 74 442 101 q 456 51 435 57 l 532 27 l 528 -2 q 358 0 438 0 q 194 -2 278 0 l 197 27 l 281 52 q 304 73 300 57 q 317 134 310 100 q 332 208 323 168 l 370 414 l 216 816 q 186 876 199 857 q 149 901 174 894 l 88 920 l 92 949 q 259 947 156 947 q 437 949 342 947 l 435 920 l 370 903 q 346 891 354 899 q 338 869 338 883 q 360 794 338 850 l 479 483 m 497 1105 q 476 1049 497 1071 q 425 1027 456 1027 q 375 1048 395 1027 q 355 1100 355 1068 q 376 1156 355 1135 q 429 1177 397 1177 q 478 1158 459 1177 q 497 1105 497 1139 m 774 1105 q 754 1049 774 1071 q 703 1027 733 1027 q 652 1048 672 1027 q 633 1100 633 1068 q 653 1156 633 1135 q 705 1177 674 1177 q 755 1158 736 1177 q 774 1105 774 1139 m 136 949 z "},"Ź":{"ha":788,"x_min":-14,"x_max":827,"o":"m -14 -2 l -11 27 l 644 888 l 262 888 l 193 724 l 164 719 l 165 944 l 170 949 q 490 947 341 947 l 626 947 q 827 949 723 947 l 824 920 l 170 60 l 572 60 l 690 244 l 723 249 l 664 3 l 659 -2 q 321 0 469 0 l 171 0 q -14 -2 75 0 m 672 1109 l 390 1008 l 374 1036 l 593 1200 l 672 1120 l 672 1109 m 88 949 z "},"Ž":{"ha":788,"x_min":-14,"x_max":827,"o":"m -14 -2 l -11 27 l 644 888 l 262 888 l 193 724 l 164 719 l 165 944 l 170 949 q 490 947 341 947 l 626 947 q 827 949 723 947 l 824 920 l 170 60 l 572 60 l 690 244 l 723 249 l 664 3 l 659 -2 q 321 0 469 0 l 171 0 q -14 -2 75 0 m 472 1016 l 294 1178 l 312 1209 l 510 1118 l 725 1209 l 743 1178 l 533 1016 l 472 1016 m 88 949 z "},"Ż":{"ha":788,"x_min":-14,"x_max":827,"o":"m -14 -2 l -11 27 l 644 888 l 262 888 l 193 724 l 164 719 l 165 944 l 170 949 q 490 947 341 947 l 626 947 q 827 949 723 947 l 824 920 l 170 60 l 572 60 l 690 244 l 723 249 l 664 3 l 659 -2 q 321 0 469 0 l 171 0 q -14 -2 75 0 m 585 1107 q 564 1049 585 1072 q 509 1027 542 1027 q 457 1048 477 1027 q 436 1101 436 1069 q 458 1158 436 1137 q 513 1179 479 1179 q 565 1160 545 1179 q 585 1107 585 1141 m 88 949 z "},"Ŋ":{"ha":1008,"x_min":-7,"x_max":1083,"o":"m 310 775 l 205 208 q 192 135 198 168 q 182 75 186 102 q 194 52 179 56 l 273 28 l 269 -2 q 132 0 182 0 q -7 -2 77 0 l -4 27 l 81 52 q 104 73 100 58 q 117 135 110 102 q 131 208 123 168 l 233 758 q 243 821 239 793 q 252 871 248 848 q 240 894 254 889 l 158 920 l 162 949 q 241 947 207 948 q 300 947 276 947 q 331 947 315 947 q 362 949 347 948 l 771 218 l 874 761 q 886 822 881 794 q 895 874 891 850 q 881 895 897 890 l 803 918 l 807 949 q 886 947 852 948 q 946 947 921 947 q 1007 947 973 947 q 1083 949 1042 948 l 1080 920 l 992 894 q 972 871 976 888 q 961 821 966 848 q 949 758 956 793 l 831 140 q 810 34 821 86 q 783 -66 799 -18 q 746 -154 768 -113 q 693 -223 724 -194 q 617 -270 661 -253 q 515 -287 574 -287 q 451 -281 487 -287 q 481 -145 463 -210 l 488 -142 q 591 -160 551 -160 q 676 -125 645 -160 q 733 23 707 -90 l 310 775 z "},"Ð":{"ha":1042,"x_min":9,"x_max":1000,"o":"m 176 0 q 9 -2 94 0 l 12 27 l 97 52 q 120 73 117 58 q 132 134 125 100 q 147 208 139 168 l 197 469 l 94 469 l 106 530 l 208 530 l 252 758 q 264 821 259 793 q 272 871 269 848 q 260 894 275 888 l 178 920 l 182 949 q 355 947 272 947 q 461 950 395 947 q 572 954 527 954 q 887 861 774 954 q 1000 595 1000 769 q 832 162 1000 328 q 383 -4 665 -4 q 281 -2 347 -4 q 176 0 214 0 m 250 58 q 400 49 313 49 q 733 205 608 49 q 857 598 857 362 q 782 823 857 749 q 550 898 706 898 q 408 892 489 898 l 339 530 l 560 530 l 549 469 l 328 469 l 250 58 z "},"Þ":{"ha":801,"x_min":9,"x_max":787,"o":"m 182 949 q 352 947 272 947 q 517 949 432 947 l 513 920 l 427 895 q 406 874 410 891 q 395 827 400 850 q 385 775 391 803 q 486 780 455 780 q 707 721 627 780 q 787 553 787 663 q 673 307 787 392 q 380 221 559 221 q 281 229 330 221 l 277 208 q 263 134 269 168 q 253 74 258 101 q 272 51 251 57 l 348 27 l 343 -2 q 176 0 254 0 q 9 -2 94 0 l 12 27 l 97 52 q 120 73 115 57 q 132 134 125 100 q 147 208 139 168 l 252 758 q 264 821 259 793 q 272 871 269 848 q 260 894 275 888 l 178 920 l 182 949 m 374 717 l 292 285 q 374 277 324 277 q 576 343 507 277 q 646 535 646 410 q 595 675 646 626 q 443 724 544 724 q 374 717 406 724 z "},"a":{"ha":713,"x_min":47,"x_max":651,"o":"m 651 631 q 629 549 642 600 q 582 330 616 498 l 539 118 q 536 92 536 104 q 558 52 536 62 q 635 43 579 41 l 633 16 q 503 -12 545 -12 q 440 11 464 -12 q 417 78 417 34 q 418 100 417 85 q 302 13 350 40 q 234 -15 254 -15 q 97 52 147 -15 q 47 218 47 119 q 153 516 47 395 q 422 637 260 637 q 566 612 485 637 q 644 636 599 619 l 651 631 m 509 555 q 412 584 460 584 q 243 479 313 584 q 174 249 174 375 q 201 126 174 176 q 277 76 228 76 q 330 94 292 76 q 427 157 368 113 l 509 555 z "},"b":{"ha":714,"x_min":58,"x_max":659,"o":"m 58 23 q 74 91 67 58 q 115 291 81 123 l 245 930 l 144 948 l 144 972 q 377 1021 258 994 l 383 1013 q 354 883 371 962 q 317 709 338 803 l 286 557 q 473 635 429 635 q 605 572 551 635 q 659 403 659 508 q 550 105 659 227 q 278 -16 441 -16 q 58 23 157 -16 m 183 53 q 286 39 237 39 q 460 142 389 39 q 531 372 531 245 q 504 496 531 445 q 427 547 476 547 q 275 503 363 547 l 183 53 z "},"c":{"ha":635,"x_min":50,"x_max":611,"o":"m 522 123 l 537 100 q 419 17 488 47 q 285 -14 350 -14 q 116 55 182 -14 q 50 244 50 125 q 165 524 50 411 q 442 636 280 636 q 611 600 530 636 q 570 418 586 505 l 543 414 l 492 572 q 432 580 463 580 q 249 488 321 580 q 178 265 178 397 q 223 120 178 171 q 351 68 268 68 q 522 123 426 68 z "},"d":{"ha":720,"x_min":46,"x_max":733,"o":"m 492 948 l 492 972 q 727 1021 610 994 l 733 1013 q 703 883 721 962 q 667 709 686 803 l 545 118 q 543 92 543 104 q 564 52 543 62 q 641 43 585 41 l 639 16 q 509 -12 551 -12 q 447 11 470 -12 q 424 78 424 34 q 425 100 424 85 q 306 13 355 40 q 237 -15 257 -15 q 98 52 149 -15 q 46 218 46 119 q 156 515 46 395 q 431 635 265 635 q 530 627 476 635 l 593 930 l 492 948 m 515 557 q 416 583 465 583 q 244 479 315 583 q 174 249 174 375 q 201 126 174 176 q 279 76 229 76 q 334 94 295 76 q 434 157 373 113 l 515 557 z "},"e":{"ha":621,"x_min":47,"x_max":594,"o":"m 178 296 q 175 250 175 272 q 218 116 175 163 q 338 68 260 68 q 520 119 427 68 l 535 95 q 417 15 489 45 q 275 -15 346 -15 q 110 54 173 -15 q 47 232 47 123 q 61 337 47 286 q 98 433 74 388 q 156 515 122 478 q 231 580 189 553 q 321 622 273 607 q 422 637 369 637 q 550 601 505 637 q 594 508 594 566 q 468 353 593 405 q 178 296 342 301 m 185 345 q 402 396 330 355 q 475 503 475 437 q 453 559 475 538 q 394 579 431 579 q 268 516 325 579 q 185 345 210 454 z "},"f":{"ha":418,"x_min":-218,"x_max":680,"o":"m 171 554 l 81 574 l 83 603 l 181 612 l 182 618 q 320 911 220 806 q 559 1016 420 1016 q 680 998 623 1016 q 641 829 656 920 l 612 824 l 570 956 q 536 959 557 959 q 401 890 455 959 q 309 636 347 821 l 304 612 l 475 612 l 463 551 l 293 551 l 189 46 q 78 -245 149 -155 q -115 -335 7 -335 q -218 -321 -161 -335 q -191 -201 -207 -258 l -186 -199 q -59 -267 -96 -267 q 57 -68 21 -267 l 171 554 z "},"g":{"ha":706,"x_min":-21,"x_max":657,"o":"m 422 96 q 306 17 354 42 q 238 -8 258 -8 q 100 57 153 -8 q 47 220 47 123 q 155 517 47 397 q 428 637 262 637 q 572 612 490 637 q 608 622 588 615 q 650 636 627 628 l 657 631 q 648 594 653 615 q 637 548 642 574 q 618 469 631 524 q 588 330 606 414 l 549 138 q 488 -76 523 14 q 406 -224 452 -165 q 302 -310 360 -282 q 174 -337 245 -337 q -21 -302 90 -337 q 10 -174 -11 -239 l 15 -172 q 224 -264 155 -264 q 286 -248 260 -264 q 334 -196 312 -231 q 375 -103 356 -160 q 410 34 393 -47 l 422 96 m 517 555 q 418 584 469 584 q 246 481 317 584 q 175 254 175 378 q 202 132 175 180 q 280 83 229 83 q 435 157 323 83 l 517 555 z "},"h":{"ha":764,"x_min":54,"x_max":691,"o":"m 54 -3 l 246 930 l 144 948 l 144 972 q 379 1021 260 994 l 385 1013 q 356 883 372 962 q 320 709 339 803 l 287 553 q 524 637 420 637 q 634 599 595 637 q 672 496 672 561 q 665 433 672 465 l 595 111 q 593 98 594 104 q 593 87 593 92 q 615 51 593 60 q 691 43 637 43 l 689 16 q 552 -12 602 -12 q 492 7 513 -12 q 471 67 471 26 q 477 115 471 86 l 541 408 q 547 462 547 437 q 526 528 547 505 q 453 552 504 552 q 276 496 371 552 l 174 3 l 54 -3 z "},"i":{"ha":378,"x_min":77,"x_max":355,"o":"m 205 111 q 201 87 201 98 q 224 51 201 60 q 300 43 246 43 l 298 16 q 161 -12 210 -12 q 101 7 123 -12 q 80 67 80 27 q 85 115 80 86 l 167 510 q 171 530 169 522 q 172 545 172 538 q 157 571 172 564 q 77 578 141 578 l 79 604 q 223 635 171 635 q 277 620 258 635 q 296 570 296 604 q 294 542 296 555 l 205 111 m 355 880 q 334 823 355 845 q 279 801 312 801 q 227 822 248 801 q 206 875 206 842 q 228 932 206 911 q 283 953 250 953 q 335 933 315 953 q 355 880 355 914 z "},"j":{"ha":364,"x_min":-139,"x_max":359,"o":"m 79 578 l 81 604 q 227 635 174 635 q 280 620 261 635 q 300 570 300 604 q 297 542 300 555 l 201 77 q 112 -144 174 -57 q -113 -341 50 -231 l -139 -313 q 28 -109 -1 -180 q 78 62 58 -37 l 170 510 q 174 530 172 522 q 176 545 176 538 q 160 571 176 564 q 79 578 144 578 m 359 880 q 337 823 359 845 q 283 801 315 801 q 230 822 250 801 q 209 875 209 842 q 231 932 209 911 q 286 953 252 953 q 338 933 318 953 q 359 880 359 914 z "},"k":{"ha":711,"x_min":58,"x_max":730,"o":"m 58 -3 l 250 930 l 148 948 l 148 972 q 264 995 206 983 q 382 1021 323 1007 l 388 1013 q 359 883 376 962 q 323 709 342 803 l 178 3 l 58 -3 m 655 -2 q 523 0 562 0 q 495 0 511 0 q 458 -1 479 -1 q 380 155 428 70 q 267 343 333 241 q 532 620 484 532 q 573 619 557 619 q 730 621 617 619 l 728 593 q 667 577 692 585 q 625 563 643 570 q 588 544 606 555 q 546 512 570 533 l 390 374 l 547 113 q 591 52 573 68 q 659 26 610 37 l 655 -2 z "},"l":{"ha":374,"x_min":70,"x_max":383,"o":"m 142 948 l 142 972 q 378 1021 260 994 l 383 1013 q 354 883 371 962 q 317 709 336 803 l 195 111 q 192 87 192 99 q 215 51 192 60 q 292 43 238 43 l 289 16 q 151 -12 202 -12 q 91 7 112 -12 q 70 67 70 26 q 71 89 70 77 q 75 115 72 100 l 243 930 l 142 948 z "},"m":{"ha":1159,"x_min":64,"x_max":1086,"o":"m 64 -3 l 170 509 q 176 545 176 539 q 159 570 176 562 q 80 578 143 578 l 82 604 q 227 635 172 635 q 280 619 260 635 q 299 572 299 602 q 299 564 299 568 q 298 553 298 559 q 530 637 427 637 q 670 541 645 637 q 921 637 809 637 q 1030 599 992 637 q 1067 496 1067 562 q 1060 433 1067 463 l 990 111 q 988 98 989 104 q 987 87 987 92 q 1010 51 987 60 q 1086 43 1032 43 l 1084 16 q 949 -12 1000 -12 q 888 7 909 -12 q 866 67 866 26 q 867 89 866 77 q 871 115 869 100 l 936 408 q 942 463 942 437 q 921 529 942 507 q 850 552 899 552 q 675 494 768 552 q 669 433 674 464 l 581 3 l 458 -3 l 543 408 q 550 463 550 437 q 530 529 550 507 q 459 552 509 552 q 287 496 380 552 l 186 3 l 64 -3 z "},"n":{"ha":774,"x_min":64,"x_max":701,"o":"m 64 -3 l 170 509 q 176 545 176 538 q 160 571 176 564 q 80 578 144 578 l 82 604 q 227 635 173 635 q 280 619 260 635 q 299 572 299 602 q 298 553 299 564 q 534 637 430 637 q 644 599 606 637 q 683 496 683 561 q 675 433 683 465 l 606 111 q 604 98 604 104 q 603 87 603 92 q 625 51 603 60 q 701 43 648 43 l 699 16 q 562 -12 613 -12 q 501 7 522 -12 q 479 67 479 26 q 485 115 479 86 l 551 408 q 557 463 557 437 q 536 529 557 505 q 463 552 514 552 q 287 496 382 552 l 186 3 l 64 -3 z "},"o":{"ha":727,"x_min":54,"x_max":667,"o":"m 393 636 q 592 561 517 636 q 667 358 667 486 q 572 92 667 197 q 329 -14 478 -14 q 128 61 202 -14 q 54 260 54 136 q 147 530 54 423 q 393 636 240 636 m 385 579 q 238 484 294 579 q 183 254 182 388 q 224 99 184 155 q 337 43 264 43 q 484 141 431 43 q 538 368 538 239 q 497 524 538 468 q 385 579 456 579 z "},"p":{"ha":725,"x_min":-87,"x_max":670,"o":"m -84 -302 l -9 -279 q 12 -258 9 -273 q 25 -195 18 -233 q 43 -108 33 -158 l 170 509 q 175 545 175 539 q 159 570 175 562 q 79 578 142 578 l 81 604 q 226 635 172 635 q 279 619 260 635 q 298 572 298 602 q 298 565 298 569 q 297 557 298 561 l 298 557 q 484 635 441 635 q 616 572 562 635 q 670 403 670 508 q 559 104 670 226 q 277 -17 448 -17 q 181 -7 232 -17 l 151 -157 q 139 -215 143 -191 q 132 -252 134 -238 q 146 -277 130 -273 l 237 -302 l 233 -330 q 71 -328 128 -328 q -87 -330 3 -328 l -84 -302 m 194 50 q 283 39 239 39 q 472 142 401 39 q 543 372 543 245 q 515 496 543 446 q 438 547 488 547 q 286 503 374 547 l 194 50 z "},"q":{"ha":708,"x_min":46,"x_max":656,"o":"m 243 -302 l 326 -279 q 348 -258 343 -273 q 421 96 366 -176 q 306 12 353 39 q 237 -15 257 -15 q 98 52 149 -15 q 46 216 46 119 q 154 515 46 394 q 427 637 262 637 q 570 612 490 637 q 649 636 604 619 l 656 631 q 635 549 648 600 q 587 330 623 498 l 495 -116 q 467 -256 472 -228 q 479 -279 465 -275 l 554 -302 l 550 -330 q 399 -328 465 -328 q 240 -330 331 -328 l 243 -302 m 515 555 q 417 584 467 584 q 244 479 315 584 q 174 249 174 375 q 201 126 174 176 q 279 76 229 76 q 334 94 295 76 q 434 157 373 113 l 515 555 z "},"r":{"ha":537,"x_min":64,"x_max":545,"o":"m 64 -3 l 170 509 q 176 545 176 538 q 160 571 176 564 q 80 578 144 578 l 82 604 q 227 635 173 635 q 280 619 260 635 q 299 572 299 602 q 298 553 299 568 q 541 637 436 637 l 545 632 q 501 418 523 532 l 474 414 q 441 506 458 479 q 384 532 423 532 q 288 503 345 532 l 186 3 l 64 -3 z "},"s":{"ha":587,"x_min":10,"x_max":551,"o":"m 441 568 q 357 580 405 580 q 246 552 289 580 q 203 478 203 524 q 215 435 203 453 q 246 402 227 416 q 291 377 265 388 q 343 354 316 366 q 401 327 372 341 q 453 295 430 313 q 489 251 475 276 q 503 191 503 227 q 424 41 503 96 q 217 -14 344 -14 q 10 29 112 -14 q 51 203 33 111 l 77 208 l 121 57 q 227 42 168 42 q 333 71 293 42 q 374 152 374 100 q 363 190 374 174 q 334 218 352 205 q 294 242 317 231 q 245 264 271 254 q 189 291 217 277 q 139 325 161 305 q 103 372 117 345 q 90 437 90 399 q 169 583 90 529 q 374 636 248 636 q 551 604 466 636 q 513 437 532 536 l 486 433 l 441 568 z "},"t":{"ha":500,"x_min":83,"x_max":503,"o":"m 300 551 q 252 348 272 438 q 217 189 232 258 q 209 127 209 149 q 232 76 209 94 q 300 58 254 58 q 410 74 343 58 l 414 43 q 309 3 366 18 q 204 -12 252 -12 q 114 15 145 -12 q 83 96 83 43 q 90 151 83 117 q 123 315 102 216 q 178 553 145 414 l 87 574 l 89 603 l 200 612 l 273 782 q 349 802 307 790 l 354 798 q 311 612 332 707 l 503 612 l 490 551 l 300 551 z "},"u":{"ha":772,"x_min":69,"x_max":701,"o":"m 580 614 l 701 622 l 600 130 q 594 92 594 106 q 615 52 594 62 q 692 43 637 41 l 690 16 q 561 -12 604 -12 q 498 11 522 -12 q 475 78 475 33 q 476 103 475 90 q 254 -15 350 -15 q 136 31 178 -15 q 95 159 95 77 q 104 238 95 196 l 160 510 q 164 530 162 522 q 165 545 165 538 q 149 570 165 562 q 69 578 133 578 l 72 604 q 216 635 163 635 q 270 620 251 635 q 290 570 290 604 q 287 542 290 554 l 220 237 q 213 182 213 206 q 239 104 213 131 q 315 77 265 77 q 486 161 380 77 l 580 614 z "},"v":{"ha":635,"x_min":-1,"x_max":625,"o":"m 292 134 q 372 243 336 188 q 434 357 408 299 q 475 475 460 414 q 490 600 490 536 q 617 636 554 616 l 625 631 q 605 533 625 588 q 555 418 586 478 q 484 295 524 357 q 402 176 444 233 q 321 72 361 119 q 252 -9 282 24 l 197 -14 q 176 150 187 72 q 151 312 165 229 q 141 372 147 337 q 128 441 136 407 q 112 506 121 475 q 91 550 102 536 q 76 564 83 558 q 58 572 68 569 q 33 576 47 574 q -1 578 19 578 l 1 604 q 146 635 92 635 q 189 626 174 635 q 213 598 205 616 q 225 556 219 582 q 238 498 232 530 q 251 431 245 467 q 262 362 256 396 q 272 297 267 328 q 279 241 276 266 q 286 191 283 219 q 292 134 289 162 z "},"w":{"ha":966,"x_min":-1,"x_max":954,"o":"m 628 134 q 706 243 671 188 q 765 357 741 299 q 804 475 790 414 q 819 600 819 536 q 946 636 886 616 l 954 631 q 935 533 954 588 q 885 418 916 478 q 815 295 854 357 q 735 176 776 233 q 656 72 695 119 q 588 -9 617 24 l 533 -14 q 488 345 517 178 q 253 -9 403 186 l 197 -14 q 176 150 187 72 q 151 312 165 229 q 141 372 147 337 q 128 441 136 407 q 112 506 121 475 q 91 550 102 536 q 76 564 83 558 q 58 572 68 569 q 33 576 47 574 q -1 578 19 578 l 1 604 q 146 635 90 635 q 189 626 174 635 q 213 598 205 616 q 225 556 219 582 q 238 498 232 530 q 251 431 245 467 q 262 362 256 396 q 272 296 267 328 q 279 241 276 265 q 292 135 289 162 q 472 435 397 283 q 438 602 458 519 q 545 627 497 614 l 552 623 q 569 534 560 585 q 587 430 578 484 q 604 327 596 377 q 616 241 611 277 q 628 134 625 162 z "},"x":{"ha":689,"x_min":-14,"x_max":695,"o":"m 654 505 q 598 514 624 514 q 555 507 576 514 q 511 481 534 500 q 461 430 488 463 q 399 346 434 397 q 457 213 429 277 q 507 102 485 149 q 525 70 517 81 q 544 52 533 58 q 573 45 555 46 q 618 43 590 43 l 616 16 q 480 -12 530 -12 q 438 -2 456 -12 q 406 41 420 9 q 365 133 387 81 q 320 238 343 184 q 235 119 270 167 q 170 42 200 71 q 108 1 139 14 q 35 -11 77 -11 q -14 -6 10 -11 q 22 116 4 65 l 26 118 q 85 111 56 111 q 131 118 109 111 q 176 143 152 124 q 228 198 199 162 q 296 293 257 233 q 271 351 284 320 q 245 412 258 381 q 220 470 232 442 q 197 522 208 498 q 178 552 188 541 q 154 569 168 564 q 124 576 140 574 q 85 578 107 578 l 87 604 q 226 635 179 635 q 256 630 245 635 q 276 616 267 625 q 291 592 284 606 q 307 561 298 578 q 339 486 321 527 q 376 400 357 445 q 454 508 421 464 q 518 579 488 552 q 579 619 549 607 q 648 631 610 631 q 695 628 675 631 q 657 508 682 574 l 654 505 z "},"y":{"ha":667,"x_min":-37,"x_max":651,"o":"m 513 599 q 645 636 581 616 l 651 631 q 587 444 624 534 q 510 275 550 355 q 430 127 470 195 q 358 4 391 58 q 278 -144 311 -71 q 220 -275 245 -216 q 201 -310 210 -298 q 177 -330 191 -323 q 143 -338 163 -336 q 94 -340 123 -340 q -34 -334 22 -340 l -37 -308 q 33 -291 2 -303 q 87 -260 64 -279 q 117 -232 101 -250 q 156 -184 133 -214 q 208 -110 178 -155 q 279 0 238 -66 l 254 6 q 239 92 249 43 q 217 194 230 141 q 190 301 204 248 q 161 400 176 355 q 133 481 146 446 q 110 532 120 516 q 87 557 99 547 q 62 570 76 566 q 31 576 47 574 q -6 578 14 578 l -4 604 q 142 635 85 635 q 186 626 169 635 q 213 598 203 616 q 235 550 222 581 q 260 478 248 518 q 286 391 273 438 q 311 295 299 344 q 331 197 322 245 q 345 104 340 148 q 455 345 415 223 q 513 599 496 467 z "},"z":{"ha":675,"x_min":1,"x_max":653,"o":"m 1 14 q 232 282 140 172 q 466 567 323 391 l 217 567 l 140 420 l 113 416 q 112 615 115 534 l 116 622 q 384 619 254 619 q 651 622 508 619 l 653 607 q 425 338 532 469 q 194 54 318 208 l 452 54 l 561 205 l 590 210 q 553 3 570 104 l 547 -2 q 260 0 422 0 q 4 -2 120 0 l 1 14 z "},"à":{"ha":713,"x_min":47,"x_max":651,"o":"m 651 631 q 629 549 642 600 q 582 330 616 498 l 539 118 q 536 92 536 104 q 558 52 536 62 q 635 43 579 41 l 633 16 q 503 -12 545 -12 q 440 11 464 -12 q 417 78 417 34 q 418 100 417 85 q 302 13 350 40 q 234 -15 254 -15 q 97 52 147 -15 q 47 218 47 119 q 153 516 47 395 q 422 637 260 637 q 566 612 485 637 q 644 636 599 619 l 651 631 m 509 555 q 412 584 460 584 q 243 479 313 584 q 174 249 174 375 q 201 126 174 176 q 277 76 228 76 q 330 94 292 76 q 427 157 368 113 l 509 555 m 470 708 l 425 708 l 300 961 l 431 961 l 470 708 m 76 636 z "},"á":{"ha":713,"x_min":47,"x_max":651,"o":"m 651 631 q 629 549 642 600 q 582 330 616 498 l 539 118 q 536 92 536 104 q 558 52 536 62 q 635 43 579 41 l 633 16 q 503 -12 545 -12 q 440 11 464 -12 q 417 78 417 34 q 418 100 417 85 q 302 13 350 40 q 234 -15 254 -15 q 97 52 147 -15 q 47 218 47 119 q 153 516 47 395 q 422 637 260 637 q 566 612 485 637 q 644 636 599 619 l 651 631 m 509 555 q 412 584 460 584 q 243 479 313 584 q 174 249 174 375 q 201 126 174 176 q 277 76 228 76 q 330 94 292 76 q 427 157 368 113 l 509 555 m 509 961 l 650 961 l 438 708 l 391 708 l 509 961 m 76 636 z "},"â":{"ha":713,"x_min":47,"x_max":651,"o":"m 651 631 q 629 549 642 600 q 582 330 616 498 l 539 118 q 536 92 536 104 q 558 52 536 62 q 635 43 579 41 l 633 16 q 503 -12 545 -12 q 440 11 464 -12 q 417 78 417 34 q 418 100 417 85 q 302 13 350 40 q 234 -15 254 -15 q 97 52 147 -15 q 47 218 47 119 q 153 516 47 395 q 422 637 260 637 q 566 612 485 637 q 644 636 599 619 l 651 631 m 509 555 q 412 584 460 584 q 243 479 313 584 q 174 249 174 375 q 201 126 174 176 q 277 76 228 76 q 330 94 292 76 q 427 157 368 113 l 509 555 m 632 708 l 583 708 l 464 863 l 290 708 l 239 708 l 431 961 l 530 961 l 632 708 m 76 636 z "},"ã":{"ha":713,"x_min":47,"x_max":692,"o":"m 651 631 q 629 549 642 600 q 582 330 616 498 l 539 118 q 536 92 536 104 q 558 52 536 62 q 635 43 579 41 l 633 16 q 503 -12 545 -12 q 440 11 464 -12 q 417 78 417 34 q 418 100 417 85 q 302 13 350 40 q 234 -15 254 -15 q 97 52 147 -15 q 47 218 47 119 q 153 516 47 395 q 422 637 260 637 q 566 612 485 637 q 644 636 599 619 l 651 631 m 509 555 q 412 584 460 584 q 243 479 313 584 q 174 249 174 375 q 201 126 174 176 q 277 76 228 76 q 330 94 292 76 q 427 157 368 113 l 509 555 m 366 825 q 316 807 338 825 q 267 758 294 790 l 234 784 q 315 887 276 852 q 393 922 355 922 q 438 910 414 922 q 486 885 462 899 q 526 863 507 873 q 560 853 545 853 q 609 870 587 853 q 659 920 631 888 l 692 897 q 610 791 650 826 q 532 756 571 756 q 487 767 511 756 q 441 792 463 779 q 400 814 420 804 q 366 825 381 825 m 76 636 z "},"ä":{"ha":713,"x_min":47,"x_max":661,"o":"m 651 631 q 629 549 642 600 q 582 330 616 498 l 539 118 q 536 92 536 104 q 558 52 536 62 q 635 43 579 41 l 633 16 q 503 -12 545 -12 q 440 11 464 -12 q 417 78 417 34 q 418 100 417 85 q 302 13 350 40 q 234 -15 254 -15 q 97 52 147 -15 q 47 218 47 119 q 153 516 47 395 q 422 637 260 637 q 566 612 485 637 q 644 636 599 619 l 651 631 m 509 555 q 412 584 460 584 q 243 479 313 584 q 174 249 174 375 q 201 126 174 176 q 277 76 228 76 q 330 94 292 76 q 427 157 368 113 l 509 555 m 408 884 q 388 829 408 850 q 336 807 367 807 q 286 827 306 807 q 267 880 267 847 q 287 935 267 914 q 339 956 308 956 q 389 937 370 956 q 408 884 408 918 m 661 884 q 641 829 661 850 q 589 807 620 807 q 539 827 559 807 q 519 880 519 847 q 540 935 519 914 q 592 956 561 956 q 642 937 623 956 q 661 884 661 918 m 76 636 z "},"ā":{"ha":713,"x_min":47,"x_max":651,"o":"m 651 631 q 629 549 642 600 q 582 330 616 498 l 539 118 q 536 92 536 104 q 558 52 536 62 q 635 43 579 41 l 633 16 q 503 -12 545 -12 q 440 11 464 -12 q 417 78 417 34 q 418 100 417 85 q 302 13 350 40 q 234 -15 254 -15 q 97 52 147 -15 q 47 218 47 119 q 153 516 47 395 q 422 637 260 637 q 566 612 485 637 q 644 636 599 619 l 651 631 m 509 555 q 412 584 460 584 q 243 479 313 584 q 174 249 174 375 q 201 126 174 176 q 277 76 228 76 q 330 94 292 76 q 427 157 368 113 l 509 555 m 277 807 l 291 879 l 644 879 l 629 807 l 277 807 m 76 636 z "},"ă":{"ha":713,"x_min":47,"x_max":661,"o":"m 651 631 q 629 549 642 600 q 582 330 616 498 l 539 118 q 536 92 536 104 q 558 52 536 62 q 635 43 579 41 l 633 16 q 503 -12 545 -12 q 440 11 464 -12 q 417 78 417 34 q 418 100 417 85 q 302 13 350 40 q 234 -15 254 -15 q 97 52 147 -15 q 47 218 47 119 q 153 516 47 395 q 422 637 260 637 q 566 612 485 637 q 644 636 599 619 l 651 631 m 509 555 q 412 584 460 584 q 243 479 313 584 q 174 249 174 375 q 201 126 174 176 q 277 76 228 76 q 330 94 292 76 q 427 157 368 113 l 509 555 m 335 946 q 365 844 335 879 q 453 809 395 809 q 552 843 512 809 q 614 941 592 878 l 661 945 q 589 782 647 846 q 439 718 531 718 q 325 762 364 718 q 286 889 286 806 q 290 941 286 913 l 335 946 m 76 636 z "},"å":{"ha":713,"x_min":47,"x_max":651,"o":"m 651 631 q 629 549 642 600 q 582 330 616 498 l 539 118 q 536 92 536 104 q 558 52 536 62 q 635 43 579 41 l 633 16 q 503 -12 545 -12 q 440 11 464 -12 q 417 78 417 34 q 418 100 417 85 q 302 13 350 40 q 234 -15 254 -15 q 97 52 147 -15 q 47 218 47 119 q 153 516 47 395 q 422 637 260 637 q 566 612 485 637 q 644 636 599 619 l 651 631 m 509 555 q 412 584 460 584 q 243 479 313 584 q 174 249 174 375 q 201 126 174 176 q 277 76 228 76 q 330 94 292 76 q 427 157 368 113 l 509 555 m 439 708 q 341 736 377 708 q 304 814 304 764 q 357 923 304 880 q 478 966 409 966 q 573 936 534 966 q 611 857 611 907 q 561 750 611 791 q 439 708 511 708 m 446 749 q 511 778 486 749 q 535 851 535 806 q 519 904 535 884 q 471 924 503 924 q 405 895 429 924 q 380 821 380 866 q 397 770 380 790 q 446 749 414 749 m 76 636 z "},"ǻ":{"ha":713,"x_min":47,"x_max":709,"o":"m 651 631 q 629 549 642 600 q 582 330 616 498 l 539 118 q 536 92 536 104 q 558 52 536 62 q 635 43 579 41 l 633 16 q 503 -12 545 -12 q 440 11 464 -12 q 417 78 417 34 q 418 100 417 85 q 302 13 350 40 q 234 -15 254 -15 q 97 52 147 -15 q 47 218 47 119 q 153 516 47 395 q 422 637 260 637 q 566 612 485 637 q 644 636 599 619 l 651 631 m 509 555 q 412 584 460 584 q 243 479 313 584 q 174 249 174 375 q 201 126 174 176 q 277 76 228 76 q 330 94 292 76 q 427 157 368 113 l 509 555 m 437 696 q 339 725 375 696 q 302 803 302 753 q 355 911 302 868 q 476 954 407 954 q 571 925 532 954 q 609 846 609 895 q 559 738 609 780 q 437 696 509 696 m 444 738 q 509 766 484 738 q 533 840 533 795 q 517 892 533 872 q 469 913 500 913 q 403 884 427 913 q 378 810 378 854 q 395 758 378 779 q 444 738 412 738 m 74 625 m 569 1253 l 709 1253 l 498 1000 l 450 1000 l 569 1253 m 136 928 z "},"ą":{"ha":713,"x_min":47,"x_max":651,"o":"m 651 631 q 641 595 646 615 q 629 549 636 574 q 611 469 623 523 q 582 330 600 414 l 539 118 q 536 92 536 106 q 542 67 536 77 q 558 52 547 58 q 588 44 570 46 q 635 43 607 42 l 633 16 q 513 -12 560 -8 q 413 -171 413 -69 q 445 -247 413 -222 q 536 -273 477 -272 q 566 -271 551 -273 l 570 -298 q 420 -332 470 -332 q 332 -300 366 -332 q 299 -213 299 -267 q 455 -1 299 -92 q 417 79 417 22 q 418 100 417 83 q 302 13 350 40 q 234 -15 254 -15 q 97 52 147 -15 q 47 218 47 119 q 153 515 47 395 q 422 637 260 637 q 566 612 486 637 q 644 636 598 618 l 651 631 m 509 555 q 412 584 459 584 q 243 479 313 584 q 174 249 174 374 q 201 126 174 176 q 277 76 229 76 q 330 94 292 76 q 427 157 368 113 l 509 555 z "},"æ":{"ha":1011,"x_min":47,"x_max":984,"o":"m 568 296 q 565 250 565 272 q 608 116 565 163 q 728 68 650 68 q 910 119 817 68 l 925 95 q 807 15 879 45 q 665 -15 736 -15 q 452 135 512 -15 q 305 15 357 44 q 230 -15 254 -15 q 96 52 145 -15 q 47 218 47 119 q 152 516 47 395 q 416 637 256 637 q 628 585 509 637 q 812 637 713 637 q 940 601 895 637 q 984 508 984 566 q 858 353 983 405 q 568 296 732 301 m 406 584 q 242 479 309 584 q 174 249 174 375 q 200 126 174 176 q 273 76 226 76 q 441 176 318 76 q 437 232 437 203 q 554 525 437 397 q 406 584 469 584 m 575 345 q 792 396 720 355 q 865 503 865 437 q 843 559 865 538 q 784 579 821 579 q 657 516 715 579 q 575 345 600 454 z "},"ǽ":{"ha":1011,"x_min":47,"x_max":984,"o":"m 568 296 q 565 250 565 272 q 608 116 565 163 q 728 68 650 68 q 910 119 817 68 l 925 95 q 807 15 879 45 q 665 -15 736 -15 q 452 135 512 -15 q 305 15 357 44 q 230 -15 254 -15 q 96 52 145 -15 q 47 218 47 119 q 152 516 47 395 q 416 637 256 637 q 628 585 509 637 q 812 637 713 637 q 940 601 895 637 q 984 508 984 566 q 858 353 983 405 q 568 296 732 301 m 406 584 q 242 479 309 584 q 174 249 174 375 q 200 126 174 176 q 273 76 226 76 q 441 176 318 76 q 437 232 437 203 q 554 525 437 397 q 406 584 469 584 m 575 345 q 792 396 720 355 q 865 503 865 437 q 843 559 865 538 q 784 579 821 579 q 657 516 715 579 q 575 345 600 454 m 677 961 l 818 961 l 606 708 l 559 708 l 677 961 m 244 636 z "},"ć":{"ha":635,"x_min":50,"x_max":656,"o":"m 522 123 l 537 100 q 419 17 488 47 q 285 -14 350 -14 q 116 55 182 -14 q 50 244 50 125 q 165 524 50 411 q 442 636 280 636 q 611 600 530 636 q 570 418 586 505 l 543 414 l 492 572 q 432 580 463 580 q 249 488 321 580 q 178 265 178 397 q 223 120 178 171 q 351 68 268 68 q 522 123 426 68 m 515 961 l 656 961 l 444 708 l 397 708 l 515 961 m 82 636 z "},"ĉ":{"ha":635,"x_min":50,"x_max":638,"o":"m 522 123 l 537 100 q 419 17 488 47 q 285 -14 350 -14 q 116 55 182 -14 q 50 244 50 125 q 165 524 50 411 q 442 636 280 636 q 611 600 530 636 q 570 418 586 505 l 543 414 l 492 572 q 432 580 463 580 q 249 488 321 580 q 178 265 178 397 q 223 120 178 171 q 351 68 268 68 q 522 123 426 68 m 638 708 l 589 708 l 470 863 l 296 708 l 245 708 l 437 961 l 536 961 l 638 708 m 82 636 z "},"č":{"ha":635,"x_min":50,"x_max":680,"o":"m 522 123 l 537 100 q 419 17 488 47 q 285 -14 350 -14 q 116 55 182 -14 q 50 244 50 125 q 165 524 50 411 q 442 636 280 636 q 611 600 530 636 q 570 418 586 505 l 543 414 l 492 572 q 432 580 463 580 q 249 488 321 580 q 178 265 178 397 q 223 120 178 171 q 351 68 268 68 q 522 123 426 68 m 286 961 l 335 961 l 454 806 l 628 961 l 680 961 l 488 708 l 388 708 l 286 961 m 82 636 z "},"ċ":{"ha":635,"x_min":50,"x_max":611,"o":"m 522 123 l 537 100 q 419 17 488 47 q 285 -14 350 -14 q 116 55 182 -14 q 50 244 50 125 q 165 524 50 411 q 442 636 280 636 q 611 600 530 636 q 570 418 586 505 l 543 414 l 492 572 q 432 580 463 580 q 249 488 321 580 q 178 265 178 397 q 223 120 178 171 q 351 68 268 68 q 522 123 426 68 m 547 880 q 525 823 547 845 q 471 801 503 801 q 418 822 439 801 q 397 875 397 842 q 419 932 397 911 q 474 953 441 953 q 526 933 506 953 q 547 880 547 914 m 82 636 z "},"ç":{"ha":635,"x_min":50,"x_max":611,"o":"m 161 -124 l 247 -12 q 105 68 160 1 q 50 244 50 136 q 165 524 50 411 q 442 636 280 636 q 611 600 530 636 q 570 418 586 505 l 543 414 l 492 572 q 432 580 463 580 q 249 488 321 580 q 178 265 178 397 q 223 120 178 171 q 351 68 268 68 q 522 123 426 68 l 537 100 q 424 19 488 48 q 304 -14 359 -10 l 258 -74 q 328 -163 328 -107 q 191 -330 328 -237 l 168 -304 q 234 -204 234 -252 q 163 -130 234 -155 l 161 -124 z "},"ď":{"ha":814,"x_min":46,"x_max":931,"o":"m 492 948 l 492 972 q 727 1021 610 994 l 733 1013 q 703 883 721 962 q 667 709 686 803 l 545 118 q 543 92 543 104 q 564 52 543 62 q 641 43 585 41 l 639 16 q 509 -12 551 -12 q 447 11 470 -12 q 424 78 424 34 q 425 100 424 85 q 306 13 355 40 q 237 -15 257 -15 q 98 52 149 -15 q 46 218 46 119 q 156 515 46 395 q 431 635 265 635 q 530 627 476 635 l 593 930 l 492 948 m 515 557 q 416 583 465 583 q 244 479 315 583 q 174 249 174 375 q 201 126 174 176 q 279 76 229 76 q 334 94 295 76 q 434 157 373 113 l 515 557 m 761 701 q 831 840 831 772 q 772 928 831 897 q 797 982 774 962 q 852 1001 819 1001 q 909 976 887 1001 q 931 910 931 951 q 784 675 931 789 l 761 701 m 720 636 z "},"đ":{"ha":720,"x_min":46,"x_max":793,"o":"m 492 948 l 492 972 q 727 1021 610 994 l 733 1013 q 703 882 721 962 q 686 803 694 844 l 793 803 l 782 749 l 675 749 l 545 118 q 543 92 543 104 q 564 52 543 62 q 641 43 585 41 l 639 16 q 509 -12 551 -12 q 447 11 470 -12 q 424 78 424 34 q 425 100 424 85 q 306 13 355 40 q 237 -15 257 -15 q 98 52 149 -15 q 46 218 46 119 q 154 507 46 395 q 427 619 262 619 q 527 610 473 619 l 555 749 l 318 749 l 329 803 l 567 803 l 593 930 l 492 948 m 512 541 q 413 566 462 566 q 242 471 311 566 q 174 249 174 375 q 201 126 174 176 q 279 76 229 76 q 334 94 295 76 q 434 157 373 113 l 512 541 z "},"è":{"ha":621,"x_min":47,"x_max":594,"o":"m 178 296 q 175 250 175 272 q 218 116 175 163 q 338 68 260 68 q 520 119 427 68 l 535 95 q 417 15 489 45 q 275 -15 346 -15 q 110 54 173 -15 q 47 232 47 123 q 61 337 47 286 q 98 433 74 388 q 156 515 122 478 q 231 580 189 553 q 321 622 273 607 q 422 637 369 637 q 550 601 505 637 q 594 508 594 566 q 468 353 593 405 q 178 296 342 301 m 185 345 q 402 396 330 355 q 475 503 475 437 q 453 559 475 538 q 394 579 431 579 q 268 516 325 579 q 185 345 210 454 m 449 708 l 404 708 l 279 961 l 410 961 l 449 708 m 55 636 z "},"é":{"ha":621,"x_min":47,"x_max":629,"o":"m 178 296 q 175 250 175 272 q 218 116 175 163 q 338 68 260 68 q 520 119 427 68 l 535 95 q 417 15 489 45 q 275 -15 346 -15 q 110 54 173 -15 q 47 232 47 123 q 61 337 47 286 q 98 433 74 388 q 156 515 122 478 q 231 580 189 553 q 321 622 273 607 q 422 637 369 637 q 550 601 505 637 q 594 508 594 566 q 468 353 593 405 q 178 296 342 301 m 185 345 q 402 396 330 355 q 475 503 475 437 q 453 559 475 538 q 394 579 431 579 q 268 516 325 579 q 185 345 210 454 m 488 961 l 629 961 l 417 708 l 370 708 l 488 961 m 55 636 z "},"ê":{"ha":621,"x_min":47,"x_max":611,"o":"m 178 296 q 175 250 175 272 q 218 116 175 163 q 338 68 260 68 q 520 119 427 68 l 535 95 q 417 15 489 45 q 275 -15 346 -15 q 110 54 173 -15 q 47 232 47 123 q 61 337 47 286 q 98 433 74 388 q 156 515 122 478 q 231 580 189 553 q 321 622 273 607 q 422 637 369 637 q 550 601 505 637 q 594 508 594 566 q 468 353 593 405 q 178 296 342 301 m 185 345 q 402 396 330 355 q 475 503 475 437 q 453 559 475 538 q 394 579 431 579 q 268 516 325 579 q 185 345 210 454 m 611 708 l 562 708 l 443 863 l 269 708 l 218 708 l 410 961 l 509 961 l 611 708 m 55 636 z "},"ě":{"ha":621,"x_min":47,"x_max":652,"o":"m 178 296 q 175 250 175 272 q 218 116 175 163 q 338 68 260 68 q 520 119 427 68 l 535 95 q 417 15 489 45 q 275 -15 346 -15 q 110 54 173 -15 q 47 232 47 123 q 61 337 47 286 q 98 433 74 388 q 156 515 122 478 q 231 580 189 553 q 321 622 273 607 q 422 637 369 637 q 550 601 505 637 q 594 508 594 566 q 468 353 593 405 q 178 296 342 301 m 185 345 q 402 396 330 355 q 475 503 475 437 q 453 559 475 538 q 394 579 431 579 q 268 516 325 579 q 185 345 210 454 m 259 961 l 308 961 l 427 806 l 601 961 l 652 961 l 460 708 l 361 708 l 259 961 m 55 636 z "},"ë":{"ha":621,"x_min":47,"x_max":640,"o":"m 178 296 q 175 250 175 272 q 218 116 175 163 q 338 68 260 68 q 520 119 427 68 l 535 95 q 417 15 489 45 q 275 -15 346 -15 q 110 54 173 -15 q 47 232 47 123 q 61 337 47 286 q 98 433 74 388 q 156 515 122 478 q 231 580 189 553 q 321 622 273 607 q 422 637 369 637 q 550 601 505 637 q 594 508 594 566 q 468 353 593 405 q 178 296 342 301 m 185 345 q 402 396 330 355 q 475 503 475 437 q 453 559 475 538 q 394 579 431 579 q 268 516 325 579 q 185 345 210 454 m 387 884 q 367 829 387 850 q 315 807 346 807 q 265 827 285 807 q 245 880 245 847 q 266 935 245 914 q 318 956 287 956 q 368 937 349 956 q 387 884 387 918 m 640 884 q 620 829 640 850 q 568 807 599 807 q 518 827 538 807 q 498 880 498 847 q 519 935 498 914 q 571 956 540 956 q 621 937 602 956 q 640 884 640 918 m 55 636 z "},"ē":{"ha":621,"x_min":47,"x_max":623,"o":"m 178 296 q 175 250 175 272 q 218 116 175 163 q 338 68 260 68 q 520 119 427 68 l 535 95 q 417 15 489 45 q 275 -15 346 -15 q 110 54 173 -15 q 47 232 47 123 q 61 337 47 286 q 98 433 74 388 q 156 515 122 478 q 231 580 189 553 q 321 622 273 607 q 422 637 369 637 q 550 601 505 637 q 594 508 594 566 q 468 353 593 405 q 178 296 342 301 m 185 345 q 402 396 330 355 q 475 503 475 437 q 453 559 475 538 q 394 579 431 579 q 268 516 325 579 q 185 345 210 454 m 256 807 l 270 879 l 623 879 l 608 807 l 256 807 m 55 636 z "},"ĕ":{"ha":621,"x_min":47,"x_max":640,"o":"m 178 296 q 175 250 175 272 q 218 116 175 163 q 338 68 260 68 q 520 119 427 68 l 535 95 q 417 15 489 45 q 275 -15 346 -15 q 110 54 173 -15 q 47 232 47 123 q 61 337 47 286 q 98 433 74 388 q 156 515 122 478 q 231 580 189 553 q 321 622 273 607 q 422 637 369 637 q 550 601 505 637 q 594 508 594 566 q 468 353 593 405 q 178 296 342 301 m 185 345 q 402 396 330 355 q 475 503 475 437 q 453 559 475 538 q 394 579 431 579 q 268 516 325 579 q 185 345 210 454 m 314 946 q 344 844 314 879 q 432 809 374 809 q 531 843 491 809 q 593 941 571 878 l 640 945 q 568 782 626 846 q 418 718 510 718 q 304 762 343 718 q 264 889 264 806 q 269 941 264 913 l 314 946 m 55 636 z "},"ė":{"ha":621,"x_min":47,"x_max":594,"o":"m 178 296 q 175 250 175 272 q 218 116 175 163 q 338 68 260 68 q 520 119 427 68 l 535 95 q 417 15 489 45 q 275 -15 346 -15 q 110 54 173 -15 q 47 232 47 123 q 61 337 47 286 q 98 433 74 388 q 156 515 122 478 q 231 580 189 553 q 321 622 273 607 q 422 637 369 637 q 550 601 505 637 q 594 508 594 566 q 468 353 593 405 q 178 296 342 301 m 185 345 q 402 396 330 355 q 475 503 475 437 q 453 559 475 538 q 394 579 431 579 q 268 516 325 579 q 185 345 210 454 m 519 880 q 498 823 519 845 q 444 801 476 801 q 391 822 412 801 q 370 875 370 842 q 392 932 370 911 q 447 953 414 953 q 499 933 479 953 q 519 880 519 914 m 55 636 z "},"ę":{"ha":621,"x_min":47,"x_max":594,"o":"m 178 296 q 175 250 175 272 q 218 116 175 163 q 338 68 260 68 q 520 119 427 68 l 535 95 q 437 24 495 52 q 299 -171 299 -59 q 331 -247 299 -222 q 422 -273 363 -272 q 452 -271 438 -273 l 456 -298 q 306 -332 356 -332 q 218 -299 250 -332 q 185 -213 185 -267 q 317 -14 185 -102 l 317 -12 q 275 -15 295 -15 q 110 54 173 -15 q 47 232 47 123 q 61 337 47 286 q 98 433 74 388 q 156 515 122 478 q 231 580 189 553 q 321 622 273 607 q 422 637 369 637 q 550 601 505 637 q 594 508 594 566 q 468 353 593 405 q 178 296 342 301 m 185 345 q 402 396 330 355 q 475 503 475 437 q 453 559 475 538 q 394 579 431 579 q 268 516 325 579 q 185 345 210 454 z "},"ĝ":{"ha":706,"x_min":-21,"x_max":657,"o":"m 422 96 q 306 17 354 42 q 238 -8 258 -8 q 100 57 153 -8 q 47 220 47 123 q 155 517 47 397 q 428 637 262 637 q 572 612 490 637 q 608 622 588 615 q 650 636 627 628 l 657 631 q 648 594 653 615 q 637 548 642 574 q 618 469 631 524 q 588 330 606 414 l 549 138 q 488 -76 523 14 q 406 -224 452 -165 q 302 -310 360 -282 q 174 -337 245 -337 q -21 -302 90 -337 q 10 -174 -11 -239 l 15 -172 q 224 -264 155 -264 q 286 -248 260 -264 q 334 -196 312 -231 q 375 -103 356 -160 q 410 34 393 -47 l 422 96 m 517 555 q 418 584 469 584 q 246 481 317 584 q 175 254 175 378 q 202 132 175 180 q 280 83 229 83 q 435 157 323 83 l 517 555 m 637 708 l 589 708 l 469 863 l 296 708 l 244 708 l 436 961 l 536 961 l 637 708 m 81 636 z "},"ğ":{"ha":706,"x_min":-21,"x_max":667,"o":"m 422 96 q 306 17 354 42 q 238 -8 258 -8 q 100 57 153 -8 q 47 220 47 123 q 155 517 47 397 q 428 637 262 637 q 572 612 490 637 q 608 622 588 615 q 650 636 627 628 l 657 631 q 648 594 653 615 q 637 548 642 574 q 618 469 631 524 q 588 330 606 414 l 549 138 q 488 -76 523 14 q 406 -224 452 -165 q 302 -310 360 -282 q 174 -337 245 -337 q -21 -302 90 -337 q 10 -174 -11 -239 l 15 -172 q 224 -264 155 -264 q 286 -248 260 -264 q 334 -196 312 -231 q 375 -103 356 -160 q 410 34 393 -47 l 422 96 m 517 555 q 418 584 469 584 q 246 481 317 584 q 175 254 175 378 q 202 132 175 180 q 280 83 229 83 q 435 157 323 83 l 517 555 m 340 946 q 371 844 340 879 q 458 809 401 809 q 557 843 517 809 q 620 941 597 878 l 667 945 q 594 782 652 846 q 445 718 536 718 q 330 762 370 718 q 291 889 291 806 q 295 941 291 913 l 340 946 m 81 636 z "},"ġ":{"ha":706,"x_min":-21,"x_max":657,"o":"m 422 96 q 306 17 354 42 q 238 -8 258 -8 q 100 57 153 -8 q 47 220 47 123 q 155 517 47 397 q 428 637 262 637 q 572 612 490 637 q 608 622 588 615 q 650 636 627 628 l 657 631 q 648 594 653 615 q 637 548 642 574 q 618 469 631 524 q 588 330 606 414 l 549 138 q 488 -76 523 14 q 406 -224 452 -165 q 302 -310 360 -282 q 174 -337 245 -337 q -21 -302 90 -337 q 10 -174 -11 -239 l 15 -172 q 224 -264 155 -264 q 286 -248 260 -264 q 334 -196 312 -231 q 375 -103 356 -160 q 410 34 393 -47 l 422 96 m 517 555 q 418 584 469 584 q 246 481 317 584 q 175 254 175 378 q 202 132 175 180 q 280 83 229 83 q 435 157 323 83 l 517 555 m 546 880 q 524 823 546 845 q 470 801 503 801 q 417 822 438 801 q 397 875 397 842 q 418 932 397 911 q 473 953 440 953 q 526 933 505 953 q 546 880 546 914 m 81 636 z "},"ģ":{"ha":706,"x_min":-21,"x_max":678,"o":"m 422 96 q 306 17 354 42 q 238 -8 258 -8 q 100 57 153 -8 q 47 220 47 123 q 155 517 47 397 q 428 637 262 637 q 572 612 490 637 q 608 622 588 615 q 650 636 627 628 l 657 631 q 648 594 653 615 q 637 548 642 574 q 618 469 631 524 q 588 330 606 414 l 549 138 q 488 -76 523 14 q 406 -224 452 -165 q 302 -310 360 -282 q 174 -337 245 -337 q -21 -302 90 -337 q 10 -174 -11 -239 l 15 -172 q 224 -264 155 -264 q 286 -248 260 -264 q 334 -196 312 -231 q 375 -103 356 -160 q 410 34 393 -47 l 422 96 m 517 555 q 418 584 469 584 q 246 481 317 584 q 175 254 175 378 q 202 132 175 180 q 280 83 229 83 q 435 157 323 83 l 517 555 m 555 957 q 486 851 486 904 q 534 779 486 807 q 513 730 532 748 q 465 712 494 712 q 413 735 433 712 q 393 795 393 759 q 532 983 393 895 l 555 957 m 678 636 z "},"ĥ":{"ha":764,"x_min":-92,"x_max":691,"o":"m 54 -3 l 246 930 l 144 948 l 144 972 q 379 1021 260 994 l 385 1013 q 356 883 372 962 q 320 709 339 803 l 287 553 q 524 637 420 637 q 634 599 595 637 q 672 496 672 561 q 665 433 672 465 l 595 111 q 593 98 594 104 q 593 87 593 92 q 615 51 593 60 q 691 43 637 43 l 689 16 q 552 -12 602 -12 q 492 7 513 -12 q 471 67 471 26 q 477 115 471 86 l 541 408 q 547 462 547 437 q 526 528 547 505 q 453 552 504 552 q 276 496 371 552 l 174 3 l 54 -3 m 370 1236 l 549 1074 l 530 1043 l 332 1135 l 117 1043 l 100 1074 l 309 1236 l 370 1236 m -92 985 z "},"ħ":{"ha":764,"x_min":54,"x_max":691,"o":"m 54 -3 l 209 749 l 102 749 l 113 803 l 220 803 l 246 930 l 144 948 l 144 972 q 379 1021 260 994 l 385 1013 q 355 882 372 962 q 339 803 348 844 l 577 803 l 566 749 l 328 749 l 283 536 q 520 619 416 619 q 630 582 592 619 q 669 479 669 544 q 662 416 669 448 l 595 111 q 593 98 594 104 q 593 87 593 92 q 615 51 593 60 q 691 43 637 43 l 689 16 q 552 -12 602 -12 q 492 7 513 -12 q 471 67 471 26 q 477 115 471 86 l 537 391 q 543 445 543 419 q 522 511 543 488 q 450 535 500 535 q 272 479 368 535 l 174 3 l 54 -3 z "},"ì":{"ha":378,"x_min":-127,"x_max":300,"o":"m 205 111 q 201 87 201 98 q 224 51 201 60 q 300 43 246 43 l 298 16 q 161 -12 210 -12 q 101 7 123 -12 q 80 67 80 27 q 85 115 80 86 l 167 510 q 171 530 169 522 q 172 545 172 538 q 157 571 172 564 q 77 578 141 578 l 79 604 q 223 635 171 635 q 277 620 258 635 q 296 570 296 604 q 294 542 296 555 l 205 111 m 267 708 l 222 708 l 98 961 l 228 961 l 267 708 m -127 636 z "},"í":{"ha":378,"x_min":-127,"x_max":447,"o":"m 205 111 q 201 87 201 98 q 224 51 201 60 q 300 43 246 43 l 298 16 q 161 -12 210 -12 q 101 7 123 -12 q 80 67 80 27 q 85 115 80 86 l 167 510 q 171 530 169 522 q 172 545 172 538 q 157 571 172 564 q 77 578 141 578 l 79 604 q 223 635 171 635 q 277 620 258 635 q 296 570 296 604 q 294 542 296 555 l 205 111 m 307 961 l 447 961 l 235 708 l 188 708 l 307 961 m -127 636 z "},"î":{"ha":378,"x_min":-127,"x_max":429,"o":"m 205 111 q 201 87 201 98 q 224 51 201 60 q 300 43 246 43 l 298 16 q 161 -12 210 -12 q 101 7 123 -12 q 80 67 80 27 q 85 115 80 86 l 167 510 q 171 530 169 522 q 172 545 172 538 q 157 571 172 564 q 77 578 141 578 l 79 604 q 223 635 171 635 q 277 620 258 635 q 296 570 296 604 q 294 542 296 555 l 205 111 m 429 708 l 380 708 l 261 863 l 87 708 l 36 708 l 228 961 l 328 961 l 429 708 m -127 636 z "},"ĩ":{"ha":378,"x_min":-127,"x_max":490,"o":"m 205 111 q 201 87 201 98 q 224 51 201 60 q 300 43 246 43 l 298 16 q 161 -12 210 -12 q 101 7 123 -12 q 80 67 80 27 q 85 115 80 86 l 167 510 q 171 530 169 522 q 172 545 172 538 q 157 571 172 564 q 77 578 141 578 l 79 604 q 223 635 171 635 q 277 620 258 635 q 296 570 296 604 q 294 542 296 555 l 205 111 m 163 825 q 114 807 136 825 q 64 758 92 790 l 31 784 q 113 887 73 852 q 191 922 152 922 q 235 910 212 922 q 283 885 259 899 q 323 863 304 873 q 357 853 342 853 q 407 870 385 853 q 456 920 429 888 l 490 897 q 408 791 447 826 q 330 756 368 756 q 284 767 308 756 q 238 792 260 779 q 198 814 217 804 q 163 825 178 825 m -127 636 z "},"ï":{"ha":378,"x_min":-127,"x_max":458,"o":"m 205 111 q 201 87 201 98 q 224 51 201 60 q 300 43 246 43 l 298 16 q 161 -12 210 -12 q 101 7 123 -12 q 80 67 80 27 q 85 115 80 86 l 167 510 q 171 530 169 522 q 172 545 172 538 q 157 571 172 564 q 77 578 141 578 l 79 604 q 223 635 171 635 q 277 620 258 635 q 296 570 296 604 q 294 542 296 555 l 205 111 m 205 884 q 185 829 205 850 q 134 807 164 807 q 83 827 103 807 q 64 880 64 847 q 84 935 64 914 q 136 956 105 956 q 186 937 168 956 q 205 884 205 918 m 458 884 q 438 829 458 850 q 387 807 417 807 q 336 827 356 807 q 317 880 317 847 q 337 935 317 914 q 389 956 358 956 q 439 937 420 956 q 458 884 458 918 m -127 636 z "},"ī":{"ha":378,"x_min":-127,"x_max":441,"o":"m 205 111 q 201 87 201 98 q 224 51 201 60 q 300 43 246 43 l 298 16 q 161 -12 210 -12 q 101 7 123 -12 q 80 67 80 27 q 85 115 80 86 l 167 510 q 171 530 169 522 q 172 545 172 538 q 157 571 172 564 q 77 578 141 578 l 79 604 q 223 635 171 635 q 277 620 258 635 q 296 570 296 604 q 294 542 296 555 l 205 111 m 74 807 l 88 879 l 441 879 l 427 807 l 74 807 m -127 636 z "},"ĭ":{"ha":378,"x_min":-127,"x_max":458,"o":"m 205 111 q 201 87 201 98 q 224 51 201 60 q 300 43 246 43 l 298 16 q 161 -12 210 -12 q 101 7 123 -12 q 80 67 80 27 q 85 115 80 86 l 167 510 q 171 530 169 522 q 172 545 172 538 q 157 571 172 564 q 77 578 141 578 l 79 604 q 223 635 171 635 q 277 620 258 635 q 296 570 296 604 q 294 542 296 555 l 205 111 m 132 946 q 162 844 132 879 q 250 809 193 809 q 349 843 309 809 q 412 941 389 878 l 458 945 q 386 782 444 846 q 237 718 328 718 q 122 762 161 718 q 83 889 83 806 q 87 941 83 913 l 132 946 m -127 636 z "},"į":{"ha":378,"x_min":-29,"x_max":355,"o":"m 205 111 q 201 87 201 98 q 224 51 201 60 q 300 43 246 43 l 298 16 q 184 -11 229 -5 q 85 -171 85 -70 q 117 -247 85 -222 q 208 -273 149 -272 q 238 -271 222 -273 l 241 -298 q 92 -332 142 -332 q 4 -300 37 -332 q -29 -213 -29 -267 q 120 -5 -29 -94 l 120 -4 q 80 67 80 14 q 85 115 80 86 l 167 510 q 171 530 169 522 q 172 545 172 538 q 157 571 172 564 q 77 578 141 578 l 79 604 q 223 635 171 635 q 277 620 258 635 q 296 570 296 604 q 294 542 296 555 l 205 111 m 355 880 q 334 823 355 845 q 279 801 312 801 q 227 822 248 801 q 206 875 206 842 q 228 932 206 911 q 283 953 250 953 q 335 933 315 953 q 355 880 355 914 z "},"ı":{"ha":378,"x_min":77,"x_max":300,"o":"m 205 111 q 201 87 201 98 q 224 51 201 60 q 300 43 246 43 l 298 16 q 161 -12 210 -12 q 101 7 123 -12 q 80 67 80 27 q 85 115 80 86 l 167 510 q 171 530 169 522 q 172 545 172 538 q 157 571 172 564 q 77 578 141 578 l 79 604 q 223 635 171 635 q 277 620 258 635 q 296 570 296 604 q 294 542 296 555 l 205 111 z "},"ĳ":{"ha":742,"x_min":77,"x_max":736,"o":"m 205 111 q 201 87 201 98 q 224 51 201 60 q 300 43 246 43 l 298 16 q 161 -12 210 -12 q 101 7 123 -12 q 80 67 80 27 q 85 115 80 86 l 167 510 q 171 530 169 522 q 172 545 172 538 q 157 571 172 564 q 77 578 141 578 l 79 604 q 223 635 171 635 q 277 620 258 635 q 296 570 296 604 q 294 542 296 555 l 205 111 m 355 880 q 334 823 355 845 q 279 801 312 801 q 227 822 248 801 q 206 875 206 842 q 228 932 206 911 q 283 953 250 953 q 335 933 315 953 q 355 880 355 914 m 457 578 l 459 604 q 604 635 552 635 q 658 620 639 635 q 677 570 677 604 q 675 542 677 555 l 578 77 q 490 -144 552 -57 q 264 -341 428 -231 l 239 -313 q 406 -109 376 -180 q 456 62 435 -37 l 548 510 q 552 530 550 522 q 553 545 553 538 q 538 571 553 564 q 457 578 522 578 m 736 880 q 715 823 736 845 q 661 801 693 801 q 607 822 628 801 q 587 875 587 842 q 608 932 587 911 q 664 953 630 953 q 716 933 696 953 q 736 880 736 914 z "},"ĵ":{"ha":364,"x_min":-139,"x_max":424,"o":"m 79 578 l 81 604 q 227 635 174 635 q 280 620 261 635 q 300 570 300 604 q 297 542 300 555 l 201 77 q 112 -144 174 -57 q -113 -341 50 -231 l -139 -313 q 28 -109 -1 -180 q 78 62 58 -37 l 170 510 q 174 530 172 522 q 176 545 176 538 q 160 571 176 564 q 79 578 144 578 m 424 708 l 375 708 l 259 863 l 82 708 l 31 708 l 226 961 l 326 961 l 424 708 z "},"ķ":{"ha":711,"x_min":58,"x_max":730,"o":"m 58 -3 l 250 930 l 148 948 l 148 972 q 264 995 206 983 q 382 1021 323 1007 l 388 1013 q 359 883 376 962 q 323 709 342 803 l 178 3 l 58 -3 m 655 -2 q 523 0 562 0 q 495 0 511 0 q 458 -1 479 -1 q 380 155 428 70 q 267 343 333 241 q 532 620 484 532 q 573 619 557 619 q 730 621 617 619 l 728 593 q 667 577 692 585 q 625 563 643 570 q 588 544 606 555 q 546 512 570 533 l 390 374 l 547 113 q 591 52 573 68 q 659 26 610 37 l 655 -2 m 201 -304 q 269 -198 269 -251 q 222 -125 269 -154 q 242 -77 223 -95 q 290 -59 262 -59 q 342 -82 322 -59 q 362 -142 362 -106 q 224 -330 362 -241 l 201 -304 z "},"ĸ":{"ha":718,"x_min":64,"x_max":745,"o":"m 662 -2 q 530 0 569 0 q 502 0 517 0 q 465 -1 486 -1 q 388 155 435 70 q 273 343 340 241 q 546 627 498 540 q 587 627 571 627 q 745 629 631 627 l 742 601 q 682 585 707 592 q 640 570 657 578 q 603 551 621 562 q 560 519 585 541 l 397 374 l 555 113 q 599 52 581 68 q 667 26 616 37 l 662 -2 m 185 3 l 64 -3 l 170 510 q 174 530 172 522 q 176 545 176 538 q 160 571 176 564 q 80 578 144 578 l 82 604 q 227 635 174 635 q 280 620 261 635 q 299 570 299 604 q 296 542 299 555 l 185 3 z "},"ĺ":{"ha":374,"x_min":-92,"x_max":492,"o":"m 142 948 l 142 972 q 378 1021 260 994 l 383 1013 q 354 883 371 962 q 317 709 336 803 l 195 111 q 192 87 192 99 q 215 51 192 60 q 292 43 238 43 l 289 16 q 151 -12 202 -12 q 91 7 112 -12 q 70 67 70 26 q 71 89 70 77 q 75 115 72 100 l 243 930 l 142 948 m 492 1145 l 210 1044 l 194 1072 l 413 1236 l 492 1156 l 492 1145 m -92 985 z "},"ľ":{"ha":468,"x_min":70,"x_max":585,"o":"m 142 948 l 142 972 q 378 1021 260 994 l 383 1013 q 354 883 371 962 q 317 709 336 803 l 195 111 q 192 87 192 99 q 215 51 192 60 q 292 43 238 43 l 289 16 q 151 -12 202 -12 q 91 7 112 -12 q 70 67 70 26 q 71 89 70 77 q 75 115 72 100 l 243 930 l 142 948 m 415 701 q 486 840 486 772 q 427 928 486 897 q 451 982 429 962 q 506 1001 473 1001 q 563 976 541 1001 q 585 910 585 951 q 438 675 585 789 l 415 701 z "},"ļ":{"ha":374,"x_min":38,"x_max":383,"o":"m 142 948 l 142 972 q 378 1021 260 994 l 383 1013 q 354 883 371 962 q 317 709 336 803 l 195 111 q 192 87 192 99 q 215 51 192 60 q 292 43 238 43 l 289 16 q 151 -12 202 -12 q 91 7 112 -12 q 70 67 70 26 q 71 89 70 77 q 75 115 72 100 l 243 930 l 142 948 m 38 -304 q 106 -198 106 -251 q 59 -125 106 -154 q 80 -77 60 -95 q 127 -59 99 -59 q 179 -82 159 -59 q 199 -142 199 -106 q 61 -330 199 -241 l 38 -304 z "},"ł":{"ha":374,"x_min":37,"x_max":412,"o":"m 45 511 l 164 547 l 243 930 l 142 948 l 142 972 q 378 1021 260 994 l 383 1013 q 354 883 371 962 q 317 709 336 803 l 291 585 l 412 621 l 404 562 l 279 524 l 195 111 q 192 87 192 99 q 215 51 192 60 q 292 43 238 43 l 289 16 q 151 -12 202 -12 q 91 7 112 -12 q 70 67 70 26 q 71 89 70 77 q 75 115 72 100 l 151 484 l 37 450 l 45 511 z "},"ŀ":{"ha":449,"x_min":46,"x_max":511,"o":"m 142 948 l 142 972 q 378 1021 260 994 l 383 1013 q 354 883 371 962 q 317 709 336 803 l 195 111 q 192 87 192 99 q 215 51 192 60 q 292 43 238 43 l 289 16 q 151 -12 202 -12 q 91 7 112 -12 q 70 67 70 26 q 71 89 70 77 q 75 115 72 100 l 243 930 l 142 948 m 511 490 q 489 433 511 455 q 435 411 467 411 q 382 432 403 411 q 361 485 361 452 q 383 542 361 521 q 438 563 405 563 q 490 544 470 563 q 511 490 511 524 m 46 246 z "},"ń":{"ha":774,"x_min":64,"x_max":701,"o":"m 64 -3 l 170 509 q 176 545 176 538 q 160 571 176 564 q 80 578 144 578 l 82 604 q 227 635 173 635 q 280 619 260 635 q 299 572 299 602 q 298 553 299 564 q 534 637 430 637 q 644 599 606 637 q 683 496 683 561 q 675 433 683 465 l 606 111 q 604 98 604 104 q 603 87 603 92 q 625 51 603 60 q 701 43 648 43 l 699 16 q 562 -12 613 -12 q 501 7 522 -12 q 479 67 479 26 q 485 115 479 86 l 551 408 q 557 463 557 437 q 536 529 557 505 q 463 552 514 552 q 287 496 382 552 l 186 3 l 64 -3 m 526 961 l 667 961 l 455 708 l 408 708 l 526 961 m 93 636 z "},"ň":{"ha":774,"x_min":64,"x_max":701,"o":"m 64 -3 l 170 509 q 176 545 176 538 q 160 571 176 564 q 80 578 144 578 l 82 604 q 227 635 173 635 q 280 619 260 635 q 299 572 299 602 q 298 553 299 564 q 534 637 430 637 q 644 599 606 637 q 683 496 683 561 q 675 433 683 465 l 606 111 q 604 98 604 104 q 603 87 603 92 q 625 51 603 60 q 701 43 648 43 l 699 16 q 562 -12 613 -12 q 501 7 522 -12 q 479 67 479 26 q 485 115 479 86 l 551 408 q 557 463 557 437 q 536 529 557 505 q 463 552 514 552 q 287 496 382 552 l 186 3 l 64 -3 m 302 961 l 351 961 l 471 806 l 644 961 l 696 961 l 504 708 l 404 708 l 302 961 m 98 636 z "},"ñ":{"ha":774,"x_min":64,"x_max":715,"o":"m 64 -3 l 170 509 q 176 545 176 538 q 160 571 176 564 q 80 578 144 578 l 82 604 q 227 635 173 635 q 280 619 260 635 q 299 572 299 602 q 298 553 299 564 q 534 637 430 637 q 644 599 606 637 q 683 496 683 561 q 675 433 683 465 l 606 111 q 604 98 604 104 q 603 87 603 92 q 625 51 603 60 q 701 43 648 43 l 699 16 q 562 -12 613 -12 q 501 7 522 -12 q 479 67 479 26 q 485 115 479 86 l 551 408 q 557 463 557 437 q 536 529 557 505 q 463 552 514 552 q 287 496 382 552 l 186 3 l 64 -3 m 388 825 q 339 807 361 825 q 290 758 317 790 l 256 784 q 338 887 298 852 q 416 922 377 922 q 460 910 437 922 q 508 885 484 899 q 549 863 530 873 q 583 853 568 853 q 632 870 610 853 q 681 920 654 888 l 715 897 q 633 791 672 826 q 555 756 593 756 q 509 767 533 756 q 463 792 486 779 q 423 814 442 804 q 388 825 404 825 m 98 636 z "},"ņ":{"ha":774,"x_min":64,"x_max":701,"o":"m 64 -3 l 170 509 q 176 545 176 538 q 160 571 176 564 q 80 578 144 578 l 82 604 q 227 635 173 635 q 280 619 260 635 q 299 572 299 602 q 298 553 299 564 q 534 637 430 637 q 644 599 606 637 q 683 496 683 561 q 675 433 683 465 l 606 111 q 604 98 604 104 q 603 87 603 92 q 625 51 603 60 q 701 43 648 43 l 699 16 q 562 -12 613 -12 q 501 7 522 -12 q 479 67 479 26 q 485 115 479 86 l 551 408 q 557 463 557 437 q 536 529 557 505 q 463 552 514 552 q 287 496 382 552 l 186 3 l 64 -3 m 228 -304 q 296 -198 296 -251 q 249 -125 296 -154 q 270 -77 250 -95 q 317 -59 289 -59 q 369 -82 349 -59 q 389 -142 389 -106 q 251 -330 389 -241 l 228 -304 z "},"ŉ":{"ha":890,"x_min":70,"x_max":817,"o":"m 180 -3 l 286 509 q 291 545 291 538 q 275 571 291 564 q 195 578 260 578 l 197 604 q 342 635 288 635 q 395 619 376 635 q 414 572 414 602 q 413 553 414 564 q 649 637 545 637 q 760 599 721 637 q 798 496 798 561 q 791 433 798 465 l 721 111 q 719 98 720 104 q 718 87 718 92 q 741 51 718 60 q 817 43 763 43 l 814 16 q 677 -12 728 -12 q 616 7 637 -12 q 595 67 595 26 q 600 115 595 86 l 667 408 q 673 463 673 437 q 651 529 673 505 q 578 552 629 552 q 402 496 497 552 l 302 3 l 180 -3 m 70 694 q 178 852 178 772 q 123 941 178 907 q 149 1000 125 977 q 205 1022 172 1022 q 262 997 240 1022 q 284 928 284 971 q 92 664 284 786 l 70 694 z "},"ò":{"ha":727,"x_min":54,"x_max":667,"o":"m 393 636 q 592 561 517 636 q 667 358 667 486 q 572 92 667 197 q 329 -14 478 -14 q 128 61 202 -14 q 54 260 54 136 q 147 530 54 423 q 393 636 240 636 m 385 579 q 238 484 294 579 q 183 254 182 388 q 224 99 184 155 q 337 43 264 43 q 484 141 431 43 q 538 368 538 239 q 497 524 538 468 q 385 579 456 579 m 448 708 l 402 708 l 278 961 l 408 961 l 448 708 m 54 636 z "},"ó":{"ha":727,"x_min":54,"x_max":667,"o":"m 393 636 q 592 561 517 636 q 667 358 667 486 q 572 92 667 197 q 329 -14 478 -14 q 128 61 202 -14 q 54 260 54 136 q 147 530 54 423 q 393 636 240 636 m 385 579 q 238 484 294 579 q 183 254 182 388 q 224 99 184 155 q 337 43 264 43 q 484 141 431 43 q 538 368 538 239 q 497 524 538 468 q 385 579 456 579 m 487 961 l 627 961 l 416 708 l 368 708 l 487 961 m 54 636 z "},"ô":{"ha":727,"x_min":54,"x_max":667,"o":"m 393 636 q 592 561 517 636 q 667 358 667 486 q 572 92 667 197 q 329 -14 478 -14 q 128 61 202 -14 q 54 260 54 136 q 147 530 54 423 q 393 636 240 636 m 385 579 q 238 484 294 579 q 183 254 182 388 q 224 99 184 155 q 337 43 264 43 q 484 141 431 43 q 538 368 538 239 q 497 524 538 468 q 385 579 456 579 m 610 708 l 561 708 l 441 863 l 268 708 l 216 708 l 408 961 l 508 961 l 610 708 m 54 636 z "},"õ":{"ha":727,"x_min":54,"x_max":670,"o":"m 393 636 q 592 561 517 636 q 667 358 667 486 q 572 92 667 197 q 329 -14 478 -14 q 128 61 202 -14 q 54 260 54 136 q 147 530 54 423 q 393 636 240 636 m 385 579 q 238 484 294 579 q 183 254 182 388 q 224 99 184 155 q 337 43 264 43 q 484 141 431 43 q 538 368 538 239 q 497 524 538 468 q 385 579 456 579 m 343 825 q 294 807 316 825 q 245 758 272 790 l 212 784 q 293 887 254 852 q 371 922 332 922 q 416 910 392 922 q 463 885 439 899 q 504 863 485 873 q 538 853 523 853 q 587 870 565 853 q 636 920 609 888 l 670 897 q 588 791 627 826 q 510 756 549 756 q 465 767 488 756 q 418 792 441 779 q 378 814 397 804 q 343 825 359 825 m 54 636 z "},"ö":{"ha":727,"x_min":54,"x_max":667,"o":"m 393 636 q 592 561 517 636 q 667 358 667 486 q 572 92 667 197 q 329 -14 478 -14 q 128 61 202 -14 q 54 260 54 136 q 147 530 54 423 q 393 636 240 636 m 385 579 q 238 484 294 579 q 183 254 182 388 q 224 99 184 155 q 337 43 264 43 q 484 141 431 43 q 538 368 538 239 q 497 524 538 468 q 385 579 456 579 m 386 884 q 365 829 386 850 q 314 807 345 807 q 264 827 283 807 q 244 880 244 847 q 265 935 244 914 q 317 956 286 956 q 367 937 348 956 q 386 884 386 918 m 639 884 q 618 829 639 850 q 567 807 597 807 q 517 827 536 807 q 497 880 497 847 q 518 935 497 914 q 570 956 538 956 q 620 937 600 956 q 639 884 639 918 m 54 636 z "},"ō":{"ha":727,"x_min":54,"x_max":667,"o":"m 393 636 q 592 561 517 636 q 667 358 667 486 q 572 92 667 197 q 329 -14 478 -14 q 128 61 202 -14 q 54 260 54 136 q 147 530 54 423 q 393 636 240 636 m 385 579 q 238 484 294 579 q 183 254 182 388 q 224 99 184 155 q 337 43 264 43 q 484 141 431 43 q 538 368 538 239 q 497 524 538 468 q 385 579 456 579 m 254 807 l 269 879 l 621 879 l 607 807 l 254 807 m 54 636 z "},"ŏ":{"ha":727,"x_min":54,"x_max":667,"o":"m 393 636 q 592 561 517 636 q 667 358 667 486 q 572 92 667 197 q 329 -14 478 -14 q 128 61 202 -14 q 54 260 54 136 q 147 530 54 423 q 393 636 240 636 m 385 579 q 238 484 294 579 q 183 254 182 388 q 224 99 184 155 q 337 43 264 43 q 484 141 431 43 q 538 368 538 239 q 497 524 538 468 q 385 579 456 579 m 313 946 q 343 844 313 879 q 431 809 373 809 q 530 843 490 809 q 592 941 570 878 l 639 945 q 566 782 625 846 q 417 718 509 718 q 302 762 342 718 q 263 889 263 806 q 267 941 263 913 l 313 946 m 54 636 z "},"ő":{"ha":727,"x_min":54,"x_max":721,"o":"m 393 636 q 592 561 517 636 q 667 358 667 486 q 572 92 667 197 q 329 -14 478 -14 q 128 61 202 -14 q 54 260 54 136 q 147 530 54 423 q 393 636 240 636 m 385 579 q 238 484 294 579 q 183 254 182 388 q 224 99 184 155 q 337 43 264 43 q 484 141 431 43 q 538 368 538 239 q 497 524 538 468 q 385 579 456 579 m 382 961 l 516 961 l 321 708 l 273 708 l 382 961 m 587 961 l 721 961 l 524 708 l 477 708 l 587 961 m 54 636 z "},"ø":{"ha":727,"x_min":54,"x_max":667,"o":"m 104 -48 l 64 -19 l 128 61 q 54 260 54 136 q 147 530 54 423 q 393 636 240 636 q 555 591 489 636 l 615 666 l 654 636 l 593 560 q 667 358 667 485 q 572 92 667 197 q 329 -14 478 -14 q 166 30 232 -14 l 104 -48 m 499 522 q 385 581 458 581 q 237 484 294 581 q 181 254 180 388 q 197 147 181 193 l 499 522 m 222 99 q 337 42 264 42 q 485 141 431 42 q 540 368 540 239 q 524 475 540 429 l 222 99 z "},"ǿ":{"ha":727,"x_min":54,"x_max":667,"o":"m 104 -48 l 64 -19 l 128 61 q 54 260 54 136 q 147 530 54 423 q 393 636 240 636 q 555 591 489 636 l 615 666 l 654 636 l 593 560 q 667 358 667 485 q 572 92 667 197 q 329 -14 478 -14 q 166 30 232 -14 l 104 -48 m 499 522 q 385 581 458 581 q 237 484 294 581 q 181 254 180 388 q 197 147 181 193 l 499 522 m 222 99 q 337 42 264 42 q 485 141 431 42 q 540 368 540 239 q 524 475 540 429 l 222 99 m 487 961 l 627 961 l 416 708 l 368 708 l 487 961 m 54 636 z "},"œ":{"ha":1093,"x_min":54,"x_max":1065,"o":"m 649 296 q 646 250 646 272 q 689 116 646 163 q 810 68 732 68 q 991 119 899 68 l 1006 95 q 889 15 960 45 q 747 -15 817 -15 q 556 86 623 -15 q 323 -14 465 -14 q 127 61 199 -14 q 54 260 54 136 q 145 530 54 423 q 387 636 237 636 q 621 508 549 636 q 893 637 736 637 q 1021 601 977 637 q 1065 508 1065 566 q 939 353 1065 405 q 649 296 813 301 m 378 579 q 237 484 291 579 q 183 254 182 388 q 223 99 184 155 q 332 43 262 43 q 476 141 424 43 q 528 368 528 239 q 488 524 528 468 q 378 579 448 579 m 656 345 q 873 396 801 355 q 946 503 946 437 q 924 559 946 538 q 865 579 903 579 q 739 516 796 579 q 656 345 682 454 z "},"ŕ":{"ha":537,"x_min":-1,"x_max":572,"o":"m 64 -3 l 170 509 q 176 545 176 538 q 160 571 176 564 q 80 578 144 578 l 82 604 q 227 635 173 635 q 280 619 260 635 q 299 572 299 602 q 298 553 299 568 q 541 637 436 637 l 545 632 q 501 418 523 532 l 474 414 q 441 506 458 479 q 384 532 423 532 q 288 503 345 532 l 186 3 l 64 -3 m 432 961 l 572 961 l 361 708 l 313 708 l 432 961 m -1 636 z "},"ř":{"ha":537,"x_min":-1,"x_max":596,"o":"m 64 -3 l 170 509 q 176 545 176 538 q 160 571 176 564 q 80 578 144 578 l 82 604 q 227 635 173 635 q 280 619 260 635 q 299 572 299 602 q 298 553 299 568 q 541 637 436 637 l 545 632 q 501 418 523 532 l 474 414 q 441 506 458 479 q 384 532 423 532 q 288 503 345 532 l 186 3 l 64 -3 m 203 961 l 252 961 l 371 806 l 545 961 l 596 961 l 404 708 l 304 708 l 203 961 m -1 636 z "},"ŗ":{"ha":537,"x_min":11,"x_max":545,"o":"m 64 -3 l 170 509 q 176 545 176 538 q 160 571 176 564 q 80 578 144 578 l 82 604 q 227 635 173 635 q 280 619 260 635 q 299 572 299 602 q 298 553 299 568 q 541 637 436 637 l 545 632 q 501 418 523 532 l 474 414 q 441 506 458 479 q 384 532 423 532 q 288 503 345 532 l 186 3 l 64 -3 m 11 -304 q 79 -198 79 -251 q 32 -125 79 -154 q 53 -77 33 -95 q 100 -59 72 -59 q 152 -82 132 -59 q 172 -142 172 -106 q 34 -330 172 -241 l 11 -304 z "},"ś":{"ha":587,"x_min":4,"x_max":578,"o":"m 441 568 q 357 580 405 580 q 246 552 289 580 q 203 478 203 524 q 215 435 203 453 q 246 402 227 416 q 291 377 265 388 q 343 354 316 366 q 401 327 372 341 q 453 295 430 313 q 489 251 475 276 q 503 191 503 227 q 424 41 503 96 q 217 -14 344 -14 q 10 29 112 -14 q 51 203 33 111 l 77 208 l 121 57 q 227 42 168 42 q 333 71 293 42 q 374 152 374 100 q 363 190 374 174 q 334 218 352 205 q 294 242 317 231 q 245 264 271 254 q 189 291 217 277 q 139 325 161 305 q 103 372 117 345 q 90 437 90 399 q 169 583 90 529 q 374 636 248 636 q 551 604 466 636 q 513 437 532 536 l 486 433 l 441 568 m 437 961 l 578 961 l 366 708 l 319 708 l 437 961 m 4 636 z "},"ŝ":{"ha":587,"x_min":4,"x_max":560,"o":"m 441 568 q 357 580 405 580 q 246 552 289 580 q 203 478 203 524 q 215 435 203 453 q 246 402 227 416 q 291 377 265 388 q 343 354 316 366 q 401 327 372 341 q 453 295 430 313 q 489 251 475 276 q 503 191 503 227 q 424 41 503 96 q 217 -14 344 -14 q 10 29 112 -14 q 51 203 33 111 l 77 208 l 121 57 q 227 42 168 42 q 333 71 293 42 q 374 152 374 100 q 363 190 374 174 q 334 218 352 205 q 294 242 317 231 q 245 264 271 254 q 189 291 217 277 q 139 325 161 305 q 103 372 117 345 q 90 437 90 399 q 169 583 90 529 q 374 636 248 636 q 551 604 466 636 q 513 437 532 536 l 486 433 l 441 568 m 560 708 l 511 708 l 392 863 l 218 708 l 167 708 l 359 961 l 458 961 l 560 708 m 4 636 z "},"š":{"ha":587,"x_min":4,"x_max":602,"o":"m 441 568 q 357 580 405 580 q 246 552 289 580 q 203 478 203 524 q 215 435 203 453 q 246 402 227 416 q 291 377 265 388 q 343 354 316 366 q 401 327 372 341 q 453 295 430 313 q 489 251 475 276 q 503 191 503 227 q 424 41 503 96 q 217 -14 344 -14 q 10 29 112 -14 q 51 203 33 111 l 77 208 l 121 57 q 227 42 168 42 q 333 71 293 42 q 374 152 374 100 q 363 190 374 174 q 334 218 352 205 q 294 242 317 231 q 245 264 271 254 q 189 291 217 277 q 139 325 161 305 q 103 372 117 345 q 90 437 90 399 q 169 583 90 529 q 374 636 248 636 q 551 604 466 636 q 513 437 532 536 l 486 433 l 441 568 m 208 961 l 257 961 l 376 806 l 550 961 l 602 961 l 410 708 l 310 708 l 208 961 m 4 636 z "},"ş":{"ha":587,"x_min":10,"x_max":551,"o":"m 113 -124 l 197 -14 q 10 29 102 -9 q 51 203 33 111 l 77 208 l 121 57 q 227 42 168 42 q 333 71 293 42 q 374 152 374 100 q 363 190 374 174 q 334 218 352 205 q 294 242 317 231 q 245 264 271 254 q 189 291 217 277 q 139 325 161 305 q 103 372 117 345 q 90 437 90 399 q 169 583 90 529 q 374 636 248 636 q 551 604 466 636 q 513 437 532 536 l 486 433 l 441 568 q 357 580 405 580 q 246 552 289 580 q 203 478 203 524 q 215 435 203 453 q 246 402 227 416 q 291 377 265 388 q 343 354 316 366 q 401 327 372 341 q 453 295 430 313 q 489 251 475 276 q 503 191 503 227 q 433 48 503 101 q 256 -13 363 -5 l 210 -74 q 280 -163 280 -107 q 143 -330 280 -237 l 120 -304 q 186 -204 186 -252 q 115 -130 186 -155 l 113 -124 z "},"ș":{"ha":587,"x_min":10,"x_max":551,"o":"m 441 568 q 357 580 405 580 q 246 552 289 580 q 203 478 203 524 q 215 435 203 453 q 246 402 227 416 q 291 377 265 388 q 343 354 316 366 q 401 327 372 341 q 453 295 430 313 q 489 251 475 276 q 503 191 503 227 q 424 41 503 96 q 217 -14 344 -14 q 10 29 112 -14 q 51 203 33 111 l 77 208 l 121 57 q 227 42 168 42 q 333 71 293 42 q 374 152 374 100 q 363 190 374 174 q 334 218 352 205 q 294 242 317 231 q 245 264 271 254 q 189 291 217 277 q 139 325 161 305 q 103 372 117 345 q 90 437 90 399 q 169 583 90 529 q 374 636 248 636 q 551 604 466 636 q 513 437 532 536 l 486 433 l 441 568 m 106 -304 q 174 -198 174 -251 q 127 -125 174 -154 q 148 -77 128 -95 q 195 -59 167 -59 q 247 -82 227 -59 q 267 -142 267 -106 q 129 -330 267 -241 l 106 -304 z "},"ß":{"ha":820,"x_min":-218,"x_max":759,"o":"m 559 1016 q 709 966 660 1016 q 759 824 759 916 q 734 675 759 760 q 486 520 486 622 q 497 478 486 498 q 525 442 507 459 q 565 408 543 425 q 612 375 588 392 q 664 337 638 357 q 709 295 689 317 q 742 246 730 273 q 755 188 755 220 q 674 40 755 93 q 471 -14 594 -14 q 271 28 366 -14 l 307 195 l 334 200 l 376 57 q 475 41 427 41 q 584 70 542 41 q 626 155 626 99 q 616 199 626 180 q 589 236 606 219 q 550 269 572 254 q 505 300 528 285 q 458 333 481 317 q 417 370 435 350 q 388 413 399 389 q 376 465 376 436 q 625 695 376 619 q 644 812 644 759 q 616 927 644 893 q 536 961 589 961 q 401 891 456 961 q 309 636 347 821 l 189 46 q 78 -245 149 -155 q -115 -335 7 -335 q -218 -321 -161 -335 q -191 -201 -207 -258 l -186 -199 q -59 -267 -96 -267 q 57 -68 21 -267 l 171 554 l 81 574 l 83 603 l 181 612 l 182 618 q 320 911 220 806 q 559 1016 420 1016 z "},"ſ":{"ha":368,"x_min":-218,"x_max":680,"o":"m 171 554 l 81 574 l 83 603 l 181 612 l 182 618 q 320 911 220 806 q 559 1016 420 1016 q 680 998 623 1016 q 641 829 656 920 l 612 824 l 570 956 q 536 959 557 959 q 401 890 455 959 q 309 636 347 821 l 189 46 q 78 -245 149 -155 q -115 -335 7 -335 q -218 -321 -161 -335 q -191 -201 -207 -258 l -186 -199 q -59 -267 -96 -267 q 57 -68 21 -267 l 171 554 z "},"ť":{"ha":500,"x_min":83,"x_max":618,"o":"m 300 551 q 252 348 272 438 q 217 189 232 258 q 209 127 209 149 q 232 76 209 94 q 300 58 254 58 q 410 74 343 58 l 414 43 q 309 3 366 18 q 204 -12 252 -12 q 114 15 145 -12 q 83 96 83 43 q 90 151 83 117 q 123 315 102 216 q 178 553 145 414 l 87 574 l 89 603 l 200 612 l 273 782 q 349 802 307 790 l 354 798 q 311 612 332 707 l 503 612 l 490 551 l 300 551 m 448 701 q 518 840 518 772 q 459 928 518 897 q 483 982 461 962 q 538 1001 505 1001 q 596 976 574 1001 q 618 910 618 951 q 471 675 618 789 l 448 701 m 407 636 z "},"ț":{"ha":500,"x_min":83,"x_max":503,"o":"m 300 551 q 252 348 272 438 q 217 189 232 258 q 209 127 209 149 q 232 76 209 94 q 300 58 254 58 q 410 74 343 58 l 414 43 q 309 3 366 18 q 204 -12 252 -12 q 114 15 145 -12 q 83 96 83 43 q 90 151 83 117 q 123 315 102 216 q 178 553 145 414 l 87 574 l 89 603 l 200 612 l 273 782 q 349 802 307 790 l 354 798 q 311 612 332 707 l 503 612 l 490 551 l 300 551 m 92 -304 q 161 -198 161 -251 q 113 -125 161 -154 q 134 -77 115 -95 q 182 -59 153 -59 q 234 -82 214 -59 q 254 -142 254 -106 q 115 -330 254 -241 l 92 -304 z "},"ŧ":{"ha":514,"x_min":50,"x_max":510,"o":"m 64 418 l 153 418 q 184 553 168 480 l 94 574 l 96 603 l 207 612 l 279 782 q 355 802 314 790 l 361 798 q 318 612 339 707 l 510 612 l 496 551 l 307 551 q 274 418 288 480 l 467 418 l 454 358 l 261 358 q 224 189 239 258 q 216 127 216 149 q 238 76 216 94 q 307 58 261 58 q 416 74 350 58 l 420 43 q 316 3 372 18 q 211 -12 259 -12 q 121 15 152 -12 q 90 96 90 43 q 96 151 90 117 q 139 358 109 216 l 50 358 l 64 418 z "},"ù":{"ha":772,"x_min":69,"x_max":701,"o":"m 580 614 l 701 622 l 600 130 q 594 92 594 106 q 615 52 594 62 q 692 43 637 41 l 690 16 q 561 -12 604 -12 q 498 11 522 -12 q 475 78 475 33 q 476 103 475 90 q 254 -15 350 -15 q 136 31 178 -15 q 95 159 95 77 q 104 238 95 196 l 160 510 q 164 530 162 522 q 165 545 165 538 q 149 570 165 562 q 69 578 133 578 l 72 604 q 216 635 163 635 q 270 620 251 635 q 290 570 290 604 q 287 542 290 554 l 220 237 q 213 182 213 206 q 239 104 213 131 q 315 77 265 77 q 486 161 380 77 l 580 614 m 479 708 l 433 708 l 309 961 l 439 961 l 479 708 m 85 636 z "},"ú":{"ha":772,"x_min":69,"x_max":701,"o":"m 580 614 l 701 622 l 600 130 q 594 92 594 106 q 615 52 594 62 q 692 43 637 41 l 690 16 q 561 -12 604 -12 q 498 11 522 -12 q 475 78 475 33 q 476 103 475 90 q 254 -15 350 -15 q 136 31 178 -15 q 95 159 95 77 q 104 238 95 196 l 160 510 q 164 530 162 522 q 165 545 165 538 q 149 570 165 562 q 69 578 133 578 l 72 604 q 216 635 163 635 q 270 620 251 635 q 290 570 290 604 q 287 542 290 554 l 220 237 q 213 182 213 206 q 239 104 213 131 q 315 77 265 77 q 486 161 380 77 l 580 614 m 518 961 l 659 961 l 447 708 l 399 708 l 518 961 m 85 636 z "},"û":{"ha":772,"x_min":69,"x_max":701,"o":"m 580 614 l 701 622 l 600 130 q 594 92 594 106 q 615 52 594 62 q 692 43 637 41 l 690 16 q 561 -12 604 -12 q 498 11 522 -12 q 475 78 475 33 q 476 103 475 90 q 254 -15 350 -15 q 136 31 178 -15 q 95 159 95 77 q 104 238 95 196 l 160 510 q 164 530 162 522 q 165 545 165 538 q 149 570 165 562 q 69 578 133 578 l 72 604 q 216 635 163 635 q 270 620 251 635 q 290 570 290 604 q 287 542 290 554 l 220 237 q 213 182 213 206 q 239 104 213 131 q 315 77 265 77 q 486 161 380 77 l 580 614 m 641 708 l 592 708 l 473 863 l 299 708 l 248 708 l 439 961 l 539 961 l 641 708 m 85 636 z "},"ũ":{"ha":772,"x_min":69,"x_max":701,"o":"m 580 614 l 701 622 l 600 130 q 594 92 594 106 q 615 52 594 62 q 692 43 637 41 l 690 16 q 561 -12 604 -12 q 498 11 522 -12 q 475 78 475 33 q 476 103 475 90 q 254 -15 350 -15 q 136 31 178 -15 q 95 159 95 77 q 104 238 95 196 l 160 510 q 164 530 162 522 q 165 545 165 538 q 149 570 165 562 q 69 578 133 578 l 72 604 q 216 635 163 635 q 270 620 251 635 q 290 570 290 604 q 287 542 290 554 l 220 237 q 213 182 213 206 q 239 104 213 131 q 315 77 265 77 q 486 161 380 77 l 580 614 m 374 825 q 325 807 347 825 q 276 758 303 790 l 243 784 q 324 887 285 852 q 402 922 363 922 q 447 910 423 922 q 494 885 471 899 q 535 863 516 873 q 569 853 554 853 q 618 870 596 853 q 667 920 640 888 l 701 897 q 619 791 659 826 q 541 756 580 756 q 496 767 519 756 q 450 792 472 779 q 409 814 429 804 q 374 825 390 825 m 85 636 z "},"ü":{"ha":772,"x_min":69,"x_max":701,"o":"m 580 614 l 701 622 l 600 130 q 594 92 594 106 q 615 52 594 62 q 692 43 637 41 l 690 16 q 561 -12 604 -12 q 498 11 522 -12 q 475 78 475 33 q 476 103 475 90 q 254 -15 350 -15 q 136 31 178 -15 q 95 159 95 77 q 104 238 95 196 l 160 510 q 164 530 162 522 q 165 545 165 538 q 149 570 165 562 q 69 578 133 578 l 72 604 q 216 635 163 635 q 270 620 251 635 q 290 570 290 604 q 287 542 290 554 l 220 237 q 213 182 213 206 q 239 104 213 131 q 315 77 265 77 q 486 161 380 77 l 580 614 m 417 884 q 396 829 417 850 q 345 807 376 807 q 295 827 315 807 q 275 880 275 847 q 296 935 275 914 q 348 956 317 956 q 398 937 379 956 q 417 884 417 918 m 670 884 q 649 829 670 850 q 598 807 629 807 q 548 827 568 807 q 528 880 528 847 q 549 935 528 914 q 601 956 570 956 q 651 937 631 956 q 670 884 670 918 m 85 636 z "},"ū":{"ha":772,"x_min":69,"x_max":701,"o":"m 580 614 l 701 622 l 600 130 q 594 92 594 106 q 615 52 594 62 q 692 43 637 41 l 690 16 q 561 -12 604 -12 q 498 11 522 -12 q 475 78 475 33 q 476 103 475 90 q 254 -15 350 -15 q 136 31 178 -15 q 95 159 95 77 q 104 238 95 196 l 160 510 q 164 530 162 522 q 165 545 165 538 q 149 570 165 562 q 69 578 133 578 l 72 604 q 216 635 163 635 q 270 620 251 635 q 290 570 290 604 q 287 542 290 554 l 220 237 q 213 182 213 206 q 239 104 213 131 q 315 77 265 77 q 486 161 380 77 l 580 614 m 286 807 l 300 879 l 652 879 l 638 807 l 286 807 m 85 636 z "},"ŭ":{"ha":772,"x_min":69,"x_max":701,"o":"m 580 614 l 701 622 l 600 130 q 594 92 594 106 q 615 52 594 62 q 692 43 637 41 l 690 16 q 561 -12 604 -12 q 498 11 522 -12 q 475 78 475 33 q 476 103 475 90 q 254 -15 350 -15 q 136 31 178 -15 q 95 159 95 77 q 104 238 95 196 l 160 510 q 164 530 162 522 q 165 545 165 538 q 149 570 165 562 q 69 578 133 578 l 72 604 q 216 635 163 635 q 270 620 251 635 q 290 570 290 604 q 287 542 290 554 l 220 237 q 213 182 213 206 q 239 104 213 131 q 315 77 265 77 q 486 161 380 77 l 580 614 m 351 946 q 381 844 351 879 q 469 809 411 809 q 568 843 528 809 q 630 941 608 878 l 677 945 q 604 782 663 846 q 455 718 547 718 q 340 762 380 718 q 301 889 301 806 q 305 941 301 913 l 351 946 m 92 636 z "},"ů":{"ha":772,"x_min":69,"x_max":701,"o":"m 580 614 l 701 622 l 600 130 q 594 92 594 106 q 615 52 594 62 q 692 43 637 41 l 690 16 q 561 -12 604 -12 q 498 11 522 -12 q 475 78 475 33 q 476 103 475 90 q 254 -15 350 -15 q 136 31 178 -15 q 95 159 95 77 q 104 238 95 196 l 160 510 q 164 530 162 522 q 165 545 165 538 q 149 570 165 562 q 69 578 133 578 l 72 604 q 216 635 163 635 q 270 620 251 635 q 290 570 290 604 q 287 542 290 554 l 220 237 q 213 182 213 206 q 239 104 213 131 q 315 77 265 77 q 486 161 380 77 l 580 614 m 448 708 q 350 736 386 708 q 313 814 313 764 q 366 923 313 880 q 487 966 418 966 q 582 936 543 966 q 620 857 620 907 q 570 750 620 791 q 448 708 520 708 m 455 749 q 519 778 495 749 q 544 851 544 806 q 528 904 544 884 q 479 924 511 924 q 414 895 438 924 q 389 821 389 866 q 406 770 389 790 q 455 749 423 749 m 85 636 z "},"ű":{"ha":772,"x_min":69,"x_max":745,"o":"m 580 614 l 701 622 l 600 130 q 594 92 594 106 q 615 52 594 62 q 692 43 637 41 l 690 16 q 561 -12 604 -12 q 498 11 522 -12 q 475 78 475 33 q 476 103 475 90 q 254 -15 350 -15 q 136 31 178 -15 q 95 159 95 77 q 104 238 95 196 l 160 510 q 164 530 162 522 q 165 545 165 538 q 149 570 165 562 q 69 578 133 578 l 72 604 q 216 635 163 635 q 270 620 251 635 q 290 570 290 604 q 287 542 290 554 l 220 237 q 213 182 213 206 q 239 104 213 131 q 315 77 265 77 q 486 161 380 77 l 580 614 m 407 961 l 541 961 l 345 708 l 298 708 l 407 961 m 612 961 l 745 961 l 549 708 l 501 708 l 612 961 m 78 636 z "},"ų":{"ha":772,"x_min":69,"x_max":701,"o":"m 580 614 l 701 622 l 600 130 q 594 92 594 106 q 615 52 594 62 q 692 43 637 41 l 690 16 q 570 -12 612 -9 q 471 -171 471 -69 q 503 -247 471 -222 q 593 -273 534 -272 q 624 -271 608 -273 l 627 -298 q 477 -332 528 -332 q 390 -300 423 -332 q 357 -213 357 -267 q 513 -1 357 -92 l 513 -1 q 475 78 475 20 q 476 103 475 90 q 254 -15 350 -15 q 136 31 178 -15 q 95 159 95 77 q 104 238 95 196 l 160 510 q 164 530 162 522 q 165 545 165 538 q 149 570 165 562 q 69 578 133 578 l 72 604 q 216 635 163 635 q 270 620 251 635 q 290 570 290 604 q 287 542 290 554 l 220 237 q 213 182 213 206 q 239 104 213 131 q 315 77 265 77 q 486 161 380 77 l 580 614 z "},"ẁ":{"ha":966,"x_min":-1,"x_max":954,"o":"m 628 134 q 706 243 671 188 q 765 357 741 299 q 804 475 790 414 q 819 600 819 536 q 946 636 886 616 l 954 631 q 935 533 954 588 q 885 418 916 478 q 815 295 854 357 q 735 176 776 233 q 656 72 695 119 q 588 -9 617 24 l 533 -14 q 488 345 517 178 q 253 -9 403 186 l 197 -14 q 176 150 187 72 q 151 312 165 229 q 141 372 147 337 q 128 441 136 407 q 112 506 121 475 q 91 550 102 536 q 76 564 83 558 q 58 572 68 569 q 33 576 47 574 q -1 578 19 578 l 1 604 q 146 635 90 635 q 189 626 174 635 q 213 598 205 616 q 225 556 219 582 q 238 498 232 530 q 251 431 245 467 q 262 362 256 396 q 272 296 267 328 q 279 241 276 265 q 292 135 289 162 q 472 435 397 283 q 438 602 458 519 q 545 627 497 614 l 552 623 q 569 534 560 585 q 587 430 578 484 q 604 327 596 377 q 616 241 611 277 q 628 134 625 162 m 546 708 l 500 708 l 376 961 l 507 961 l 546 708 m 152 636 z "},"ẃ":{"ha":966,"x_min":-1,"x_max":954,"o":"m 628 134 q 706 243 671 188 q 765 357 741 299 q 804 475 790 414 q 819 600 819 536 q 946 636 886 616 l 954 631 q 935 533 954 588 q 885 418 916 478 q 815 295 854 357 q 735 176 776 233 q 656 72 695 119 q 588 -9 617 24 l 533 -14 q 488 345 517 178 q 253 -9 403 186 l 197 -14 q 176 150 187 72 q 151 312 165 229 q 141 372 147 337 q 128 441 136 407 q 112 506 121 475 q 91 550 102 536 q 76 564 83 558 q 58 572 68 569 q 33 576 47 574 q -1 578 19 578 l 1 604 q 146 635 90 635 q 189 626 174 635 q 213 598 205 616 q 225 556 219 582 q 238 498 232 530 q 251 431 245 467 q 262 362 256 396 q 272 296 267 328 q 279 241 276 265 q 292 135 289 162 q 472 435 397 283 q 438 602 458 519 q 545 627 497 614 l 552 623 q 569 534 560 585 q 587 430 578 484 q 604 327 596 377 q 616 241 611 277 q 628 134 625 162 m 585 961 l 726 961 l 514 708 l 467 708 l 585 961 m 152 636 z "},"ŵ":{"ha":966,"x_min":-1,"x_max":954,"o":"m 628 134 q 706 243 671 188 q 765 357 741 299 q 804 475 790 414 q 819 600 819 536 q 946 636 886 616 l 954 631 q 935 533 954 588 q 885 418 916 478 q 815 295 854 357 q 735 176 776 233 q 656 72 695 119 q 588 -9 617 24 l 533 -14 q 488 345 517 178 q 253 -9 403 186 l 197 -14 q 176 150 187 72 q 151 312 165 229 q 141 372 147 337 q 128 441 136 407 q 112 506 121 475 q 91 550 102 536 q 76 564 83 558 q 58 572 68 569 q 33 576 47 574 q -1 578 19 578 l 1 604 q 146 635 90 635 q 189 626 174 635 q 213 598 205 616 q 225 556 219 582 q 238 498 232 530 q 251 431 245 467 q 262 362 256 396 q 272 296 267 328 q 279 241 276 265 q 292 135 289 162 q 472 435 397 283 q 438 602 458 519 q 545 627 497 614 l 552 623 q 569 534 560 585 q 587 430 578 484 q 604 327 596 377 q 616 241 611 277 q 628 134 625 162 m 708 708 l 659 708 l 540 863 l 366 708 l 315 708 l 507 961 l 606 961 l 708 708 m 152 636 z "},"ẅ":{"ha":966,"x_min":-1,"x_max":954,"o":"m 628 134 q 706 243 671 188 q 765 357 741 299 q 804 475 790 414 q 819 600 819 536 q 946 636 886 616 l 954 631 q 935 533 954 588 q 885 418 916 478 q 815 295 854 357 q 735 176 776 233 q 656 72 695 119 q 588 -9 617 24 l 533 -14 q 488 345 517 178 q 253 -9 403 186 l 197 -14 q 176 150 187 72 q 151 312 165 229 q 141 372 147 337 q 128 441 136 407 q 112 506 121 475 q 91 550 102 536 q 76 564 83 558 q 58 572 68 569 q 33 576 47 574 q -1 578 19 578 l 1 604 q 146 635 90 635 q 189 626 174 635 q 213 598 205 616 q 225 556 219 582 q 238 498 232 530 q 251 431 245 467 q 262 362 256 396 q 272 296 267 328 q 279 241 276 265 q 292 135 289 162 q 472 435 397 283 q 438 602 458 519 q 545 627 497 614 l 552 623 q 569 534 560 585 q 587 430 578 484 q 604 327 596 377 q 616 241 611 277 q 628 134 625 162 m 484 884 q 464 829 484 850 q 412 807 443 807 q 362 827 382 807 q 342 880 342 847 q 363 935 342 914 q 415 956 384 956 q 465 937 446 956 q 484 884 484 918 m 737 884 q 716 829 737 850 q 665 807 696 807 q 615 827 635 807 q 595 880 595 847 q 616 935 595 914 q 668 956 637 956 q 718 937 699 956 q 737 884 737 918 m 152 636 z "},"ỳ":{"ha":667,"x_min":-37,"x_max":651,"o":"m 513 599 q 645 636 581 616 l 651 631 q 587 444 624 534 q 510 275 550 355 q 430 127 470 195 q 358 4 391 58 q 278 -144 311 -71 q 220 -275 245 -216 q 201 -310 210 -298 q 177 -330 191 -323 q 143 -338 163 -336 q 94 -340 123 -340 q -34 -334 22 -340 l -37 -308 q 33 -291 2 -303 q 87 -260 64 -279 q 117 -232 101 -250 q 156 -184 133 -214 q 208 -110 178 -155 q 279 0 238 -66 l 254 6 q 239 92 249 43 q 217 194 230 141 q 190 301 204 248 q 161 400 176 355 q 133 481 146 446 q 110 532 120 516 q 87 557 99 547 q 62 570 76 566 q 31 576 47 574 q -6 578 14 578 l -4 604 q 142 635 85 635 q 186 626 169 635 q 213 598 203 616 q 235 550 222 581 q 260 478 248 518 q 286 391 273 438 q 311 295 299 344 q 331 197 322 245 q 345 104 340 148 q 455 345 415 223 q 513 599 496 467 m 408 708 l 362 708 l 238 961 l 368 961 l 408 708 m 14 636 z "},"ý":{"ha":667,"x_min":-37,"x_max":651,"o":"m 513 599 q 645 636 581 616 l 651 631 q 587 444 624 534 q 510 275 550 355 q 430 127 470 195 q 358 4 391 58 q 278 -144 311 -71 q 220 -275 245 -216 q 201 -310 210 -298 q 177 -330 191 -323 q 143 -338 163 -336 q 94 -340 123 -340 q -34 -334 22 -340 l -37 -308 q 33 -291 2 -303 q 87 -260 64 -279 q 117 -232 101 -250 q 156 -184 133 -214 q 208 -110 178 -155 q 279 0 238 -66 l 254 6 q 239 92 249 43 q 217 194 230 141 q 190 301 204 248 q 161 400 176 355 q 133 481 146 446 q 110 532 120 516 q 87 557 99 547 q 62 570 76 566 q 31 576 47 574 q -6 578 14 578 l -4 604 q 142 635 85 635 q 186 626 169 635 q 213 598 203 616 q 235 550 222 581 q 260 478 248 518 q 286 391 273 438 q 311 295 299 344 q 331 197 322 245 q 345 104 340 148 q 455 345 415 223 q 513 599 496 467 m 447 961 l 587 961 l 376 708 l 328 708 l 447 961 m 14 636 z "},"ŷ":{"ha":667,"x_min":-37,"x_max":651,"o":"m 513 599 q 645 636 581 616 l 651 631 q 587 444 624 534 q 510 275 550 355 q 430 127 470 195 q 358 4 391 58 q 278 -144 311 -71 q 220 -275 245 -216 q 201 -310 210 -298 q 177 -330 191 -323 q 143 -338 163 -336 q 94 -340 123 -340 q -34 -334 22 -340 l -37 -308 q 33 -291 2 -303 q 87 -260 64 -279 q 117 -232 101 -250 q 156 -184 133 -214 q 208 -110 178 -155 q 279 0 238 -66 l 254 6 q 239 92 249 43 q 217 194 230 141 q 190 301 204 248 q 161 400 176 355 q 133 481 146 446 q 110 532 120 516 q 87 557 99 547 q 62 570 76 566 q 31 576 47 574 q -6 578 14 578 l -4 604 q 142 635 85 635 q 186 626 169 635 q 213 598 203 616 q 235 550 222 581 q 260 478 248 518 q 286 391 273 438 q 311 295 299 344 q 331 197 322 245 q 345 104 340 148 q 455 345 415 223 q 513 599 496 467 m 570 708 l 521 708 l 401 863 l 228 708 l 176 708 l 368 961 l 468 961 l 570 708 m 14 636 z "},"ÿ":{"ha":667,"x_min":-37,"x_max":651,"o":"m 513 599 q 645 636 581 616 l 651 631 q 587 444 624 534 q 510 275 550 355 q 430 127 470 195 q 358 4 391 58 q 278 -144 311 -71 q 220 -275 245 -216 q 201 -310 210 -298 q 177 -330 191 -323 q 143 -338 163 -336 q 94 -340 123 -340 q -34 -334 22 -340 l -37 -308 q 33 -291 2 -303 q 87 -260 64 -279 q 117 -232 101 -250 q 156 -184 133 -214 q 208 -110 178 -155 q 279 0 238 -66 l 254 6 q 239 92 249 43 q 217 194 230 141 q 190 301 204 248 q 161 400 176 355 q 133 481 146 446 q 110 532 120 516 q 87 557 99 547 q 62 570 76 566 q 31 576 47 574 q -6 578 14 578 l -4 604 q 142 635 85 635 q 186 626 169 635 q 213 598 203 616 q 235 550 222 581 q 260 478 248 518 q 286 391 273 438 q 311 295 299 344 q 331 197 322 245 q 345 104 340 148 q 455 345 415 223 q 513 599 496 467 m 346 884 q 325 829 346 850 q 274 807 304 807 q 224 827 243 807 q 204 880 204 847 q 225 935 204 914 q 277 956 245 956 q 327 937 308 956 q 346 884 346 918 m 599 884 q 578 829 599 850 q 527 807 557 807 q 477 827 496 807 q 457 880 457 847 q 478 935 457 914 q 530 956 498 956 q 579 937 560 956 q 599 884 599 918 m 14 636 z "},"ź":{"ha":675,"x_min":1,"x_max":653,"o":"m 1 14 q 232 282 140 172 q 466 567 323 391 l 217 567 l 140 420 l 113 416 q 112 615 115 534 l 116 622 q 384 619 254 619 q 651 622 508 619 l 653 607 q 425 338 532 469 q 194 54 318 208 l 452 54 l 561 205 l 590 210 q 553 3 570 104 l 547 -2 q 260 0 422 0 q 4 -2 120 0 l 1 14 m 460 961 l 601 961 l 389 708 l 342 708 l 460 961 m 27 636 z "},"ž":{"ha":675,"x_min":1,"x_max":653,"o":"m 1 14 q 232 282 140 172 q 466 567 323 391 l 217 567 l 140 420 l 113 416 q 112 615 115 534 l 116 622 q 384 619 254 619 q 651 622 508 619 l 653 607 q 425 338 532 469 q 194 54 318 208 l 452 54 l 561 205 l 590 210 q 553 3 570 104 l 547 -2 q 260 0 422 0 q 4 -2 120 0 l 1 14 m 231 961 l 280 961 l 399 806 l 573 961 l 625 961 l 433 708 l 333 708 l 231 961 m 27 636 z "},"ż":{"ha":675,"x_min":1,"x_max":653,"o":"m 1 14 q 232 282 140 172 q 466 567 323 391 l 217 567 l 140 420 l 113 416 q 112 615 115 534 l 116 622 q 384 619 254 619 q 651 622 508 619 l 653 607 q 425 338 532 469 q 194 54 318 208 l 452 54 l 561 205 l 590 210 q 553 3 570 104 l 547 -2 q 260 0 422 0 q 4 -2 120 0 l 1 14 m 485 880 q 463 823 485 845 q 409 801 441 801 q 356 822 377 801 q 336 875 336 842 q 357 932 336 911 q 412 953 379 953 q 465 933 444 953 q 485 880 485 914 m 20 636 z "},"ŋ":{"ha":757,"x_min":64,"x_max":683,"o":"m 64 -3 l 170 509 q 176 545 176 540 q 160 571 176 564 q 80 578 144 578 l 82 604 q 227 635 172 635 q 280 619 261 635 q 299 572 299 603 q 299 564 299 568 q 298 553 298 559 q 534 637 430 637 q 644 599 606 637 q 683 496 683 562 q 675 433 683 467 l 592 50 q 471 -253 544 -172 q 282 -334 398 -334 q 180 -321 232 -334 q 209 -201 191 -258 l 214 -199 q 340 -267 302 -267 q 399 -231 378 -267 q 438 -113 420 -195 l 553 408 q 559 463 559 437 q 536 529 559 505 q 463 552 514 552 q 287 496 381 552 l 186 3 l 64 -3 z "},"ð":{"ha":732,"x_min":52,"x_max":721,"o":"m 234 993 l 235 1001 l 391 1001 q 519 897 470 949 l 696 984 l 721 937 l 557 855 q 677 480 677 709 q 586 123 677 260 q 327 -14 494 -14 q 127 59 201 -14 q 52 255 52 132 q 142 515 52 410 q 375 621 233 621 q 554 545 484 621 l 557 547 q 456 806 543 692 l 245 702 l 222 751 l 420 849 q 234 993 353 924 m 380 566 q 235 473 290 566 q 181 249 181 381 q 222 98 182 152 q 335 43 262 43 q 478 138 427 43 q 530 360 530 232 q 491 512 530 458 q 380 566 452 566 z "},"þ":{"ha":713,"x_min":-97,"x_max":659,"o":"m 115 291 l 245 930 l 144 948 l 144 972 q 377 1021 258 994 l 383 1013 q 354 883 371 962 q 317 709 338 803 l 286 557 q 473 635 429 635 q 605 572 551 635 q 659 403 659 508 q 548 105 659 227 q 267 -17 438 -17 q 170 -7 221 -17 l 140 -157 q 128 -215 132 -191 q 121 -252 124 -238 q 135 -277 119 -273 l 227 -302 l 222 -330 q 60 -328 117 -328 q -97 -330 -7 -328 l -94 -302 l -19 -279 q 2 -258 -1 -273 q 16 -195 7 -233 q 33 -108 24 -158 l 115 291 m 183 50 q 269 39 231 39 q 460 142 390 39 q 531 372 531 245 q 504 496 531 445 q 427 547 476 547 q 275 503 363 547 l 183 50 z "},"ⁿ":{"ha":481,"x_min":97,"x_max":509,"o":"m 102 444 l 158 718 q 162 745 162 739 q 150 764 162 758 q 97 770 138 770 l 99 789 q 157 806 134 800 q 200 812 180 812 q 240 800 226 812 q 254 765 254 787 l 254 764 q 389 813 332 813 q 458 793 432 813 q 484 728 484 774 q 477 677 484 709 l 444 532 q 441 511 441 518 q 457 487 441 494 q 509 480 472 480 l 507 460 q 411 439 446 439 q 365 454 382 439 q 349 498 349 468 q 353 534 349 513 l 385 673 q 389 703 389 690 q 375 740 389 729 q 339 751 361 751 q 249 722 300 751 l 193 450 l 102 444 z "},"ﬀ":{"ha":813,"x_min":-218,"x_max":1075,"o":"m 171 554 l 81 574 l 83 603 l 181 612 q 318 899 218 795 q 556 1002 418 1002 q 677 984 620 1002 q 638 815 654 906 l 610 810 l 567 942 q 533 945 555 945 q 398 877 452 945 q 307 623 344 808 l 304 611 l 576 611 l 578 618 q 715 911 615 806 q 954 1016 816 1016 q 1075 998 1018 1016 q 1036 829 1052 920 l 1008 824 l 965 956 q 931 959 953 959 q 796 890 850 959 q 705 636 742 821 l 700 611 l 871 611 l 859 551 l 688 551 l 587 60 q 476 -232 547 -142 q 283 -321 406 -321 q 180 -308 237 -321 q 208 -187 191 -244 l 212 -185 q 339 -253 302 -253 q 455 -54 419 -253 l 566 551 l 293 551 l 189 46 q 78 -245 149 -155 q -115 -335 7 -335 q -218 -321 -161 -335 q -191 -201 -207 -258 l -186 -199 q -59 -267 -96 -267 q 57 -68 21 -267 l 171 554 z "},"ﬁ":{"ha":770,"x_min":-218,"x_max":730,"o":"m 597 111 q 594 87 594 96 q 616 51 594 60 q 692 43 639 43 l 690 16 q 553 -12 602 -12 q 494 7 515 -12 q 473 67 473 26 q 474 89 473 77 q 478 115 475 100 l 568 551 l 293 551 l 189 46 q 79 -244 149 -154 q -115 -335 8 -335 q -164 -332 -138 -335 q -218 -321 -189 -328 q -206 -259 -213 -289 q -191 -201 -199 -229 l -186 -199 q -59 -267 -97 -267 q 57 -68 21 -267 l 171 554 l 81 574 l 83 603 l 181 612 q 329 909 218 802 q 597 1016 440 1016 q 730 998 667 1016 q 692 829 709 914 l 663 824 l 617 956 q 580 959 600 959 q 414 896 477 959 q 313 654 350 833 l 304 611 l 532 611 q 616 625 581 611 q 689 568 689 625 q 686 542 689 555 l 597 111 z "},"ﬃ":{"ha":1166,"x_min":-218,"x_max":1126,"o":"m 576 611 q 724 909 613 802 q 993 1016 836 1016 q 1126 998 1063 1016 q 1087 829 1104 914 l 1059 824 l 1013 956 q 975 959 995 959 q 809 896 873 959 q 709 654 745 833 l 700 611 l 927 611 q 1011 625 977 611 q 1084 568 1084 625 q 1082 542 1084 555 l 993 111 q 989 87 989 96 q 1012 51 989 60 q 1088 43 1034 43 l 1086 16 q 949 -12 997 -12 q 889 7 910 -12 q 868 67 868 26 q 869 89 868 77 q 873 115 871 100 l 963 551 l 688 551 l 587 60 q 476 -232 547 -142 q 283 -321 406 -321 q 180 -308 237 -321 q 208 -187 191 -244 l 212 -185 q 339 -253 302 -253 q 455 -54 419 -253 l 566 551 l 293 551 l 189 46 q 78 -245 149 -155 q -115 -335 7 -335 q -218 -321 -161 -335 q -191 -201 -207 -258 l -186 -199 q -59 -267 -96 -267 q 57 -68 21 -267 l 171 554 l 81 574 l 83 603 l 181 612 q 318 899 218 795 q 556 1002 418 1002 q 677 984 620 1002 q 638 815 654 906 l 610 810 l 567 942 q 533 945 555 945 q 398 877 452 945 q 307 623 344 808 l 304 611 l 576 611 z "},"ﬂ":{"ha":783,"x_min":-218,"x_max":792,"o":"m 171 554 l 81 574 l 83 603 l 181 612 l 182 618 q 320 911 220 806 q 559 1016 420 1016 q 688 999 627 1016 q 787 1021 732 1008 l 792 1013 q 763 883 780 962 q 726 709 745 803 l 604 111 q 601 87 601 99 q 624 51 601 60 q 701 43 647 43 l 698 16 q 560 -12 611 -12 q 500 7 521 -12 q 479 67 479 26 q 480 89 479 77 q 484 115 481 100 l 652 930 q 536 959 604 959 q 401 890 455 959 q 309 636 347 821 l 304 612 l 482 612 l 470 551 l 293 551 l 189 46 q 78 -245 149 -155 q -115 -335 7 -335 q -218 -321 -161 -335 q -191 -201 -207 -258 l -186 -199 q -59 -267 -96 -267 q 57 -68 21 -267 l 171 554 z "},"ﬄ":{"ha":1179,"x_min":-218,"x_max":1187,"o":"m 576 611 l 578 618 q 715 911 615 806 q 954 1016 816 1016 q 1084 999 1023 1016 q 1182 1021 1127 1008 l 1187 1013 q 1158 883 1175 962 q 1121 709 1141 803 l 999 111 q 996 87 996 99 q 1019 51 996 60 q 1096 43 1042 43 l 1093 16 q 956 -12 1006 -12 q 895 7 916 -12 q 874 67 874 26 q 875 89 874 77 q 880 115 876 100 l 1047 930 q 931 959 999 959 q 796 890 850 959 q 705 636 742 821 l 700 611 l 878 611 l 865 551 l 688 551 l 587 60 q 476 -232 547 -142 q 283 -321 406 -321 q 180 -308 237 -321 q 208 -187 191 -244 l 212 -185 q 339 -253 302 -253 q 455 -54 419 -253 l 566 551 l 293 551 l 189 46 q 78 -245 149 -155 q -115 -335 7 -335 q -218 -321 -161 -335 q -191 -201 -207 -258 l -186 -199 q -59 -267 -96 -267 q 57 -68 21 -267 l 171 554 l 81 574 l 83 603 l 181 612 q 318 899 218 795 q 556 1002 418 1002 q 677 984 620 1002 q 638 815 654 906 l 610 810 l 567 942 q 533 945 555 945 q 398 877 452 945 q 307 623 344 808 l 304 611 l 576 611 z "},"&":{"ha":1018,"x_min":47,"x_max":1069,"o":"m 500 281 q 481 341 481 311 q 549 453 481 403 q 699 504 616 504 q 766 497 732 504 q 831 483 799 491 q 889 469 861 475 q 943 463 918 463 q 1048 519 991 463 l 1069 500 q 989 401 1023 426 q 916 377 956 377 q 779 405 874 377 l 778 402 q 807 293 807 355 q 776 172 807 229 q 691 71 745 114 q 562 1 636 27 q 399 -24 487 -24 q 145 53 243 -24 q 47 256 47 130 q 111 426 47 356 q 299 524 174 495 l 299 528 q 210 699 210 600 q 301 870 210 804 q 531 936 392 936 q 715 913 625 936 l 719 908 l 650 718 l 623 713 l 608 867 q 520 882 568 882 q 387 834 439 882 q 334 705 334 787 q 495 536 334 568 l 484 496 q 415 501 455 501 q 247 439 310 501 q 184 279 184 377 q 256 115 184 178 q 445 52 328 52 q 559 70 505 52 q 655 120 614 88 q 722 197 697 153 q 747 295 747 241 q 736 362 747 334 q 711 408 726 390 q 677 433 696 425 q 642 441 659 441 q 589 422 607 441 q 571 378 571 402 q 593 321 571 347 l 591 315 q 500 281 549 296 z "},"`":{"ha":570,"x_min":0,"x_max":394,"o":"m 394 708 l 349 708 l 224 961 l 355 961 l 394 708 m 0 636 z "},"̀":{"ha":0,"x_min":-568,"x_max":-174,"o":"m -174 708 l -219 708 l -343 961 l -213 961 l -174 708 m -568 636 z "},"´":{"ha":570,"x_min":0,"x_max":574,"o":"m 433 961 l 574 961 l 362 708 l 315 708 l 433 961 m 0 636 z "},"́":{"ha":0,"x_min":-568,"x_max":6,"o":"m -134 961 l 6 961 l -205 708 l -253 708 l -134 961 m -568 636 z "},"ˆ":{"ha":570,"x_min":0,"x_max":556,"o":"m 556 708 l 507 708 l 388 863 l 214 708 l 163 708 l 355 961 l 454 961 l 556 708 m 0 636 z "},"̂":{"ha":0,"x_min":-568,"x_max":-12,"o":"m -12 708 l -60 708 l -180 863 l -353 708 l -405 708 l -213 961 l -113 961 l -12 708 m -568 636 z "},"ˇ":{"ha":570,"x_min":0,"x_max":597,"o":"m 204 961 l 253 961 l 372 806 l 546 961 l 597 961 l 406 708 l 306 708 l 204 961 m 0 636 z "},"̌":{"ha":0,"x_min":-568,"x_max":30,"o":"m -363 961 l -315 961 l -195 806 l -22 961 l 30 961 l -162 708 l -262 708 l -363 961 m -568 636 z "},"̕":{"ha":85,"x_min":0,"x_max":211,"o":"m 41 701 q 111 840 111 772 q 52 928 111 897 q 76 982 54 962 q 132 1001 98 1001 q 189 976 167 1001 q 211 910 211 951 q 64 675 211 789 l 41 701 m 0 636 z "},"˜":{"ha":570,"x_min":0,"x_max":616,"o":"m 290 825 q 240 807 262 825 q 191 758 218 790 l 158 784 q 239 887 200 852 q 317 922 279 922 q 362 910 338 922 q 410 885 386 899 q 450 863 431 873 q 484 853 469 853 q 533 870 511 853 q 583 920 555 888 l 616 897 q 534 791 574 826 q 456 756 495 756 q 411 767 435 756 q 365 792 387 779 q 325 814 344 804 q 290 825 305 825 m 0 636 z "},"̃":{"ha":0,"x_min":-568,"x_max":48,"o":"m -279 825 q -328 807 -306 825 q -377 758 -350 790 l -410 784 q -329 887 -368 852 q -251 922 -290 922 q -206 910 -230 922 q -159 885 -182 899 q -118 863 -137 873 q -84 853 -99 853 q -35 870 -57 853 q 14 920 -13 888 l 48 897 q -34 791 5 826 q -112 756 -73 756 q -157 767 -134 756 q -203 792 -181 779 q -244 814 -224 804 q -279 825 -263 825 m -568 636 z "},"¨":{"ha":570,"x_min":0,"x_max":585,"o":"m 332 884 q 312 829 332 850 q 260 807 291 807 q 210 827 230 807 q 191 880 191 847 q 211 935 191 914 q 263 956 232 956 q 313 937 294 956 q 332 884 332 918 m 585 884 q 565 829 585 850 q 513 807 544 807 q 463 827 483 807 q 444 880 444 847 q 464 935 444 914 q 516 956 485 956 q 566 937 547 956 q 585 884 585 918 m 0 636 z "},"̈":{"ha":0,"x_min":-568,"x_max":18,"o":"m -235 884 q -256 829 -235 850 q -307 807 -277 807 q -357 827 -338 807 q -377 880 -377 847 q -356 935 -377 914 q -304 956 -336 956 q -254 937 -273 956 q -235 884 -235 918 m 18 884 q -3 829 18 850 q -54 807 -24 807 q -104 827 -85 807 q -124 880 -124 847 q -103 935 -124 914 q -52 956 -83 956 q -2 937 -21 956 q 18 884 18 918 m -568 636 z "},"¯":{"ha":570,"x_min":0,"x_max":568,"o":"m 201 807 l 215 879 l 568 879 l 553 807 l 201 807 m 0 636 z "},"̄":{"ha":0,"x_min":-568,"x_max":0,"o":"m -367 807 l -353 879 l 0 879 l -14 807 l -367 807 m -568 636 z "},"˘":{"ha":570,"x_min":0,"x_max":585,"o":"m 259 946 q 289 844 259 879 q 377 809 319 809 q 476 843 436 809 q 538 941 516 878 l 585 945 q 513 782 571 846 q 363 718 455 718 q 249 762 288 718 q 210 889 210 806 q 214 941 210 913 l 259 946 m 0 636 z "},"̆":{"ha":0,"x_min":-568,"x_max":18,"o":"m -309 946 q -278 844 -309 879 q -191 809 -248 809 q -92 843 -132 809 q -29 941 -52 878 l 18 945 q -55 782 3 846 q -204 718 -113 718 q -319 762 -279 718 q -358 889 -358 806 q -354 941 -358 913 l -309 946 m -568 636 z "},"˚":{"ha":570,"x_min":0,"x_max":535,"o":"m 363 708 q 265 736 301 708 q 229 814 229 764 q 281 923 229 880 q 402 966 333 966 q 497 936 458 966 q 535 857 535 907 q 485 750 535 791 q 363 708 435 708 m 370 749 q 435 778 410 749 q 459 851 459 806 q 443 904 459 884 q 395 924 427 924 q 329 895 353 924 q 304 821 304 866 q 321 770 304 790 q 370 749 338 749 m 0 636 z "},"̊":{"ha":0,"x_min":-568,"x_max":-33,"o":"m -205 708 q -303 736 -267 708 q -339 814 -339 764 q -287 923 -339 880 q -165 966 -235 966 q -71 936 -109 966 q -33 857 -33 907 q -82 750 -33 791 q -205 708 -132 708 m -197 749 q -133 778 -157 749 q -109 851 -109 806 q -125 904 -109 884 q -173 924 -141 924 q -239 895 -214 924 q -263 821 -263 866 q -246 770 -263 790 q -197 749 -229 749 m -568 636 z "},"˝":{"ha":570,"x_min":0,"x_max":667,"o":"m 329 961 l 463 961 l 267 708 l 220 708 l 329 961 m 534 961 l 667 961 l 471 708 l 423 708 l 534 961 m 0 636 z "},"̋":{"ha":0,"x_min":-568,"x_max":100,"o":"m -239 961 l -105 961 l -300 708 l -348 708 l -239 961 m -34 961 l 100 961 l -97 708 l -144 708 l -34 961 m -568 636 z "},"˙":{"ha":570,"x_min":0,"x_max":465,"o":"m 465 880 q 443 823 465 845 q 389 801 421 801 q 336 822 357 801 q 315 875 315 842 q 337 932 315 911 q 392 953 359 953 q 444 933 424 953 q 465 880 465 914 m 0 636 z "},"̇":{"ha":0,"x_min":-568,"x_max":-103,"o":"m -103 880 q -125 823 -103 845 q -179 801 -146 801 q -232 822 -211 801 q -252 875 -252 842 q -231 932 -252 911 q -176 953 -209 953 q -123 933 -144 953 q -103 880 -103 914 m -568 636 z "},"¸":{"ha":570,"x_min":106,"x_max":274,"o":"m 106 -124 l 202 0 l 260 0 l 204 -74 q 274 -163 274 -107 q 137 -330 274 -237 l 114 -304 q 180 -204 180 -252 q 109 -130 180 -155 l 106 -124 z "},"̧":{"ha":0,"x_min":-461,"x_max":-294,"o":"m -461 -124 l -366 0 l -308 0 l -363 -74 q -294 -163 -294 -107 q -431 -330 -294 -237 l -454 -304 q -388 -204 -388 -252 q -459 -130 -388 -155 l -461 -124 z "},"˛":{"ha":570,"x_min":140,"x_max":418,"o":"m 418 0 q 303 -51 352 0 q 254 -171 254 -101 q 287 -247 254 -222 q 377 -273 319 -272 q 408 -271 393 -273 l 411 -298 q 261 -332 311 -332 q 173 -299 205 -332 q 140 -213 140 -267 q 298 0 140 -90 l 353 7 l 418 0 z "},"̨":{"ha":0,"x_min":-427,"x_max":-150,"o":"m -150 0 q -264 -51 -216 0 q -313 -171 -313 -101 q -281 -247 -313 -222 q -191 -273 -249 -272 q -160 -271 -174 -273 l -157 -298 q -307 -332 -256 -332 q -395 -299 -362 -332 q -427 -213 -427 -267 q -269 0 -427 -90 l -214 7 l -150 0 z "},"̦":{"ha":0,"x_min":-444,"x_max":-282,"o":"m -444 -304 q -375 -198 -375 -251 q -422 -125 -375 -154 q -402 -77 -421 -95 q -354 -59 -382 -59 q -302 -82 -322 -59 q -282 -142 -282 -106 q -420 -330 -282 -241 l -444 -304 z "},"̒":{"ha":0,"x_min":-285,"x_max":0,"o":"m -123 957 q -192 851 -192 904 q -144 779 -192 807 q -165 730 -146 748 q -213 712 -184 712 q -265 735 -245 712 q -285 795 -285 759 q -146 983 -285 895 l -123 957 m 0 636 z "},",":{"ha":355,"x_min":-26,"x_max":195,"o":"m -26 -159 q 85 5 85 -77 q 28 97 85 62 q 55 158 31 135 q 113 181 79 181 q 173 155 150 181 q 195 83 195 128 q -4 -189 195 -63 l -26 -159 z "},";":{"ha":355,"x_min":35,"x_max":325,"o":"m 35 -159 q 146 5 146 -77 q 90 97 146 62 q 116 158 92 135 q 174 181 140 181 q 234 155 211 181 q 256 83 256 128 q 57 -189 256 -63 l 35 -159 m 244 619 q 304 597 283 619 q 325 539 325 575 q 302 480 325 503 q 243 458 279 458 q 188 480 208 458 q 168 539 168 503 q 190 597 168 575 q 244 619 213 619 z "},":":{"ha":355,"x_min":72,"x_max":325,"o":"m 149 142 q 209 120 188 142 q 229 62 229 98 q 206 4 229 26 q 147 -19 183 -19 q 92 4 113 -19 q 72 62 72 26 q 95 120 72 98 q 149 142 117 142 m 244 619 q 304 597 283 619 q 325 539 325 575 q 302 480 325 503 q 243 458 279 458 q 188 480 208 458 q 168 539 168 503 q 190 597 168 575 q 244 619 213 619 z "},".":{"ha":355,"x_min":40,"x_max":197,"o":"m 117 142 q 177 120 156 142 q 197 62 197 98 q 174 4 197 26 q 115 -19 151 -19 q 60 4 81 -19 q 40 62 40 26 q 63 120 40 98 q 117 142 85 142 z "},"…":{"ha":975,"x_min":40,"x_max":851,"o":"m 117 142 q 177 120 156 142 q 197 62 197 98 q 174 4 197 26 q 115 -19 151 -19 q 60 4 81 -19 q 40 62 40 26 q 63 120 40 98 q 117 142 85 142 m 437 142 q 497 120 476 142 q 517 62 517 98 q 494 4 517 26 q 435 -19 471 -19 q 380 4 401 -19 q 360 62 360 26 q 383 120 360 98 q 437 142 406 142 m 770 142 q 830 120 810 142 q 851 62 851 98 q 828 4 851 26 q 769 -19 805 -19 q 714 4 734 -19 q 694 62 694 26 q 716 120 694 98 q 770 142 739 142 z "},"-":{"ha":470,"x_min":45,"x_max":420,"o":"m 64 381 l 420 381 l 402 293 l 45 293 l 64 381 z "},"!":{"ha":382,"x_min":86,"x_max":410,"o":"m 172 271 l 247 913 l 406 923 l 410 918 l 216 271 l 172 271 m 163 142 q 223 120 202 142 q 243 62 243 98 q 220 4 243 26 q 161 -19 197 -19 q 106 4 127 -19 q 86 62 86 26 q 109 120 86 98 q 163 142 132 142 z "},"¡":{"ha":355,"x_min":-33,"x_max":292,"o":"m 205 347 l 131 -296 l -28 -306 l -33 -300 l 162 346 l 205 347 m 215 475 q 155 497 176 475 q 134 555 134 519 q 157 613 134 591 q 216 636 180 636 q 271 613 251 636 q 292 555 292 591 q 269 497 292 519 q 215 475 246 475 z "},"?":{"ha":604,"x_min":151,"x_max":619,"o":"m 294 262 q 197 406 197 353 q 209 453 197 430 q 243 497 222 475 q 291 541 264 519 q 345 585 317 563 q 411 637 382 613 q 460 683 440 661 q 490 728 479 705 q 500 779 500 751 q 469 858 500 830 q 382 886 438 886 q 282 866 333 886 l 213 711 l 185 707 l 185 897 q 410 941 309 941 q 564 900 509 941 q 619 777 619 859 q 603 697 619 734 q 562 629 587 661 q 504 571 536 598 q 439 518 471 543 q 386 476 411 496 q 340 435 360 456 q 309 393 321 414 q 297 349 297 372 q 320 282 297 318 l 294 262 m 227 142 q 287 120 267 142 q 308 62 308 98 q 285 4 308 26 q 226 -19 262 -19 q 171 4 191 -19 q 151 62 151 26 q 173 120 151 98 q 227 142 196 142 z "},"¿":{"ha":597,"x_min":-13,"x_max":456,"o":"m 313 355 q 410 211 410 264 q 397 164 410 187 q 363 120 385 142 q 316 76 342 98 q 261 33 289 54 q 195 -20 224 4 q 146 -66 166 -43 q 117 -111 127 -88 q 106 -161 106 -134 q 137 -241 106 -213 q 224 -269 168 -269 q 324 -249 273 -269 l 393 -94 l 421 -90 l 421 -280 q 196 -324 297 -324 q 42 -283 98 -324 q -13 -160 -13 -241 q 3 -80 -13 -117 q 45 -12 19 -43 q 103 46 71 19 q 168 99 135 74 q 221 141 195 121 q 266 182 246 161 q 297 224 286 203 q 309 269 309 245 q 286 335 309 299 l 313 355 m 379 475 q 319 497 340 475 q 298 555 298 519 q 321 613 298 591 q 380 636 345 636 q 435 613 415 636 q 456 555 456 591 q 433 497 456 519 q 379 475 410 475 z "},"‘":{"ha":282,"x_min":129,"x_max":343,"o":"m 343 1000 q 235 842 235 922 q 290 753 235 787 q 264 694 288 717 q 208 672 241 672 q 151 697 173 672 q 129 766 129 723 q 321 1030 129 908 l 343 1000 z "},"’":{"ha":282,"x_min":149,"x_max":363,"o":"m 149 694 q 257 852 257 772 q 202 941 257 907 q 228 1000 205 977 q 284 1022 251 1022 q 341 997 319 1022 q 363 928 363 971 q 171 664 363 786 l 149 694 z "},"“":{"ha":499,"x_min":124,"x_max":567,"o":"m 338 1000 q 231 842 231 922 q 286 753 231 787 q 260 694 283 717 q 203 672 237 672 q 146 697 168 672 q 124 766 124 723 q 317 1030 124 908 l 338 1000 m 567 1000 q 459 842 459 922 q 514 753 459 787 q 488 694 511 717 q 432 672 465 672 q 375 697 397 672 q 353 766 353 723 q 545 1030 353 908 l 567 1000 z "},"”":{"ha":499,"x_min":144,"x_max":587,"o":"m 144 694 q 252 852 252 772 q 197 941 252 907 q 223 1000 200 977 q 279 1022 246 1022 q 337 997 315 1022 q 359 928 359 971 q 166 664 359 786 l 144 694 m 373 694 q 481 852 481 772 q 426 941 481 907 q 452 1000 429 977 q 508 1022 475 1022 q 565 997 543 1022 q 587 928 587 971 q 395 664 587 786 l 373 694 z "},"‚":{"ha":302,"x_min":-9,"x_max":205,"o":"m -9 -172 q 99 -14 99 -93 q 44 75 99 42 q 70 134 47 112 q 126 157 93 157 q 183 131 161 157 q 205 62 205 106 q 13 -201 205 -79 l -9 -172 z "},"„":{"ha":526,"x_min":-16,"x_max":427,"o":"m -16 -172 q 92 -14 92 -93 q 37 75 92 42 q 63 134 40 112 q 119 157 86 157 q 177 131 155 157 q 199 62 199 106 q 6 -201 199 -79 l -16 -172 m 213 -172 q 321 -14 321 -93 q 266 75 321 42 q 292 134 269 112 q 348 157 315 157 q 405 131 383 157 q 427 62 427 106 q 235 -201 427 -79 l 213 -172 z "},"‹":{"ha":416,"x_min":54,"x_max":366,"o":"m 280 47 q 54 304 168 199 l 54 329 q 333 581 191 430 l 366 564 q 190 318 290 442 q 308 64 258 189 l 280 47 z "},"›":{"ha":416,"x_min":51,"x_max":362,"o":"m 136 581 q 362 323 248 429 l 362 299 q 83 47 226 198 l 51 64 q 227 310 127 186 q 109 564 158 439 l 136 581 z "},"«":{"ha":688,"x_min":54,"x_max":637,"o":"m 280 47 q 54 304 168 199 l 54 329 q 333 581 191 430 l 366 564 q 190 318 290 442 q 308 64 258 189 l 280 47 m 551 47 q 326 304 439 199 l 326 329 q 604 581 462 430 l 637 564 q 461 318 561 442 q 579 64 530 189 l 551 47 z "},"»":{"ha":688,"x_min":51,"x_max":633,"o":"m 136 581 q 362 323 248 429 l 362 299 q 83 47 226 198 l 51 64 q 227 310 127 186 q 109 564 158 439 l 136 581 m 408 581 q 633 323 519 429 l 633 299 q 355 47 497 198 l 322 64 q 498 310 398 186 q 380 564 429 439 l 408 581 z "},"/":{"ha":546,"x_min":34,"x_max":526,"o":"m 34 -153 l 444 967 l 526 967 l 115 -153 l 34 -153 z "},"|":{"ha":483,"x_min":227,"x_max":303,"o":"m 303 1034 l 303 -345 l 227 -345 l 227 1034 l 303 1034 z "},"–":{"ha":694,"x_min":41,"x_max":656,"o":"m 56 375 l 656 375 l 640 299 l 41 299 l 56 375 z "},"—":{"ha":1389,"x_min":41,"x_max":1350,"o":"m 56 375 l 1350 375 l 1335 299 l 41 299 l 56 375 z "},"―":{"ha":1426,"x_min":19,"x_max":1413,"o":"m 35 375 l 1413 375 l 1398 299 l 19 299 l 35 375 z "},"•":{"ha":435,"x_min":95,"x_max":395,"o":"m 246 644 q 353 603 311 644 q 395 496 395 562 q 353 389 395 431 q 246 347 311 347 q 136 389 178 347 q 95 496 95 431 q 136 603 95 562 q 246 644 178 644 z "},"·":{"ha":338,"x_min":87,"x_max":250,"o":"m 166 421 q 228 398 207 421 q 250 339 250 376 q 226 278 250 302 q 165 255 202 255 q 109 278 130 255 q 87 339 87 302 q 111 398 87 376 q 166 421 134 421 z "},"(":{"ha":509,"x_min":92,"x_max":582,"o":"m 290 -255 q 92 257 92 -41 q 554 1065 92 742 l 582 1036 q 202 227 202 703 q 320 -233 203 -54 l 290 -255 z "},")":{"ha":512,"x_min":-39,"x_max":451,"o":"m 252 1065 q 451 553 451 851 q -12 -255 451 68 l -39 -226 q 340 583 340 107 q 222 1042 340 863 l 252 1065 z "},"[":{"ha":479,"x_min":33,"x_max":566,"o":"m 147 -174 l 307 -212 l 302 -241 l 33 -241 l 298 1050 l 566 1050 l 561 1021 l 384 983 l 147 -174 z "},"]":{"ha":479,"x_min":-57,"x_max":475,"o":"m 361 983 l 201 1021 l 206 1050 l 475 1050 l 210 -241 l -57 -241 l -52 -212 l 124 -174 l 361 983 z "},"{":{"ha":488,"x_min":70,"x_max":555,"o":"m 73 416 q 170 455 137 428 q 219 561 203 481 l 283 873 q 348 1012 302 967 q 504 1057 395 1057 q 555 1055 523 1057 l 551 1022 q 446 989 477 1015 q 401 902 414 963 l 346 629 q 288 477 324 525 q 176 408 251 429 l 175 404 q 246 355 227 387 q 266 276 266 324 q 254 181 266 237 l 208 -44 q 194 -134 194 -106 q 217 -188 194 -169 q 298 -216 239 -207 l 293 -248 q 134 -217 181 -248 q 86 -115 86 -186 q 95 -41 86 -85 l 155 249 q 161 305 161 280 q 141 364 161 345 q 70 393 121 383 l 73 416 z "},"}":{"ha":488,"x_min":-39,"x_max":446,"o":"m 443 392 q 346 354 379 380 q 297 248 313 327 l 233 -65 q 168 -203 214 -159 q 12 -248 121 -248 q -39 -247 -7 -248 l -35 -214 q 71 -181 39 -207 q 115 -94 102 -155 l 170 180 q 229 332 192 283 q 340 401 265 380 l 341 405 q 270 453 290 422 q 250 532 250 484 q 262 627 250 571 l 308 852 q 322 943 322 915 q 299 996 322 977 q 218 1025 277 1015 l 223 1056 q 382 1025 335 1056 q 430 924 430 994 q 421 849 430 893 l 361 559 q 355 503 355 528 q 375 445 355 464 q 446 415 395 425 l 443 392 z "},"*":{"ha":602,"x_min":174,"x_max":640,"o":"m 504 956 l 420 756 l 627 802 l 640 703 l 422 721 l 530 541 l 439 497 l 390 707 l 250 549 l 182 621 l 367 734 l 174 818 l 221 906 l 386 764 l 406 975 l 504 956 z "},"†":{"ha":768,"x_min":82,"x_max":769,"o":"m 582 955 l 472 579 l 769 579 l 755 508 l 458 508 l 460 408 l 276 -321 l 220 -323 l 335 407 l 379 508 l 82 508 l 96 579 l 393 579 l 437 954 l 579 960 l 582 955 z "},"‡":{"ha":836,"x_min":19,"x_max":816,"o":"m 219 -276 l 316 39 l 19 39 l 34 110 l 331 110 l 355 339 l 425 569 l 128 569 l 143 640 l 440 640 l 471 954 l 612 960 l 616 955 l 519 640 l 816 640 l 801 569 l 504 569 l 480 340 l 410 110 l 707 110 l 692 39 l 395 39 l 364 -275 l 222 -281 l 219 -276 z "},"§":{"ha":750,"x_min":10,"x_max":707,"o":"m 588 892 q 465 911 537 911 q 345 879 389 911 q 301 788 301 846 q 315 713 301 748 q 353 647 330 679 q 406 586 376 616 q 467 528 435 557 q 529 466 498 497 q 584 401 560 435 q 623 330 608 368 q 638 249 638 292 q 530 51 638 184 q 541 -15 541 18 q 456 -175 541 -119 q 236 -231 372 -231 q 13 -197 126 -231 l 10 -192 l 85 39 l 116 44 l 128 -156 q 256 -178 194 -178 q 376 -144 334 -178 q 419 -55 419 -111 q 405 20 419 -15 q 367 86 391 55 q 314 148 344 118 q 252 208 283 178 q 190 269 220 238 q 135 333 159 299 q 97 404 111 366 q 82 484 82 441 q 191 682 82 549 q 179 748 179 717 q 263 908 179 851 q 484 965 348 965 q 703 939 589 965 l 707 935 l 631 724 l 603 719 l 588 892 m 212 636 q 191 550 191 595 q 202 474 191 509 q 234 407 214 439 q 280 346 254 375 q 334 290 306 317 q 383 244 359 267 q 431 198 408 221 q 474 149 454 174 q 509 97 494 124 q 530 183 530 138 q 518 259 530 224 q 486 327 506 295 q 439 388 466 359 q 384 444 413 416 q 336 490 360 467 q 289 536 311 513 q 246 584 266 559 q 212 636 227 609 z "},"¶":{"ha":795,"x_min":79,"x_max":836,"o":"m 621 890 l 561 892 l 444 382 q 409 380 423 380 q 173 461 263 380 q 82 669 82 543 q 176 874 82 797 q 427 952 269 952 q 554 949 463 952 q 671 947 646 947 q 836 949 760 947 l 833 920 l 720 895 q 693 874 699 890 q 682 824 688 859 l 605 387 q 571 210 588 292 q 535 62 555 129 q 489 -57 515 -5 q 426 -144 463 -109 q 341 -197 390 -179 q 229 -216 293 -216 q 79 -202 154 -216 q 106 -68 90 -135 l 111 -66 q 212 -127 168 -107 q 286 -148 255 -148 q 332 -138 312 -148 q 369 -103 352 -128 q 402 -37 387 -79 q 435 67 418 4 q 472 216 452 130 q 517 418 492 303 l 621 890 z "},"Α":{"ha":918,"x_min":-94,"x_max":873,"o":"m 203 28 l 198 -2 q 39 0 113 0 q -94 -2 -34 0 l -91 27 l -22 48 q 6 62 -7 54 q 28 81 18 71 q 45 102 38 91 q 60 124 53 113 l 548 954 l 614 964 l 758 134 q 776 71 764 88 q 810 46 787 54 l 873 27 l 869 -2 q 703 0 784 0 q 528 -2 623 0 l 531 27 l 595 46 q 619 58 610 51 q 628 87 628 66 q 618 169 628 109 l 588 353 l 271 353 l 168 171 q 133 106 146 132 q 119 68 119 79 q 125 56 119 61 q 142 47 130 51 l 203 28 m 578 412 l 517 786 l 305 412 l 578 412 z "},"Β":{"ha":816,"x_min":9,"x_max":796,"o":"m 182 949 q 355 947 272 947 q 430 950 375 947 q 507 954 486 954 q 723 901 650 954 q 796 760 796 849 q 574 511 796 561 q 758 302 758 461 q 644 76 758 155 q 343 -4 530 -4 q 267 -2 309 -4 q 176 0 224 0 q 9 -2 94 0 l 12 27 l 97 52 q 120 73 115 58 q 132 134 125 100 q 147 208 139 168 l 252 758 q 264 821 259 793 q 272 871 269 848 q 260 894 275 888 l 178 920 l 182 949 m 326 476 l 248 59 q 346 48 284 48 q 544 110 476 48 q 612 289 612 171 q 559 430 612 380 q 404 479 506 479 q 326 476 366 479 m 337 528 q 403 527 368 527 q 596 581 532 527 q 661 744 661 635 q 612 858 661 819 q 469 898 564 898 q 406 893 439 898 l 337 528 z "},"Γ":{"ha":748,"x_min":9,"x_max":823,"o":"m 277 208 q 254 77 262 128 q 267 56 252 60 l 361 27 l 356 -2 q 176 0 256 0 q 9 -2 94 0 l 12 27 l 97 52 q 120 73 117 58 q 147 208 132 128 l 252 758 q 264 821 259 793 q 272 871 269 848 q 260 894 275 888 l 178 920 l 182 949 q 353 947 272 947 l 498 947 q 820 949 650 947 l 823 944 l 732 695 l 706 690 l 690 888 l 407 888 l 277 208 z "},"Δ":{"ha":892,"x_min":-12,"x_max":764,"o":"m 760 -2 q 565 0 651 0 l 165 0 q -12 -2 88 0 l -11 27 l 535 954 l 601 968 l 764 27 l 760 -2 m 505 787 l 114 98 l 618 98 l 505 787 z "},"Ε":{"ha":791,"x_min":9,"x_max":827,"o":"m 353 947 l 502 947 q 823 949 654 947 l 827 944 l 750 734 l 722 730 l 709 888 l 407 888 l 336 513 l 404 513 q 540 513 453 513 q 566 532 559 515 l 608 624 l 645 625 q 615 482 624 528 q 591 347 607 438 l 555 344 l 547 437 q 530 456 546 455 q 393 457 471 457 l 325 457 l 278 210 q 251 60 264 134 l 568 60 l 676 233 l 709 239 l 653 3 l 648 -2 q 324 0 473 0 l 176 0 q 9 -2 94 0 l 12 27 l 97 52 q 120 73 115 57 q 132 134 125 100 q 147 208 139 168 l 252 758 q 264 821 259 793 q 272 871 269 848 q 260 894 275 888 l 178 920 l 182 949 q 353 947 272 947 z "},"Ζ":{"ha":788,"x_min":-14,"x_max":827,"o":"m -14 -2 l -11 27 l 644 888 l 262 888 l 193 724 l 164 719 l 165 944 l 170 949 q 490 947 341 947 l 626 947 q 827 949 723 947 l 824 920 l 170 60 l 572 60 l 690 244 l 723 249 l 664 3 l 659 -2 q 321 0 469 0 l 171 0 q -14 -2 75 0 z "},"Η":{"ha":1083,"x_min":9,"x_max":1131,"o":"m 328 471 l 277 208 q 253 74 262 128 q 267 51 250 56 l 339 27 l 335 -2 q 174 0 254 0 q 9 -2 94 0 l 12 27 l 97 52 q 120 73 117 58 q 147 208 132 128 l 252 758 q 272 871 265 826 q 260 894 275 888 l 178 920 l 182 949 q 350 947 272 947 q 512 949 432 947 l 509 920 l 428 897 q 406 876 410 892 q 382 761 395 827 l 339 532 l 823 532 l 866 761 q 887 876 879 827 q 873 897 890 892 l 801 920 l 805 949 q 968 947 888 947 q 1131 949 1048 947 l 1128 920 l 1040 894 q 1019 871 1023 888 q 996 758 1009 826 l 891 208 q 867 73 877 128 q 881 52 865 58 l 962 27 l 958 -2 q 787 0 866 0 q 629 -2 706 0 l 632 27 l 711 51 q 734 74 730 56 q 761 208 746 128 l 811 471 l 328 471 z "},"Θ":{"ha":1082,"x_min":79,"x_max":1042,"o":"m 484 -24 q 189 79 298 -24 q 79 368 79 181 q 241 793 79 618 q 637 968 403 968 q 933 867 823 968 q 1042 576 1042 765 q 881 151 1042 325 q 484 -24 719 -24 m 903 595 q 827 830 903 745 q 624 916 751 916 q 327 754 435 916 q 219 351 219 593 q 293 115 219 201 q 497 29 368 29 q 795 189 687 29 q 903 595 903 349 m 551 435 q 418 433 486 435 q 392 416 399 433 l 365 351 l 330 350 q 357 486 349 438 q 379 616 366 533 l 414 618 l 419 557 q 436 539 420 540 q 570 538 505 538 q 705 539 636 538 q 730 557 722 540 l 756 616 l 791 618 q 764 486 774 535 q 742 352 755 439 l 707 349 l 703 415 q 685 433 701 433 q 551 435 617 435 z "},"Ι":{"ha":469,"x_min":9,"x_max":517,"o":"m 277 208 q 263 134 269 168 q 253 74 258 101 q 272 51 251 57 l 348 27 l 343 -2 q 176 0 254 0 q 9 -2 94 0 l 12 27 l 97 52 q 120 73 115 57 q 132 134 125 100 q 147 208 139 168 l 252 758 q 264 821 259 793 q 272 871 269 848 q 260 894 275 888 l 178 920 l 182 949 q 352 947 272 947 q 517 949 432 947 l 513 920 l 427 895 q 406 874 410 891 q 395 822 400 850 q 382 761 389 794 l 277 208 z "},"Κ":{"ha":911,"x_min":9,"x_max":994,"o":"m 382 761 l 277 208 q 263 134 269 168 q 253 74 258 101 q 267 51 251 56 l 340 27 l 336 -2 q 176 0 254 0 q 9 -2 94 0 l 12 27 l 97 52 q 120 73 117 58 q 132 134 125 100 q 147 208 139 168 l 252 758 q 264 821 259 793 q 272 871 269 848 q 260 894 275 888 l 178 920 l 182 949 q 353 947 272 947 q 509 949 431 947 l 507 920 l 428 897 q 406 876 411 892 q 395 823 401 851 q 382 761 389 794 m 348 484 l 669 785 q 730 845 706 821 q 758 885 754 870 q 743 903 760 899 l 690 918 l 694 949 q 848 947 762 947 q 994 949 926 947 l 991 920 l 921 899 q 860 867 888 888 q 799 818 831 846 l 477 515 l 701 116 q 734 72 718 87 q 779 47 749 57 l 848 27 l 844 -2 q 696 0 784 0 q 653 0 673 0 q 608 -1 632 -1 q 517 182 593 47 l 348 484 z "},"Λ":{"ha":913,"x_min":-92,"x_max":867,"o":"m 515 786 l 170 171 q 134 106 148 132 q 121 68 121 79 q 126 56 121 61 q 144 47 132 51 l 204 28 l 200 -2 q 41 0 115 0 q -92 -2 -33 0 l -90 27 l -21 48 q 7 62 -5 54 q 30 81 20 71 q 47 102 39 91 q 61 124 54 113 l 546 954 l 612 964 l 751 134 q 770 71 759 88 q 805 46 781 54 l 867 27 l 863 -2 q 696 0 778 0 q 522 -2 618 0 l 525 27 l 590 46 q 613 58 604 51 q 622 87 622 66 q 612 169 622 109 l 515 786 z "},"Μ":{"ha":1239,"x_min":-10,"x_max":1289,"o":"m 1043 949 q 1154 947 1103 947 q 1289 949 1204 947 l 1286 920 l 1196 894 q 1175 871 1179 888 q 1152 758 1165 826 l 1047 208 q 1023 73 1032 128 q 1037 52 1021 58 l 1115 27 l 1111 -2 q 942 0 1021 0 q 783 -2 861 0 l 786 27 l 867 51 q 890 75 885 56 q 916 208 901 128 l 1029 795 l 541 0 l 501 -3 l 317 795 l 204 208 q 180 75 189 128 q 193 51 177 56 l 264 27 l 260 -2 q 126 0 180 0 q -10 -2 77 0 l -7 27 l 80 52 q 103 73 100 58 q 130 208 115 128 l 235 758 q 255 871 248 826 q 243 894 258 888 l 164 920 l 168 949 q 306 947 255 947 q 412 949 360 947 l 586 201 l 1043 949 z "},"Ν":{"ha":1011,"x_min":-4,"x_max":1086,"o":"m 313 775 l 208 208 q 195 135 201 168 q 184 75 189 102 q 197 52 182 56 l 276 28 l 271 -2 q 134 0 184 0 q -4 -2 80 0 l -1 27 l 83 52 q 106 73 103 58 q 119 134 113 101 q 134 208 126 168 l 235 758 q 246 821 241 793 q 254 871 251 848 q 243 894 258 889 l 161 920 l 165 949 q 244 947 210 948 q 302 947 279 947 q 334 947 318 947 q 365 949 349 948 l 774 218 l 877 761 q 889 822 884 794 q 898 874 894 850 q 884 895 900 890 l 806 918 l 810 949 q 889 947 854 948 q 949 947 924 947 q 1010 947 976 947 q 1086 949 1044 948 l 1083 920 l 995 894 q 975 871 979 889 q 964 821 969 848 q 951 758 958 793 l 807 0 l 752 -5 l 313 775 z "},"Ξ":{"ha":854,"x_min":-7,"x_max":875,"o":"m 159 706 l 187 944 l 193 949 q 511 947 359 947 l 550 947 q 871 949 703 947 l 875 944 l 800 710 l 772 706 l 769 844 l 250 844 l 187 710 l 159 706 m 441 436 q 321 434 383 436 q 295 416 303 433 l 267 351 l 231 350 q 258 486 250 439 q 281 616 267 532 l 318 619 l 321 557 q 339 538 323 539 q 461 537 402 537 q 581 538 519 537 q 607 556 600 539 l 634 617 l 671 618 q 644 486 652 533 q 621 352 635 441 l 584 349 l 580 416 q 562 434 578 433 q 441 436 500 436 m 766 241 l 738 3 l 732 -2 q 414 0 566 0 l 319 0 q -3 -2 166 0 l -7 3 l 71 237 l 98 241 l 100 109 l 677 109 l 738 237 l 766 241 z "},"Ο":{"ha":1082,"x_min":79,"x_max":1042,"o":"m 484 -24 q 189 79 298 -24 q 79 368 79 181 q 241 793 79 618 q 637 968 403 968 q 933 867 823 968 q 1042 576 1042 765 q 881 151 1042 325 q 484 -24 719 -24 m 897 595 q 823 829 897 745 q 624 914 749 914 q 331 753 437 914 q 224 351 224 593 q 297 116 224 202 q 497 31 370 31 q 790 190 684 31 q 897 595 897 350 z "},"Π":{"ha":1058,"x_min":9,"x_max":1105,"o":"m 277 208 q 253 74 262 128 q 267 51 250 56 l 339 27 l 335 -2 q 174 0 254 0 q 9 -2 94 0 l 12 27 l 97 52 q 120 73 117 58 q 147 208 132 128 l 252 758 q 272 871 265 826 q 260 894 275 888 l 178 920 l 182 949 q 350 947 272 947 l 944 947 q 1105 949 1023 947 l 1103 920 l 1015 894 q 994 871 998 888 q 972 758 984 826 l 866 208 q 843 73 852 128 q 856 52 840 58 l 937 27 l 932 -2 q 762 0 841 0 q 604 -2 681 0 l 607 27 l 687 51 q 709 74 705 56 q 736 208 721 128 l 865 886 l 407 886 l 277 208 z "},"Ρ":{"ha":798,"x_min":9,"x_max":821,"o":"m 324 458 q 408 450 357 450 q 610 516 541 450 q 679 707 679 582 q 628 847 679 798 q 476 897 577 897 q 407 889 439 897 l 324 458 m 12 27 l 97 52 q 120 73 117 58 q 132 134 125 100 q 147 208 139 168 l 252 758 q 264 821 259 793 q 272 871 269 848 q 260 894 275 888 l 178 920 l 182 949 q 331 947 269 947 q 424 949 357 947 q 519 952 491 952 q 740 893 660 952 q 821 725 821 835 q 706 479 821 564 q 414 393 592 393 q 313 401 362 393 l 276 208 q 252 75 261 127 q 266 54 250 59 l 356 27 l 352 -2 q 174 0 252 0 q 9 -2 94 0 l 12 27 z "},"Σ":{"ha":842,"x_min":-23,"x_max":861,"o":"m -20 27 l 417 468 l 157 920 l 161 949 q 366 947 270 947 l 536 947 q 858 949 689 947 l 861 944 l 781 722 l 754 717 l 743 888 l 327 888 l 545 505 l 146 99 l 624 99 l 732 270 l 765 275 l 701 3 l 695 -2 q 343 0 492 0 l 166 0 q -23 -2 64 0 l -20 27 z "},"Τ":{"ha":836,"x_min":108,"x_max":947,"o":"m 359 0 q 172 -2 275 0 l 179 27 l 282 57 q 304 78 300 62 q 331 210 315 130 l 460 888 l 231 888 l 137 706 l 108 701 l 134 944 l 140 949 q 458 947 305 947 l 622 947 q 944 949 774 947 l 947 944 l 862 706 l 834 701 l 821 888 l 590 888 l 461 210 q 437 78 446 130 q 451 57 435 62 l 549 27 l 545 -2 q 359 0 437 0 z "}}}
